/* XPM */
static char * file_archive_xpm[] = {
"64 64 106 2 ",
"   c None",
".  c #2F6D32",
"X  c #306E32",
"o  c #306E33",
"O  c #4A4B4A",
"+  c #4B4B4B",
"@  c gray30",
"#  c #4E4E4E",
"$  c #4A524A",
"%  c #475A48",
"&  c #475C48",
"*  c #475D48",
"=  c #485A48",
"-  c #5D5D5D",
";  c #446646",
":  c #456646",
">  c #476048",
",  c #496D4A",
"<  c #417943",
"1  c #417A43",
"2  c #4B774E",
"3  c #487E4A",
"4  c #4E794F",
"5  c #3F8342",
"6  c #3D8940",
"7  c #3D8C40",
"8  c #3D8D40",
"9  c #3E8E41",
"0  c #3F9243",
"q  c #4A814D",
"w  c #439A46",
"e  c #449847",
"r  c #47924A",
"t  c #4C974F",
"y  c #449D48",
"u  c #479C49",
"i  c #4C9850",
"p  c #45A049",
"a  c #47A14B",
"s  c #47A34B",
"d  c #47A44B",
"f  c #48A54B",
"g  c #4BAD4F",
"h  c #4CAE50",
"j  c #4CAF50",
"k  c #50A954",
"l  c #51A855",
"z  c #53AA56",
"x  c #4EB052",
"c  c #54B158",
"v  c #55B159",
"b  c #56B35A",
"n  c #58B45C",
"m  c #59B55D",
"M  c #64A366",
"N  c #6BB36E",
"B  c #6AB66E",
"V  c #6CB56F",
"C  c #70BF73",
"Z  c #7AB07C",
"A  c #7CB17E",
"S  c #7BB47E",
"D  c #7FB581",
"F  c #808080",
"G  c #818181",
"H  c #848484",
"J  c #909090",
"K  c #979797",
"L  c #989898",
"P  c gray60",
"I  c #9A9A9A",
"U  c #9B9B9B",
"Y  c #ACACAC",
"T  c #83C786",
"R  c #88C98A",
"E  c #88CA8A",
"W  c #88CA8B",
"Q  c #88CC8B",
"!  c #90C093",
"~  c #92C094",
"^  c #93C094",
"/  c #92C194",
"(  c #C8C8C8",
")  c gray79",
"_  c #C4DDC4",
"`  c #C4DDC5",
"'  c #DDDDDD",
"]  c gray87",
"[  c #DBEADC",
"{  c #DDEBDD",
"}  c #DFEFE0",
"|  c #E1E1E1",
" . c #E1EDE1",
".. c #E1EDE2",
"X. c #E3F1E3",
"o. c #E9F2E9",
"O. c #EAF2EA",
"+. c #EBF5EB",
"@. c #EBF6EB",
"#. c #EBF6EC",
"$. c gray97",
"%. c gray98",
"&. c #FAFCFA",
"*. c #FAFCFB",
"=. c #FBFDFB",
"-. c white",
/* pixels */
"                                                                                                                                ",
"                                                                                                                                ",
"                                                                                                                                ",
"                                                                                                                                ",
"                      q B C C C C C M M M M M -.-.-.M M C C C C C C C C 4                                                       ",
"                    3 m x j j j j j 7 7 7 7 7 -.-.-.7 7 j j j j j j j j Q ,                                                     ",
"                    z j j j j j j j 7 7 7 7 7 -.-.-.7 7 j j j j j j j j Q Q ,                                                   ",
"                    x j j j j j j j 7 7 -.-.-.7 7 7 7 7 j j j j j j j j Q Q Q ,                                                 ",
"                    j j j j j j j j 7 7 -.-.-.7 7 7 7 7 j j j j j j j j Q Q Q Q ,                                               ",
"                    j j j j j j j j 7 7 -.-.-.7 7 7 7 7 j j j j j j j j Q Q Q Q Q ,                                             ",
"                    j j j j j j j j 7 7 7 7 7 -.-.-.7 7 j j j j j j j j Q Q Q Q Q Q ,                                           ",
"                    j j j j j j j j 7 7 7 7 7 -.-.-.7 7 j j j j j j j j Q Q Q Q Q Q Q ,                                         ",
"                    j j j j j j j j 7 7 7 7 7 -.-.-.7 7 j j j j j j j j Q Q Q Q Q Q Q Q ,                                       ",
"                    j j j j j j j j 7 7 -.-.-.7 7 7 7 7 j j j j j j j j Q Q Q Q Q Q Q Q Q ,                                     ",
"                    j j j j j j j j 7 7 -.-.-.7 7 7 7 7 j j j j j j j j Q Q Q Q Q Q Q Q Q Q ,                                   ",
"                    j j j j j j j j 7 7 -.-.-.7 7 7 7 7 j j j j j j j j Q Q Q Q Q Q Q Q Q Q Q ,                                 ",
"                    j j j j j j j j 7 7 7 7 7 -.-.-.7 7 j j j j j j j j Q Q Q Q Q Q Q Q Q Q Q Q ,                               ",
"                    j j j j j j j j 7 7 7 7 7 -.-.-.7 7 j j j j j j j j Q Q Q Q Q Q Q Q Q Q Q Q Q ,                             ",
"                    j j j j j j j j 7 7 7 7 7 -.-.-.7 7 j j j j j j j j Q Q Q Q Q Q Q Q Q Q Q Q Q Q ,                           ",
"                    j j j j j j j j 7 7 -.-.-.7 7 7 7 7 j j j j j j j j T Q Q Q Q Q Q Q Q Q Q Q Q Q Q :                         ",
"                    j j j j j j j j 7 7 -.-.-.7 7 7 7 7 j j j j j j j j V Q Q Q Q Q Q Q Q Q Q Q Q Q Q Q :                       ",
"                    j j j j j j j j 7 7 -.-.-.7 7 7 7 7 j j j j j j j j y N T Q Q Q Q Q Q Q Q Q Q Q Q Q Q 2                     ",
"                    j j j j j j j j 7 7 7 7 7 -.-.-.7 7 j j j j j j j j g w 7 7 7 7 7 7 7 7 7 7 7 7 7 7 7 y                     ",
"                    j j j j j j j j 7 7 7 7 7 -.-.-.7 7 j j j j j j j j j j j j j j j j j j j j j j j j j j                     ",
"                    j j j j j j j j 7 7 7 7 7 -.-.-.7 7 j j j j j j j j j j j j j j j j j j j j j j j j j j                     ",
"                    j j j j j j j j 7 7 $.K - $ : 6 7 7 j j j j j j j j j j j j j j j j j j j j j j j j j j                     ",
"                    j j j j j j j j 7 7 H + + + + > 7 7 j j j j j j j j j j j j j j j j j j j j j j j j j j                     ",
"                    j j j j j j j j 7 1 + + F F + + 1 7 j j j j j j j j j j j j j j j j j j j j j j j j j j                     ",
"                    j j j j j j j j 7 * + + J J + + * 7 j j j j j j j j j j j j j j j j j j j j j j j j j j                     ",
"                    j j j j j j j j 5 + + + J J + + + 5 j j j j j j j j j j j j j j j j j j j j j j j j j j                     ",
"                    j j j j j j j j % + + + J J + + + = j j j j j j j j j j j j j j j j j j j j j j j j j j                     ",
"                    j j j j j j j j + @ I | J J | I @ + j j j j j j j j j j j j j j j j j j j j j j j j j j                     ",
"                    j j j j j j j j @ ) -.-.J J -.-.) @ j j j j j j j j j j j j j j j j j j j j j j j j j j                     ",
"                    j j j j j j j j I -.-.-.J J -.-.-.I j j j j j j j j j j j j j j j j j j j j j j j j j j                     ",
"                    j j j j j j j j ] -.-.-.Y Y -.-.-.] j j j j j j j j j j j j j j j j j j j j j j j j j j                     ",
"                    j j j j j j j j %.-.-.-.-.-.-.-.-.%.j j j j j j j j j j j j j j j j j j j j j j j j j j                     ",
"                    j j j j j j j j -.-.-.-.-.-.-.-.-.-.j j j j j j j j j j j j j j j j j j j j j j j j j j                     ",
"                    j j j j j j j j -.-.-.-.-.-.-.-.-.-.j j j j j j j j j j j j j j j j j j j j j j j j j j                     ",
"                    j j j j j j j j -.-.-.-.-.-.-.-.-.-.j j j j j j j j j j j j j j j j j j j j j j j j j j                     ",
"                    j j j j j j j j -.-.-.-.-.-.-.-.-.-.j j j j j j j j j j j j j j j j j j j j j j j j j j                     ",
"                    j j j j j j j j -.-.-.-.-.-.-.-.-.-.j j j j j j j j j j j j j j j j j j j j j j j j j j                     ",
"                    j j j j j j j j -.-.O.A r r Z ..-.-.j j j j j j j j j j j j j j j j j j j j j j j j j j                     ",
"                    j j j j j j j j -...t a g g d i O.-.j j j j j j j j j j j j j j j j j j j j j j j j j j                     ",
"                    j j j j j j j j -.S g j j j j g D -.j j j j j j j j j j j j j j j j j j j j j j j j j j                     ",
"                    j j j j j j j j -.z j j j j j j z -.j j j j j j j j j j j j j j j j j j j j j j j j j j                     ",
"                    j j j j j j j j =.b j j j j j j b =.j j j j j j j j j j j j j j j j j j j j j j j j j j                     ",
"                    j j j j j j j j { T j j j j j j E [ j j j j j j j j j j j j j j j j j j j j j j j j j j                     ",
"                    j j j j j j j j ^ X.m j j j j m @.! j j j j j j j j j j j j j j j j j j j j j j j j j j                     ",
"                    j j j j j j j j a ` @.E b b E #.` a j j j j j j j j j j j j j j j j j j j j j j j j j j                     ",
"                    j j j j j j j j j e ^ } =.=.} ^ e j j j j j j j j j j j j j j j j j j j j j j j j j j j                     ",
"                    j j j j j j j j j j a 0 7 7 0 a j j j j j j j j j j j j j j j j j j j j j j j j j j j j                     ",
"                    j j j j j j j j j j j j j j j j j j j j j j j j j j j j j j j j j j j j j j j j j j j j                     ",
"                    j j j j j j j j j j j j j j j j j j j j j j j j j j j j j j j j j j j j j j j j j j j j                     ",
"                    j j j j j j j j j j j j j j j j j j j j j j j j j j j j j j j j j j j j j j j j j j j j                     ",
"                    j j j j j j j j j j j j j j j j j j j j j j j j j j j j j j j j j j j j j j j j j j j j                     ",
"                    j j j j j j j j j j j j j j j j j j j j j j j j j j j j j j j j j j j j j j j j j j j j                     ",
"                    j j j j j j j j j j j j j j j j j j j j j j j j j j j j j j j j j j j j j j j j j j j j                     ",
"                    d j j j j j j j j j j j j j j j j j j j j j j j j j j j j j j j j j j j j j j j j j j a                     ",
"                    X j j j j j j j j j j j j j j j j j j j j j j j j j j j j j j j j j j j j j j j j j j .                     ",
"                      X f j j j j j j j j j j j j j j j j j j j j j j j j j j j j j j j j j j j j j j f X                       ",
"                                                                                                                                ",
"                                                                                                                                ",
"                                                                                                                                ",
"                                                                                                                                "
};
