/* XPM */
static char * folder_link_xpm[] = {
"64 64 145 2 ",
"   c None",
".  c #363A4F",
"X  c #373A4F",
"o  c #373B50",
"O  c #363B51",
"+  c #373C50",
"@  c #373D51",
"#  c #373C52",
"$  c #383E52",
"%  c #383E53",
"&  c #383E54",
"*  c #393E54",
"=  c #383F55",
"-  c #393F56",
";  c #394056",
":  c #394157",
">  c #3A4158",
",  c #3A4258",
"<  c #3B4258",
"1  c #3A4358",
"2  c #3C445A",
"3  c #3C455A",
"4  c #3C465B",
"5  c #3D465C",
"6  c #3C475D",
"7  c #3D475D",
"8  c #3D475E",
"9  c #3D485E",
"0  c #3D495F",
"q  c #404E64",
"w  c #414F66",
"e  c #425067",
"r  c #425168",
"t  c #425369",
"y  c #44556D",
"u  c #44566D",
"i  c #4A6178",
"p  c #4A6179",
"a  c #4B6179",
"s  c #4A627A",
"d  c #4B637B",
"f  c #4C657E",
"g  c #4D667E",
"h  c #4D667F",
"j  c #4D677F",
"k  c #42687B",
"l  c #456B7F",
"z  c #4E6780",
"x  c #4D6880",
"c  c #4E6881",
"v  c #4F6982",
"b  c #4F6A83",
"n  c #506C85",
"m  c #516F89",
"M  c #477084",
"N  c #487185",
"B  c #487388",
"V  c #497488",
"C  c #487489",
"Z  c #497489",
"A  c #4C778B",
"S  c #4C788B",
"D  c #4D798C",
"F  c #4D798D",
"G  c #52718A",
"H  c #53728C",
"J  c #55768F",
"K  c #567891",
"L  c #577A94",
"P  c #587B95",
"I  c #597E98",
"U  c #5D859F",
"Y  c #5D85A0",
"T  c #5D86A1",
"R  c #5788A1",
"E  c #548DA6",
"W  c #5F88A3",
"Q  c #5E88A4",
"!  c #5F89A5",
"~  c #5F8AA4",
"^  c #5F8BA6",
"/  c #558FA9",
"(  c #5E94AF",
")  c #5C9AB6",
"_  c #5C9BB7",
"`  c #5E9DB9",
"'  c #5E9DBA",
"]  c #608AA5",
"[  c #6392AE",
"{  c #6393AF",
"}  c #6494B0",
"|  c #6799B5",
" . c #689AB6",
".. c #65A5C4",
"X. c #65A6C5",
"o. c #6EA6C3",
"O. c #6CA9C8",
"+. c #6DAAC9",
"@. c #68AECE",
"#. c #6DAFCC",
"$. c #71ABCA",
"%. c #71AECC",
"&. c #72AFCD",
"*. c #69B0CF",
"=. c #6EB0CD",
"-. c #6EB0CE",
";. c #73B0CE",
":. c #73B0CF",
">. c #69B0D0",
",. c #6AB0D0",
"<. c #6BB1D1",
"1. c #6CB1D1",
"2. c #6DB1D1",
"3. c #6DB1D2",
"4. c #6CB2D2",
"5. c #6EB2D2",
"6. c #73B1D0",
"7. c #73B1D1",
"8. c #73B2D1",
"9. c #70B2D2",
"0. c #70B3D2",
"q. c #72B3D3",
"w. c #74B2D1",
"e. c #74B4D2",
"r. c #75B5D3",
"t. c #73B4D4",
"y. c #75B4D4",
"u. c #76B5D4",
"i. c #75B7D5",
"p. c #76B7D6",
"a. c #75B8D6",
"s. c #77B9D8",
"d. c #77BAD8",
"f. c #79BCDB",
"g. c #7ABEDD",
"h. c #7BBFDF",
"j. c #7BC0E0",
"k. c #7AC1E0",
"l. c #7BC0E1",
"z. c #7DC4E4",
"x. c #A4C6E7",
"c. c #A5C6E7",
"v. c #A6C6E7",
"b. c #C4D1F3",
"n. c #CAD3F5",
/* pixels */
"                                                                                                                                ",
"                                                                                                                                ",
"                                                                                                                                ",
"                                                                                                                                ",
"                                                                                                                                ",
"                                                                                                                                ",
"                                                                                                                                ",
"          Z O.t.t.t.t.t.t.t.t.t.t.t.t.t.t.t.O.R                                                                                 ",
"        Z 4.*.>.>.>.>.>.>.>.>.>.>.>.>.>.>.>.>.4.0.k                                                                             ",
"        X.>.>.>.>.>.>.>.>.>.>.>.>.>.>.>.>.>.>.>.>.4.N                                                                           ",
"        *.>.>.>.>.>.>.>.>.>.>.>.>.>.>.>.>.>.>.>.>.>.4.l                                                                         ",
"        >.>.>.>.>.>.>.>.>.>.>.>.>.>.>.>.>.>.>.>.>.>.>.4.M                                                                       ",
"        >.>.>.>.>.>.>.>.>.>.>.>.>.>.>.>.>.>.>.>.>.>.>.>.4.(                                                                     ",
"        >.>.>.>.>.>.>.>.>.>.>.>.>.>.>.>.>.>.>.>.>.>.>.>.>.>.0.0.t.t.t.t.t.t.t.t.t.t.t.t.t.t.t.t.t.t.t.t.t.t.t.t.t.O.Z           ",
"        >.>.>.>.>.>.>.>.>.>.>.>.>.>.>.>.>.>.>.>.>.>.>.>.>.>.>.>.>.>.>.>.>.>.>.>.>.>.>.>.>.>.>.>.>.>.>.>.>.>.>.>.>.*.4.B         ",
"        >.>.>.>.>.>.>.>.>.>.>.>.>.>.>.>.>.>.>.>.>.>.>.>.>.>.>.>.>.>.>.>.>.>.>.>.>.>.>.>.>.>.>.>.>.>.>.>.>.>.>.>.>.>.>.X.        ",
"        >.>.>.>.4.c.b.n.n.n.n.n.n.n.n.n.n.n.n.n.n.n.n.n.n.n.n.n.n.n.n.n.n.n.n.n.n.n.n.n.n.n.n.n.n.n.n.n.n.b.c.4.>.>.>.>.        ",
"        >.>.>.>.c.n.n.n.n.n.n.n.n.n.n.n.n.n.n.n.n.n.n.n.n.n.n.n.n.n.n.n.n.n.n.n.n.n.n.n.n.n.n.n.n.n.n.n.n.n.n.c.>.>.>.>.        ",
"        >.>.>.>.b.n.n.n.n.n.n.n.n.n.n.n.n.n.n.n.n.n.n.n.n.n.n.n.n.n.n.n.n.n.n.n.n.n.n.n.n.n.n.n.n.n.n.n.n.n.n.b.>.>.>.>.        ",
"        >.>.>.>.n.n.n.n.n.n.n.n.n.n.n.n.n.n.n.n.n.n.n.n.n.n.n.n.n.n.n.n.n.n.n.n.n.n.n.n.n.n.n.n.n.n.n.n.n.n.n.n.>.>.>.>.        ",
"        @.) / E n.n.n.n.n.n.n.n.n.n.n.n.n.n.n.n.n.n.n.n.n.n.n.n.n.n.n.n.n.n.n.n.n.n.n.n.n.n.n.n.n.n.n.n.n.n.n.n.E / ) @.        ",
"        ` #.k.z.z.z.z.z.z.z.z.z.z.z.z.z.z.z.z.z.z.z.z.z.z.z.z.z.z.z.z.z.z.z.z.z.z.z.z.z.z.z.z.z.z.z.z.z.z.z.z.z.z.k.#.`         ",
"        -.z.z.z.z.z.z.z.z.z.z.z.z.z.z.z.z.z.z.z.z.z.z.z.z.z.z.z.z.z.z.z.z.z.z.z.z.z.z.z.z.z.z.z.z.z.z.z.z.z.z.z.z.z.z.-.        ",
"        k.z.z.z.z.z.z.z.z.z.z.z.z.z.z.z.z.z.z.z.z.z.z.z.z.z.z.z.z.z.z.z.z.z.z.z.z.z.z.z.z.z.z.z.z.z.z.z.z.z.z.z.z.z.z.k.        ",
"        z.z.z.z.z.z.z.z.z.z.z.z.z.z.z.z.z.z.z.z.z.z.z.z.z.z.z.z.z.z.z.z.z.z.z.z.z.z.z.z.z.z.z.z.z.z.z.z.z.z.z.z.z.z.z.z.        ",
"        z.z.z.z.z.z.z.z.z.z.z.z.z.z.z.z.z.z.z.z.z.z.z.z.z.z.z.z.z.z.z.z.z.z.z.z.z.z.z.z.z.z.z.z.z.z.z.z.z.z.z.z.z.z.z.z.        ",
"        z.z.z.z.z.z.z.z.z.z.z.z.z.z.z.z.z.z.z.z.z.z.z.z.z.z.z.z.z.z.z.z.z.z.z.z.z.z.z.z.z.z.z.z.z.z.z.z.z.z.z.z.z.z.z.z.        ",
"        z.z.z.z.z.z.z.z.z.z.z.z.z.z.z.z.z.z.z.z.z.z.z.e.! i w - - w i ! e.z.z.z.z.z.z.z.z.z.z.z.z.z.z.z.z.z.z.z.z.z.z.z.        ",
"        z.z.z.z.z.z.z.z.z.z.z.z.z.z.z.z.z.z.z.z.z.u.G O . . . . . . . . + v w.z.z.z.z.z.z.z.z.z.z.z.z.z.z.z.z.z.z.z.z.z.        ",
"        z.z.z.z.z.z.z.z.z.z.z.z.z.z.z.z.z.z.z.z.| ; . $ v } &.g.g.&.} v $ . ;  .z.z.z.z.z.z.z.z.z.z.z.z.z.z.z.z.z.z.z.z.        ",
"        z.z.z.z.z.z.z.z.z.z.z.z.z.z.z.z.z.z.z.W + . j 0.z.z.z.z.z.z.z.z.0.j . + ! z.z.z.z.z.z.z.z.z.z.z.z.z.z.z.z.z.z.z.        ",
"        z.z.z.z.z.z.z.z.z.z.z.z.z.z.z.z.z.z.| + O T z.z.z.z.z.z.z.z.z.z.z.z.T + + j 7 9 L k.z.z.z.z.z.z.z.z.z.z.z.z.z.z.        ",
"        z.z.z.z.z.z.z.z.z.z.z.z.z.z.z.z.z.u.; . T z.z.z.z.z.z.z.z.z.z.z.z.z.z.U . . . . . L z.z.z.z.z.z.z.z.z.z.z.z.z.z.        ",
"        z.z.z.z.z.z.z.z.z.z.z.z.z.z.z.z.z.m . j z.z.z.z.z.z.z.z.z.z.z.z.z.z.z.z.$ . . . . 7 z.z.z.z.z.z.z.z.z.z.z.z.z.z.        ",
"        z.z.z.z.z.z.z.z.z.z.z.z.z.z.z.z.e.O $ 0.z.z.z.z.z.z.z.z.z.z.z.z.z.z.z.z.; . . . . 9 z.z.z.z.z.z.z.z.z.z.z.z.z.z.        ",
"        z.z.z.z.z.z.z.z.z.z.z.z.z.z.z.z.! . v z.z.z.z.z.z.z.z.z.z.z.z.z.z.z.g.G . . . . . P z.z.z.z.z.z.z.z.z.z.z.z.z.z.        ",
"        z.z.z.z.z.z.z.z.z.z.z.z.z.z.z.z.i . } z.z.z.z.z.z.z.z.z.z.z.z.z.z.&.t . - t . $ L k.z.z.z.z.z.z.z.z.z.z.z.z.z.z.        ",
"        z.z.z.z.z.z.z.z.z.z.z.z.z.z.z.z.w . :.z.z.z.z.z.z.z.z.z.k.L 7 9 i - . e $.&.. w z.z.z.z.z.z.z.z.z.z.z.z.z.z.z.z.        ",
"        z.z.z.z.z.z.z.z.z.z.z.z.z.z.z.z.; . g.z.z.z.z.z.z.z.z.z.L . . . . . n g.z.g.. ; z.z.z.z.z.z.z.z.z.z.z.z.z.z.z.z.        ",
"        z.z.z.z.z.z.z.z.z.z.z.z.z.z.k.L . . K k.z.z.z.z.s.o.{ I - . . . . < z.z.z.f.. < z.z.z.z.z.z.z.z.z.z.z.z.z.z.z.z.        ",
"        z.z.z.z.z.z.z.z.z.z.z.z.z.z.L . . . . i I v y < . . . . . . . . . 7 z.z.z.&.. e z.z.z.z.z.z.z.z.z.z.z.z.z.z.z.z.        ",
"        z.z.z.z.z.z.z.z.z.z.z.z.z.z.7 . . . . . . . . . < y v L i . . . . 2 u.z.z.{ . i z.z.z.z.z.z.z.z.z.z.z.z.z.z.z.z.        ",
"        z.z.z.z.z.z.z.z.z.z.z.z.z.z.9 . . . . - I { o.s.z.z.z.z.k.L 9 7 2 . e u.z.v . ! z.z.z.z.z.z.z.z.z.z.z.z.z.z.z.z.        ",
"        z.z.z.z.z.z.z.z.z.z.z.z.z.z.L . . . . H z.z.z.z.z.z.z.z.z.z.z.z.s.t . 2 2 . O 0.z.z.z.z.z.z.z.z.z.z.z.z.z.z.z.z.        ",
"        z.z.z.z.z.z.z.z.z.z.z.z.z.z.k.L 9 - . j z.z.z.z.z.z.z.z.z.z.z.z.z.s.2 . . . . L z.z.z.z.z.z.z.z.z.z.z.z.z.z.z.z.        ",
"        z.z.z.z.z.z.z.z.z.z.z.z.z.z.z.z.z.u.; . T z.z.z.z.z.z.z.z.z.z.z.z.z.7 . . . . 7 z.z.z.z.z.z.z.z.z.z.z.z.z.z.z.z.        ",
"        z.z.z.z.z.z.z.z.z.z.z.z.z.z.z.z.z.z. .+ + U z.z.z.z.z.z.z.z.z.z.z.z.; . . . . 9 z.z.z.z.z.z.z.z.z.z.z.z.z.z.z.z.        ",
"        z.z.z.z.z.z.z.z.z.z.z.z.z.z.z.z.z.z.z.! + . j :.z.z.z.z.z.z.z.z.:.j . . . . . P z.z.z.z.z.z.z.z.z.z.z.z.z.z.z.z.        ",
"        z.z.z.z.z.z.z.z.z.z.z.z.z.z.z.z.z.z.z.z. .; . + v { &.g.g.&.{ v + . < z 9 9 L k.z.z.z.z.z.z.z.z.z.z.z.z.z.z.z.z.        ",
"        z.z.z.z.z.z.z.z.z.z.z.z.z.z.z.z.z.z.z.z.z.s.J + . . . . . . . . + n u.z.z.z.z.z.z.z.z.z.z.z.z.z.z.z.z.z.z.z.z.z.        ",
"        z.z.z.z.z.z.z.z.z.z.z.z.z.z.z.z.z.z.z.z.z.z.z.u.] i e ; ; e i ! u.z.z.z.z.z.z.z.z.z.z.z.z.z.z.z.z.z.z.z.z.z.z.z.        ",
"        z.z.z.z.z.z.z.z.z.z.z.z.z.z.z.z.z.z.z.z.z.z.z.z.z.z.z.z.z.z.z.z.z.z.z.z.z.z.z.z.z.z.z.z.z.z.z.z.z.z.z.z.z.z.z.z.        ",
"        z.z.z.z.z.z.z.z.z.z.z.z.z.z.z.z.z.z.z.z.z.z.z.z.z.z.z.z.z.z.z.z.z.z.z.z.z.z.z.z.z.z.z.z.z.z.z.z.z.z.z.z.z.z.z.z.        ",
"        z.z.z.z.z.z.z.z.z.z.z.z.z.z.z.z.z.z.z.z.z.z.z.z.z.z.z.z.z.z.z.z.z.z.z.z.z.z.z.z.z.z.z.z.z.z.z.z.z.z.z.z.z.z.z.z.        ",
"        u.z.z.z.z.z.z.z.z.z.z.z.z.z.z.z.z.z.z.z.z.z.z.z.z.z.z.z.z.z.z.z.z.z.z.z.z.z.z.z.z.z.z.z.z.z.z.z.z.z.z.z.z.z.z.u.        ",
"        F z.z.z.z.z.z.z.z.z.z.z.z.z.z.z.z.z.z.z.z.z.z.z.z.z.z.z.z.z.z.z.z.z.z.z.z.z.z.z.z.z.z.z.z.z.z.z.z.z.z.z.z.z.z.S         ",
"          F a.z.z.z.z.z.z.z.z.z.z.z.z.z.z.z.z.z.z.z.z.z.z.z.z.z.z.z.z.z.z.z.z.z.z.z.z.z.z.z.z.z.z.z.z.z.z.z.z.z.z.a.A           ",
"                                                                                                                                ",
"                                                                                                                                ",
"                                                                                                                                ",
"                                                                                                                                ",
"                                                                                                                                ",
"                                                                                                                                ",
"                                                                                                                                "
};
