/* XPM */
static char * folder_game_xpm[] = {
"64 64 111 2 ",
"   c None",
".  c #363A4F",
"X  c #363B51",
"o  c #373C50",
"O  c #373D51",
"+  c #383D53",
"@  c #383E54",
"#  c #393F56",
"$  c #394055",
"%  c #394056",
"&  c #3A4359",
"*  c #3B4459",
"=  c #3C445B",
"-  c #3C455B",
";  c #3C465C",
":  c #3C475D",
">  c #3F4B63",
",  c #404D63",
"<  c #414E65",
"1  c #415167",
"2  c #425369",
"3  c #43536A",
"4  c #44556D",
"5  c #485C73",
"6  c #485D75",
"7  c #485E76",
"8  c #495F77",
"9  c #496078",
"0  c #4A6178",
"q  c #4A6179",
"w  c #4B647D",
"e  c #4C657E",
"r  c #42687B",
"t  c #456B7F",
"y  c #4E6881",
"u  c #4F6982",
"i  c #477084",
"p  c #487185",
"a  c #487388",
"s  c #497488",
"d  c #487489",
"f  c #497489",
"g  c #4C778B",
"h  c #4C788B",
"j  c #4D798C",
"k  c #4D798D",
"l  c #54758E",
"z  c #54748F",
"x  c #5A809A",
"c  c #5A819B",
"v  c #5B829D",
"b  c #5D86A1",
"n  c #5E87A3",
"m  c #5788A1",
"M  c #548DA6",
"N  c #558FA9",
"B  c #5E94AF",
"V  c #5C9AB6",
"C  c #5C9BB7",
"Z  c #5E9DB9",
"A  c #5E9DBA",
"S  c #608DA9",
"D  c #6799B5",
"F  c #689AB6",
"G  c #6BA1BE",
"H  c #6CA2BF",
"J  c #65A5C4",
"K  c #65A6C5",
"L  c #6CA2C0",
"P  c #6CA3C0",
"I  c #6DA4C1",
"U  c #6DA4C2",
"Y  c #6EA6C3",
"T  c #6EA7C4",
"R  c #6CA9C8",
"E  c #6DAAC9",
"W  c #68AECE",
"Q  c #6DAFCC",
"!  c #69B0CF",
"~  c #6EB0CD",
"^  c #6EB0CE",
"/  c #73B0CF",
"(  c #69B0D0",
")  c #6AB0D0",
"_  c #6BB1D1",
"`  c #6CB1D1",
"'  c #6DB1D1",
"]  c #6DB1D2",
"[  c #6CB2D2",
"{  c #6EB2D2",
"}  c #73B1D0",
"|  c #73B2D1",
" . c #70B2D2",
".. c #70B3D2",
"X. c #72B3D3",
"o. c #75B5D3",
"O. c #73B4D4",
"+. c #75B4D4",
"@. c #75B7D5",
"#. c #76B7D6",
"$. c #75B8D6",
"%. c #7BC0E0",
"&. c #7AC1E0",
"*. c #7CC2E3",
"=. c #7DC3E3",
"-. c #7DC4E4",
";. c #A4C6E7",
":. c #A5C6E7",
">. c #A6C6E7",
",. c #C4D1F3",
"<. c #CAD3F5",
/* pixels */
"                                                                                                                                ",
"                                                                                                                                ",
"                                                                                                                                ",
"                                                                                                                                ",
"                                                                                                                                ",
"                                                                                                                                ",
"                                                                                                                                ",
"          f R O.O.O.O.O.O.O.O.O.O.O.O.O.O.O.R m                                                                                 ",
"        f [ ! ( ( ( ( ( ( ( ( ( ( ( ( ( ( ( ( [ ..r                                                                             ",
"        K ( ( ( ( ( ( ( ( ( ( ( ( ( ( ( ( ( ( ( ( [ p                                                                           ",
"        ! ( ( ( ( ( ( ( ( ( ( ( ( ( ( ( ( ( ( ( ( ( [ t                                                                         ",
"        ( ( ( ( ( ( ( ( ( ( ( ( ( ( ( ( ( ( ( ( ( ( ( [ i                                                                       ",
"        ( ( ( ( ( ( ( ( ( ( ( ( ( ( ( ( ( ( ( ( ( ( ( ( [ B                                                                     ",
"        ( ( ( ( ( ( ( ( ( ( ( ( ( ( ( ( ( ( ( ( ( ( ( ( ( ( ....O.O.O.O.O.O.O.O.O.O.O.O.O.O.O.O.O.O.O.O.O.O.O.O.O.R f           ",
"        ( ( ( ( ( ( ( ( ( ( ( ( ( ( ( ( ( ( ( ( ( ( ( ( ( ( ( ( ( ( ( ( ( ( ( ( ( ( ( ( ( ( ( ( ( ( ( ( ( ( ( ( ( ! [ a         ",
"        ( ( ( ( ( ( ( ( ( ( ( ( ( ( ( ( ( ( ( ( ( ( ( ( ( ( ( ( ( ( ( ( ( ( ( ( ( ( ( ( ( ( ( ( ( ( ( ( ( ( ( ( ( ( ( K         ",
"        ( ( ( ( [ :.,.<.<.<.<.<.<.<.<.<.<.<.<.<.<.<.<.<.<.<.<.<.<.<.<.<.<.<.<.<.<.<.<.<.<.<.<.<.<.<.<.<.<.,.:.[ ( ( ( (         ",
"        ( ( ( ( :.<.<.<.<.<.<.<.<.<.<.<.<.<.<.<.<.<.<.<.<.<.<.<.<.<.<.<.<.<.<.<.<.<.<.<.<.<.<.<.<.<.<.<.<.<.<.:.( ( ( (         ",
"        ( ( ( ( ,.<.<.<.<.<.<.<.<.<.<.<.<.<.<.<.<.<.<.<.<.<.<.<.<.<.<.<.<.<.<.<.<.<.<.<.<.<.<.<.<.<.<.<.<.<.<.,.( ( ( (         ",
"        ( ( ( ( <.<.<.<.<.<.<.<.<.<.<.<.<.<.<.<.<.<.<.<.<.<.<.<.<.<.<.<.<.<.<.<.<.<.<.<.<.<.<.<.<.<.<.<.<.<.<.<.( ( ( (         ",
"        W V N M <.<.<.<.<.<.<.<.<.<.<.<.<.<.<.<.<.<.<.<.<.<.<.<.<.<.<.<.<.<.<.<.<.<.<.<.<.<.<.<.<.<.<.<.<.<.<.<.M N V W         ",
"        Z Q &.-.-.-.-.-.-.-.-.-.-.-.-.-.-.-.-.-.-.-.-.-.-.-.-.-.-.-.-.-.-.-.-.-.-.-.-.-.-.-.-.-.-.-.-.-.-.-.-.-.-.&.Q Z         ",
"        ^ -.-.-.-.-.-.-.-.-.-.-.-.-.-.-.-.-.-.-.-.-.-.-.-.-.-.-.-.-.-.-.-.-.-.-.-.-.-.-.-.-.-.-.-.-.-.-.-.-.-.-.-.-.-.^         ",
"        &.-.-.-.-.-.-.-.-.-.-.-.-.-.-.-.-.-.-.-.-.-.-.-.-.-.-.-.-.-.-.-.-.-.-.-.-.-.-.-.-.-.-.-.-.-.-.-.-.-.-.-.-.-.-.&.        ",
"        -.-.-.-.-.-.-.-.-.-.-.-.-.-.-.-.-.-.-.-.-.-.-.-.-.-.-.-.-.-.-.-.-.-.-.-.-.-.-.-.-.-.-.-.-.-.-.-.-.-.-.-.-.-.-.-.        ",
"        -.-.-.-.-.-.-.-.-.-.-.-.-.-.-.-.-.-.-.-.-.-.-.-.-.-.-.-.-.-.-.-.-.-.-.-.-.-.-.-.-.-.-.-.-.-.-.-.-.-.-.-.-.-.-.-.        ",
"        -.-.-.-.-.-.-.-.-.-.-.-.-.-.-.-.-.-.-.-.-.-.-.-.-.-.-.-.-.-.-.-.-.-.-.-.-.-.-.-.-.-.-.-.-.-.-.-.-.-.-.-.-.-.-.-.        ",
"        -.-.-.-.-.-.-.-.-.-.-.-.-.-.-.-.-.-.-.-.-.-.-.-.-.-.-.-.-.-.-.-.-.-.-.-.-.-.-.-.-.-.-.-.-.-.-.-.-.-.-.-.-.-.-.-.        ",
"        -.-.-.-.-.-.-.-.-.-.-.-.-.-.-.-.-.-.-.-.-.-.-.-.-.-.-.-.-.-.-.-.-.-.-.-.-.-.-.-.-.-.-.-.-.-.-.-.-.-.-.-.-.-.-.-.        ",
"        -.-.-.-.-.-.-.-.-.-.-.-.-.-.-.-.-.-.-.-.-.-.-.-.-.-.-.-.-.-.-.-.-.-.-.-.-.-.-.-.-.-.-.-.-.-.-.-.-.-.-.-.-.-.-.-.        ",
"        -.-.-.-.-.-.-.-.-.-.-.-.-.-.-.-.-.-.-.-.-.-.-.-.-.-.-.-.-.-.-.-.-.-.-.-.-.-.-.-.-.-.-.-.-.-.-.-.-.-.-.-.-.-.-.-.        ",
"        -.-.-.-.-.-.-.-.-.-.-.-.-.-.-.-.-.-.-.-.=.v - q T -.-.-.-.-.-.U w ; v -.-.-.-.-.-.-.-.-.-.-.-.-.-.-.-.-.-.-.-.-.        ",
"        -.-.-.-.-.-.-.-.-.-.-.-.-.-.-.-.-.-.-.-.b . . . . - 5 e e 5 - . . . . b -.-.-.-.-.-.-.-.-.-.-.-.-.-.-.-.-.-.-.-.        ",
"        -.-.-.-.-.-.-.-.-.-.-.-.-.-.-.-.-.-.-.@.# . . . . . . . . . . . . . . % @.-.-.-.-.-.-.-.-.-.-.-.-.-.-.-.-.-.-.-.        ",
"        -.-.-.-.-.-.-.-.-.-.-.-.-.-.-.-.-.-.-.x . . . -.-.. . . . . . U U . . . x -.-.-.-.-.-.-.-.-.-.-.-.-.-.-.-.-.-.-.        ",
"        -.-.-.-.-.-.-.-.-.-.-.-.-.-.-.-.-.-.-.> . . . -.-.. . . . . . U L . . . , -.-.-.-.-.-.-.-.-.-.-.-.-.-.-.-.-.-.-.        ",
"        -.-.-.-.-.-.-.-.-.-.-.-.-.-.-.-.-.-./ . . -.-.-.-.-.-.. . U U . . U U . . ..-.-.-.-.-.-.-.-.-.-.-.-.-.-.-.-.-.-.        ",
"        -.-.-.-.-.-.-.-.-.-.-.-.-.-.-.-.-.-.S . . -.-.-.-.-.-.. . U L . . U L . . S -.-.-.-.-.-.-.-.-.-.-.-.-.-.-.-.-.-.        ",
"        -.-.-.-.-.-.-.-.-.-.-.-.-.-.-.-.-.-.z . . . . -.-.. . . . . . U U . . . . z -.-.-.-.-.-.-.-.-.-.-.-.-.-.-.-.-.-.        ",
"        -.-.-.-.-.-.-.-.-.-.-.-.-.-.-.-.-.-.6 . . . . -.-.. . . . . . U L . . . . 6 -.-.-.-.-.-.-.-.-.-.-.-.-.-.-.-.-.-.        ",
"        -.-.-.-.-.-.-.-.-.-.-.-.-.-.-.-.-.-.< . . . . . . . . . . . . . . . . . . 1 -.-.-.-.-.-.-.-.-.-.-.-.-.-.-.-.-.-.        ",
"        -.-.-.-.-.-.-.-.-.-.-.-.-.-.-.-.-.-.& . . . . . . o 3 q q 3 o . . . . . . * -.-.-.-.-.-.-.-.-.-.-.-.-.-.-.-.-.-.        ",
"        -.-.-.-.-.-.-.-.-.-.-.-.-.-.-.-.-.-.+ . . . . . u @.-.-.-.-.o.u . . . . . # -.-.-.-.-.-.-.-.-.-.-.-.-.-.-.-.-.-.        ",
"        -.-.-.-.-.-.-.-.-.-.-.-.-.-.-.-.-.-.X . . . . q =.-.-.-.-.-.-.=.q . . . . o -.-.-.-.-.-.-.-.-.-.-.-.-.-.-.-.-.-.        ",
"        -.-.-.-.-.-.-.-.-.-.-.-.-.-.-.-.-.-.- . . . # ..-.-.-.-.-.-.-.-...% . . . ; -.-.-.-.-.-.-.-.-.-.-.-.-.-.-.-.-.-.        ",
"        -.-.-.-.-.-.-.-.-.-.-.-.-.-.-.-.-.-.6 . . X F -.-.-.-.-.-.-.-.-.-.D X . . 6 -.-.-.-.-.-.-.-.-.-.-.-.-.-.-.-.-.-.        ",
"        -.-.-.-.-.-.-.-.-.-.-.-.-.-.-.-.-.-.G - 4 L -.-.-.-.-.-.-.-.-.-.-.-.H 4 - H -.-.-.-.-.-.-.-.-.-.-.-.-.-.-.-.-.-.        ",
"        -.-.-.-.-.-.-.-.-.-.-.-.-.-.-.-.-.-.-.-.-.-.-.-.-.-.-.-.-.-.-.-.-.-.-.-.-.-.-.-.-.-.-.-.-.-.-.-.-.-.-.-.-.-.-.-.        ",
"        -.-.-.-.-.-.-.-.-.-.-.-.-.-.-.-.-.-.-.-.-.-.-.-.-.-.-.-.-.-.-.-.-.-.-.-.-.-.-.-.-.-.-.-.-.-.-.-.-.-.-.-.-.-.-.-.        ",
"        -.-.-.-.-.-.-.-.-.-.-.-.-.-.-.-.-.-.-.-.-.-.-.-.-.-.-.-.-.-.-.-.-.-.-.-.-.-.-.-.-.-.-.-.-.-.-.-.-.-.-.-.-.-.-.-.        ",
"        -.-.-.-.-.-.-.-.-.-.-.-.-.-.-.-.-.-.-.-.-.-.-.-.-.-.-.-.-.-.-.-.-.-.-.-.-.-.-.-.-.-.-.-.-.-.-.-.-.-.-.-.-.-.-.-.        ",
"        -.-.-.-.-.-.-.-.-.-.-.-.-.-.-.-.-.-.-.-.-.-.-.-.-.-.-.-.-.-.-.-.-.-.-.-.-.-.-.-.-.-.-.-.-.-.-.-.-.-.-.-.-.-.-.-.        ",
"        -.-.-.-.-.-.-.-.-.-.-.-.-.-.-.-.-.-.-.-.-.-.-.-.-.-.-.-.-.-.-.-.-.-.-.-.-.-.-.-.-.-.-.-.-.-.-.-.-.-.-.-.-.-.-.-.        ",
"        -.-.-.-.-.-.-.-.-.-.-.-.-.-.-.-.-.-.-.-.-.-.-.-.-.-.-.-.-.-.-.-.-.-.-.-.-.-.-.-.-.-.-.-.-.-.-.-.-.-.-.-.-.-.-.-.        ",
"        @.-.-.-.-.-.-.-.-.-.-.-.-.-.-.-.-.-.-.-.-.-.-.-.-.-.-.-.-.-.-.-.-.-.-.-.-.-.-.-.-.-.-.-.-.-.-.-.-.-.-.-.-.-.-.@.        ",
"        k -.-.-.-.-.-.-.-.-.-.-.-.-.-.-.-.-.-.-.-.-.-.-.-.-.-.-.-.-.-.-.-.-.-.-.-.-.-.-.-.-.-.-.-.-.-.-.-.-.-.-.-.-.-.h         ",
"          k $.-.-.-.-.-.-.-.-.-.-.-.-.-.-.-.-.-.-.-.-.-.-.-.-.-.-.-.-.-.-.-.-.-.-.-.-.-.-.-.-.-.-.-.-.-.-.-.-.-.-.$.g           ",
"                                                                                                                                ",
"                                                                                                                                ",
"                                                                                                                                ",
"                                                                                                                                ",
"                                                                                                                                ",
"                                                                                                                                ",
"                                                                                                                                "
};
