/* XPM */
static char * file_app_xpm[] = {
"64 64 40 1 ",
"  c None",
". c #313131",
"X c #323232",
"o c #353535",
"O c gray22",
"+ c gray24",
"@ c #3F3F3F",
"# c gray25",
"$ c gray27",
"% c #464646",
"& c gray28",
"* c gray29",
"= c #4E4E4E",
"- c gray31",
"; c #505050",
": c #555555",
"> c #585858",
", c #5A5A5A",
"< c gray36",
"1 c #606060",
"2 c gray40",
"3 c DimGray",
"4 c gray63",
"5 c gray64",
"6 c #A4A4A4",
"7 c #A7A7A7",
"8 c #A9A9A9",
"9 c #AAAAAA",
"0 c gray67",
"q c #ACACAC",
"w c gray68",
"e c gray95",
"r c #F3F3F3",
"t c #F6F6F6",
"y c gray97",
"u c #F8F8F8",
"i c #F9F9F9",
"p c gray98",
"a c #FBFBFB",
"s c white",
/* pixels */
"                                                                ",
"                                                                ",
"                                                                ",
"                                                                ",
"           +<11111111111111111111111+                           ",
"          +:;-----------------------3O                          ",
"          ;-------------------------33O                         ",
"          ;-------------------------333O                        ",
"          --------------------------3333O                       ",
"          --------------------------33333O                      ",
"          --------------------------333333O                     ",
"          --------------------------3333333O                    ",
"          --------------------------33333333O                   ",
"          --------------------------333333333O                  ",
"          --------------------------3333333333O                 ",
"          --------------------------33333333333O                ",
"          --------------------------333333333333O               ",
"          --------------------------3333333333333O              ",
"          --------------------------33333333333333O             ",
"          --------------------------233333333333333o            ",
"          -------------------------->333333333333333o           ",
"          --------------------------&>233333333333333+          ",
"          ---------------------------&#++++++++++++++&          ",
"          --------------------------------------------          ",
"          --------------------------------------------          ",
"          --------------------------------------------          ",
"          --------------------------------------------          ",
"          --------------------------------------------          ",
"          --------------------------------------------          ",
"          -------------wy0------wy0--------wy0--------          ",
"          -------------psp------psp--------psp--------          ",
"          -------------sss------sss--------sss--------          ",
"          -------------sss------sss--------sss--------          ",
"          -------------sss------sss--------sss--------          ",
"          --------0psssssssssssssssssspw---sss--------          ",
"          --------essssssssssssssssssssy---sss--------          ",
"          --------4pssssssssssssssssssp4---sss--------          ",
"          --------&#+++sss++++++sss+++#&---sss--------          ",
"          -------------sss------sss--------sss--------          ",
"          -------------sss------sss--------sss--------          ",
"          -------------sss------sss--------sss--------          ",
"          -------------sss------sss--------sss--------          ",
"          -------------sss------sss--------sss--------          ",
"          --------0psssssssssssssssssspw---sss--------          ",
"          --------essssssssssssssssssssy---psp--------          ",
"          --------4pssssssssssssssssssp4---0y7--------          ",
"          --------&#+++sss++++++sss+++#&---&#&--------          ",
"          -------------sss------sss-------------------          ",
"          -------------sss------sss-------------------          ",
"          -------------psp------psp--------0y0--------          ",
"          -------------4e4------4e4--------ysy--------          ",
"          -------------&#&------&#&--------7y4--------          ",
"          ---------------------------------&#&--------          ",
"          --------------------------------------------          ",
"          --------------------------------------------          ",
"          --------------------------------------------          ",
"          --------------------------------------------          ",
"          *------------------------------------------*          ",
"          X------------------------------------------X          ",
"           X*--------------------------------------*X           ",
"                                                                ",
"                                                                ",
"                                                                ",
"                                                                "
};
