/* XPM */
static char * file_core_xpm[] = {
"64 64 146 2 ",
"   c None",
".  c #78464F",
"X  c #7F4A54",
"o  c #803241",
"O  c #813241",
"+  c #823342",
"@  c #8C4E59",
"#  c #8D4F5B",
"$  c #904A57",
"%  c #934D5A",
"&  c #A54053",
"*  c #A64154",
"=  c #A74154",
"-  c #AB4356",
";  c #AA4357",
":  c #AB4457",
">  c #AE4459",
",  c #AF4459",
"<  c #B5465B",
"1  c #B9485D",
"2  c #B8495E",
"3  c #B45B6C",
"4  c #B45C6D",
"5  c #B85B6E",
"6  c #B95E70",
"7  c #B76575",
"8  c #B76675",
"9  c #BB6E7D",
"0  c #C04B61",
"q  c #C14B61",
"w  c #C24B62",
"e  c #C04C62",
"r  c #C34C63",
"t  c #C44C63",
"y  c #C64D64",
"u  c #C64E65",
"i  c #C84E65",
"p  c #CC4F67",
"a  c #C5566B",
"s  c #CE5068",
"d  c #CE5169",
"f  c #CF526A",
"g  c #D0586F",
"h  c #D05970",
"j  c #D15A70",
"k  c #D25D73",
"l  c #C76C7D",
"z  c #C76D7E",
"x  c #D4677C",
"c  c #D5697D",
"v  c #D5697E",
"b  c #BE7180",
"n  c #BD7281",
"m  c #BF7382",
"M  c #CE6E80",
"N  c #D26E80",
"B  c #D36F81",
"V  c #D87386",
"C  c #D87487",
"Z  c #D9788B",
"A  c #DA798C",
"S  c #DA7B8D",
"D  c #DB7E90",
"F  c #DB7F90",
"G  c #C3808C",
"H  c #C3808D",
"J  c #C7818E",
"K  c #C78290",
"L  c #DF8B9B",
"P  c #DF8C9C",
"I  c #DF8D9D",
"U  c #EA8699",
"Y  c #EF8B9D",
"T  c #D3A1AA",
"R  c #D3A1AB",
"E  c #D7A3AD",
"W  c #D4A4AD",
"Q  c #DBA3AE",
"!  c #D8A4AE",
"~  c #DBB1BA",
"^  c #DBB2BA",
"/  c #DCB2BA",
"(  c #DCB3BA",
")  c #DCB4BC",
"_  c #E2A6B2",
"`  c #E3A6B2",
"'  c #E6A6B2",
"]  c #E6A7B3",
"[  c #E3A8B3",
"{  c #E3A8B4",
"}  c #E7A8B4",
"|  c #E4AAB5",
" . c #E7AAB6",
".. c #E7ABB6",
"X. c #E7ABB7",
"o. c #E7ACB7",
"O. c #E8ACB7",
"+. c #E3B7BF",
"@. c #E3B7C0",
"#. c #EBB8C2",
"$. c #EBBAC3",
"%. c #EBBBC4",
"&. c #ECBBC4",
"*. c #ECBBC5",
"=. c #E8CED3",
"-. c #EACFD4",
";. c #EAD1D5",
":. c #EDD0D6",
">. c #EED2D7",
",. c #ECD6DA",
"<. c #ECD7DB",
"1. c #F3D4DA",
"2. c #F3D9DE",
"3. c #F3DADE",
"4. c #F5DADF",
"5. c #F4DBE0",
"6. c #F5DBE0",
"7. c #F5DCE1",
"8. c #F1E1E4",
"9. c #F2E2E5",
"0. c #F2E3E5",
"q. c #F3E2E6",
"w. c #F2E3E6",
"e. c #F3E3E6",
"r. c #F6E5E8",
"t. c #F8E4E8",
"y. c #F8E6E9",
"u. c #F8E6EA",
"i. c #F8EFF1",
"p. c #F8F0F2",
"a. c #FAF0F2",
"s. c #FAF1F3",
"d. c #F9F2F3",
"f. c #FBF2F4",
"g. c #FBF3F4",
"h. c #FAF5F6",
"j. c #FBF6F7",
"k. c #FCF5F7",
"l. c #FBF7F8",
"z. c #FDF7F8",
"x. c #FDFBFC",
"c. c #FEFBFC",
"v. c #FEFCFC",
"b. c #FEFCFD",
"n. c #FEFDFD",
"m. c white",
/* pixels */
"                                                                                                                                ",
"                                                                                                                                ",
"                                                                                                                                ",
"                                                                                                                                ",
"                      % M V V V V V V V V V V V V V V V V V V V V V V V @                                                       ",
"                    $ k s s s s s s s s s s s s s s s s s s s s s s s s Y X                                                     ",
"                    a s s s s s s s s s s s s s s s s s s s s s s s s s Y Y X                                                   ",
"                    s s s s s s s s s s s s s s s s s s s s s s s s s s Y Y Y X                                                 ",
"                    s s s s s s s s s s s s s s s s s s s s s s s s s s Y Y Y Y X                                               ",
"                    s s s s s s s s s s s s s s s s s s s s s s s s s s Y Y Y Y Y X                                             ",
"                    s s s s s s s s s s s s s s s s s s s s s s s s s s Y Y Y Y Y Y X                                           ",
"                    s s s s s s s s s s s s s s s s s s s s s s s s s s Y Y Y Y Y Y Y X                                         ",
"                    s s s s s s s s s s s s s s s s s s s s s s s s s s Y Y Y Y Y Y Y Y X                                       ",
"                    s s s s s s s s s s s s s s s s s s s s s s s s s s Y Y Y Y Y Y Y Y Y X                                     ",
"                    s s s s s s s s s s s s s s s s s s s s s s s s s s Y Y Y Y Y Y Y Y Y Y X                                   ",
"                    s s s s s s s s s s s s s s s s s s s s s s s s s s Y Y Y Y Y Y Y Y Y Y Y X                                 ",
"                    s s s s s s s s s s s s s s s s s s s s s s s s s s Y Y Y Y Y Y Y Y Y Y Y Y X                               ",
"                    s s s s s s s s s s s s s s s s s s s s s s s s s s Y Y Y Y Y Y Y Y Y Y Y Y Y X                             ",
"                    s s s s s s s s s s s s s s s s s s s s s s s s s s Y Y Y Y Y Y Y Y Y Y Y Y Y Y X                           ",
"                    s s s s s s s s s s s s s s s s s s s s s s s s s s U Y Y Y Y Y Y Y Y Y Y Y Y Y Y .                         ",
"                    s s s s s s s s s s s s s s s s s s s s s s s s s s N Y Y Y Y Y Y Y Y Y Y Y Y Y Y Y .                       ",
"                    s s s s s s s s s s s s s s s s s s s s s s s s s s 1 N U Y Y Y Y Y Y Y Y Y Y Y Y Y Y @                     ",
"                    s s s s s s s s s s s s s s s s s s s s s s s s s s p < * & & & & & & & & & & & & & & 1                     ",
"                    s s s s s s s s s s s s s s s s s s s s s s s s s s s s s s s s s s s s s s s s s s s s                     ",
"                    s s s s s s s s s s s s s s s s s s s s s s s s s s s s s s s s s s s s s s s s s s s s                     ",
"                    s s s s s s s s s s s s s s s s s s s s s s s s s s s s s s s s s s s s s s s s s s s s                     ",
"                    s s s s s s s s s s s s s s s s s s s s s s s s s s s s s s s s s s s s s s s s s s s s                     ",
"                    s s s s s s s s s s s s s s s s s C ..1.t.z.z.t.1...C s s s s s s s s s s s s s s s s s                     ",
"                    s s s s s s s s s s s s s s s P t.m.m.m.m.m.m.m.m.m.m.t.P s s s s s s s s s s s s s s s                     ",
"                    s s s s s s s s s s s s s v 7.m.m.m.m.m.m.m.m.m.m.m.m.m.m.5.v s s s s s s s s s s s s s                     ",
"                    s s s s s s s s s s s s S a.m.m.m.m.m.m.m.m.m.m.m.m.m.m.m.m.f.F s s s s s s s s s s s s                     ",
"                    s s s s s s s s s s s F c.m.m.m.m.m.m.m.m.m.m.m.m.m.m.m.m.m.m.c.F s s s s s s s s s s s                     ",
"                    s s s s s s s s s s x a.m.m.m.m.m.m.m.m.m.m.m.m.m.m.m.m.m.m.m.m.f.v s s s s s s s s s s                     ",
"                    s s s s s s s s s s 5.m.m.m.m.m.m.m.m.m.m.m.m.m.m.m.m.m.m.m.m.m.m.2.s s s s s s s s s s                     ",
"                    s s s s s s s s s P m.m.m.m.m.m.m.m.m.m.m.m.m.m.m.m.m.m.m.m.m.m.m.m.L s s s s s s s s s                     ",
"                    s s s s s s s s s r.m.m.m.m.m.m.m.m.c.<.) W W ) <.m.m.m.m.m.m.m.m.m.r.s s s s s s s s s                     ",
"                    s s s s s s s s C m.m.m.m.m.m.m.m.j.~ Q ` ] ] ` Q ~ j.m.m.m.m.m.m.m.m.V s s s s s s s s                     ",
"                    s s s s s s s s { m.m.m.m.m.m.m.m./ ` ............` / c.m.m.m.m.m.m.m.[ s s s s s s s s                     ",
"                    s s s s s s s s >.m.m.m.m.m.m.m.<.` ..] Z h h S ] ..` <.m.m.m.m.m.m.m.>.s s s s s s s s                     ",
"                    s s s s s s s s 8.m.m.m.m.m.m.m.+.....S s s s s S ....@.m.m.m.m.m.m.m.8.s s s s s s s s                     ",
"                    s s s s s s s s j.m.m.m.m.m.m.m.....] h s s p p g ......m.m.m.m.m.m.m.j.s s s s s s s s                     ",
"                    s s s s s s s s j.m.m.m.m.m.m.m.....] g s s s s h ....o.m.m.m.m.m.m.m.j.s s s s s s s s                     ",
"                    s s s s s s s s 8.m.m.m.m.m.m.m.#...} S s s s s S ....%.m.m.m.m.m.m.m.8.s s s s s s s s                     ",
"                    s s s s s s s s ;.m.m.m.m.m.m.m.2.....] S h g S ] ....2.m.m.m.m.m.m.m.-.s s s s s s s s                     ",
"                    s s s s s s s s ! m.m.m.m.m.m.m.c.#.........} } ....#.m.m.m.m.m.m.m.m.E s s s s s s s s                     ",
"                    s s s s s s s s z m.m.m.m.m.m.m.m.k.#.......} } ..#.k.m.m.m.m.m.m.m.m.z s s s s s s s s                     ",
"                    s s s s s s s s y 8.m.m.m.m.m.m.m.m.m.4.&.O.O.&.4.m.m.m.m.m.m.m.m.m.8.y s s s s s s s s                     ",
"                    s s s s s s s s s K m.m.m.m.m.m.m.m.m.m.m.m.m.m.m.m.m.m.m.m.m.m.m.m.J s s s s s s s s s                     ",
"                    s s s s s s s s s e <.m.m.m.m.m.m.m.m.m.m.m.m.m.m.m.m.m.m.m.m.m.m.<.e s s s s s s s s s                     ",
"                    s s s s s s s s s s 5 a.m.m.m.m.m.m.m.m.m.m.m.m.m.m.m.m.m.m.m.m.a.6 s s s s s s s s s s                     ",
"                    s s s s s s s s s s i m c.m.m.m.m.m.m.m.m.m.m.m.m.m.m.m.m.m.m.c.m i s s s s s s s s s s                     ",
"                    s s s s s s s s s s s e 9 i.m.m.m.m.m.m.m.m.m.m.m.m.m.m.m.m.a.m e s s s s s s s s s s s                     ",
"                    s s s s s s s s s s s s t 4 <.m.m.m.m.m.m.m.m.m.m.m.m.m.m.<.3 e s s s s s s s s s s s s                     ",
"                    s s s s s s s s s s s s s i , H 8.m.m.m.m.m.m.m.m.m.m.8.H , i s s s s s s s s s s s s s                     ",
"                    s s s s s s s s s s s s s s s q - 8 R =.8.l.l.8.=.R 8 : q s s s s s s s s s s s s s s s                     ",
"                    s s s s s s s s s s s s s s s s s y 1 , - * * - , 1 y s s s s s s s s s s s s s s s s s                     ",
"                    s s s s s s s s s s s s s s s s s s s s s s s s s s s s s s s s s s s s s s s s s s s s                     ",
"                    q s s s s s s s s s s s s s s s s s s s s s s s s s s s s s s s s s s s s s s s s s s q                     ",
"                    O s s s s s s s s s s s s s s s s s s s s s s s s s s s s s s s s s s s s s s s s s s O                     ",
"                      O q s s s s s s s s s s s s s s s s s s s s s s s s s s s s s s s s s s s s s s q O                       ",
"                                                                                                                                ",
"                                                                                                                                ",
"                                                                                                                                ",
"                                                                                                                                "
};
