/* XPM */
static char * file_info_xpm[] = {
"64 64 94 2 ",
"   c None",
".  c #0C6734",
"X  c #0C6834",
"o  c #38644B",
"O  c #28794B",
"+  c #2A7C4E",
"@  c #3C6B50",
"#  c #3A7453",
"$  c #3D7656",
"%  c #0F8442",
"&  c #0F8643",
"*  c #119048",
"=  c #119149",
"-  c #12914A",
";  c #12924A",
":  c #13924A",
">  c #13934A",
",  c #11944A",
"<  c #11944B",
"1  c #12944B",
"2  c #16944D",
"3  c #12994D",
"4  c #129A4D",
"5  c #129B4E",
"6  c #13A352",
"7  c #13A553",
"8  c #14A554",
"9  c #15A654",
"0  c #16A655",
"q  c #21A159",
"w  c #25AC60",
"e  c #3FAF6F",
"r  c #4BAD76",
"t  c #4BAE76",
"y  c #57A97B",
"u  c #57AA7C",
"i  c #58AA7D",
"p  c #59AB7D",
"a  c #5AAB7E",
"s  c #42B775",
"d  c #5EAD81",
"f  c #55BE83",
"g  c #56BE84",
"h  c #58BF86",
"j  c #62AF84",
"k  c #64B085",
"l  c #66B187",
"z  c #5DC189",
"x  c #64C48E",
"c  c #66C590",
"v  c #68C591",
"b  c #6AC490",
"n  c #69C692",
"m  c #6BC793",
"M  c #70C896",
"N  c #73CA99",
"B  c #74CA9A",
"V  c #76CB9B",
"C  c #89C3A2",
"Z  c #8BC4A4",
"A  c #8DC5A5",
"S  c #8FC6A7",
"D  c #90C6A8",
"F  c #91D5AF",
"G  c #9ACBB0",
"H  c #9BCCB0",
"J  c #9ECDB3",
"K  c #95D7B2",
"L  c #99D8B5",
"P  c #9BD9B6",
"I  c #9CD9B7",
"U  c #9DDAB7",
"Y  c #9EDAB8",
"T  c #9FDAB9",
"R  c #A1CFB5",
"E  c #A2CFB6",
"W  c #A3D0B6",
"Q  c #A8D3BB",
"!  c #A1DBBA",
"~  c #A5DDBE",
"^  c #A8DDC0",
"/  c #A9DEC0",
"(  c #F7FBF9",
")  c #F8FCF9",
"_  c #F8FCFA",
"`  c #F9FCFB",
"'  c #F9FDFB",
"]  c #FAFDFB",
"[  c #FAFDFC",
"{  c #FBFDFC",
"}  c #FCFEFD",
"|  c #FDFEFE",
" . c #FEFFFE",
".. c white",
/* pixels */
"                                                                                                                                ",
"                                                                                                                                ",
"                                                                                                                                ",
"                                                                                                                                ",
"                      + e s s s s s s s s s s s s s s s s s s s s s s s $                                                       ",
"                    O w 0 7 7 7 7 7 7 7 7 7 7 7 7 7 7 7 7 7 7 7 7 7 7 7 M @                                                     ",
"                    q 7 7 7 7 7 7 7 7 7 7 7 7 7 7 7 7 7 7 7 7 7 7 7 7 7 M M @                                                   ",
"                    0 7 7 7 7 7 7 7 7 7 7 7 7 7 7 7 7 7 7 7 7 7 7 7 7 7 M M M @                                                 ",
"                    7 7 7 7 7 7 7 7 7 7 7 7 7 7 7 7 7 7 7 7 7 7 7 7 7 7 M M M M @                                               ",
"                    7 7 7 7 7 7 7 7 7 7 7 7 7 7 7 7 7 7 7 7 7 7 7 7 7 7 M M M M M @                                             ",
"                    7 7 7 7 7 7 7 7 7 7 7 7 7 7 7 7 7 7 7 7 7 7 7 7 7 7 M M M M M M @                                           ",
"                    7 7 7 7 7 7 7 7 7 7 7 7 7 7 7 7 7 7 7 7 7 7 7 7 7 7 M M M M M M M @                                         ",
"                    7 7 7 7 7 7 7 7 7 7 7 7 7 7 7 7 7 7 7 7 7 7 7 7 7 7 M M M M M M M M @                                       ",
"                    7 7 7 7 7 7 7 7 7 7 7 7 7 7 7 7 7 7 7 7 7 7 7 7 7 7 M M M M M M M M M @                                     ",
"                    7 7 7 7 7 7 7 7 7 7 7 7 7 7 7 7 7 7 7 7 7 7 7 7 7 7 M M M M M M M M M M @                                   ",
"                    7 7 7 7 7 7 7 7 7 7 7 7 7 7 7 7 7 7 7 7 7 7 7 7 7 7 M M M M M M M M M M M @                                 ",
"                    7 7 7 7 7 7 7 7 7 7 7 7 7 7 7 7 7 7 7 7 7 7 7 7 7 7 M M M M M M M M M M M M @                               ",
"                    7 7 7 7 7 7 7 7 7 7 7 7 7 7 7 7 7 7 7 7 7 7 7 7 7 7 M M M M M M M M M M M M M @                             ",
"                    7 7 7 7 7 7 7 7 7 7 7 7 7 7 7 7 7 7 7 7 7 7 7 7 7 7 M M M M M M M M M M M M M M @                           ",
"                    7 7 7 7 7 7 7 7 7 7 7 7 7 7 7 7 7 7 7 7 7 7 7 7 7 7 v M M M M M M M M M M M M M M o                         ",
"                    7 7 7 7 7 7 7 7 7 7 7 7 7 7 7 7 7 7 7 7 7 7 7 7 7 7 r M M M M M M M M M M M M M M M o                       ",
"                    7 7 7 7 7 7 7 7 7 7 7 7 7 7 7 7 7 7 7 7 7 7 7 7 7 7 2 r v M M M M M M M M M M M M M M #                     ",
"                    7 7 7 7 7 7 7 7 7 7 7 7 7 7 7 7 7 7 7 7 7 7 7 7 7 7 6 > % % % % % % % % % % % % % % % 1                     ",
"                    7 7 7 7 7 7 7 7 7 7 7 7 7 7 7 7 7 7 7 7 7 7 7 7 7 7 7 7 7 7 7 7 7 7 7 7 7 7 7 7 7 7 7 7                     ",
"                    7 7 7 7 7 7 7 7 7 7 7 7 7 7 7 7 7 7 7 7 7 7 7 7 7 7 7 7 7 7 7 7 7 7 7 7 7 7 7 7 7 7 7 7                     ",
"                    7 7 7 7 7 7 7 7 7 7 7 7 7 7 7 7 7 7 7 7 7 7 7 7 7 7 7 7 7 7 7 7 7 7 7 7 7 7 7 7 7 7 7 7                     ",
"                    7 7 7 7 7 7 7 7 7 7 7 7 7 7 7 7 7 7 7 7 7 7 7 7 7 7 7 7 7 7 7 7 7 7 7 7 7 7 7 7 7 7 7 h                     ",
"                    7 7 7 7 7 7 7 7 7 7 7 7 7 7 7 7 7 7 7 7 7 7 7 7 7 7 7 7 7 7 7 7 7 7 7 7 7 7 7 7 7 7 g ]                     ",
"                    7 7 7 7 7 7 7 7 7 7 7 7 7 7 7 7 7 7 7 7 7 7 7 7 7 7 7 7 7 7 7 7 7 7 7 7 7 7 7 7 7 g ] ..                    ",
"                    7 7 7 7 7 7 7 7 7 7 7 7 7 7 7 7 7 7 7 7 7 7 7 7 7 7 7 7 7 7 7 7 7 7 7 7 7 7 7 7 g ] ....                    ",
"                    7 7 7 7 7 7 7 7 7 7 7 7 7 7 7 7 7 7 7 7 7 7 7 7 7 7 7 7 7 7 7 7 7 7 7 7 7 7 7 h ] ....R                     ",
"                    7 7 7 7 7 7 7 7 7 7 7 7 7 7 7 7 7 7 7 7 7 7 7 7 7 7 7 7 7 7 7 7 7 7 7 7 7 7 g ] ....W >                     ",
"                    7 7 7 7 7 7 7 7 7 7 7 7 7 7 7 7 7 7 7 7 7 7 7 7 7 7 7 7 7 7 7 7 7 7 7 7 7 g ] ....W > 7                     ",
"                    7 7 7 7 7 7 7 7 7 7 7 7 7 7 7 7 7 7 7 7 7 7 7 7 7 7 7 7 7 7 7 7 7 7 7 7 g ] ....W > 7 7                     ",
"                    7 7 7 7 7 7 7 7 7 7 7 7 7 7 7 7 7 7 7 7 7 7 7 7 7 7 7 7 7 7 7 7 7 7 7 g ] ....W > 7 7 7                     ",
"                    7 7 7 7 7 7 7 7 7 7 7 7 7 7 7 7 7 7 7 7 7 7 7 7 7 7 7 7 7 7 7 7 7 7 g ] ....W > 7 7 7 7                     ",
"                    7 7 7 7 7 7 7 7 7 7 7 7 7 7 7 7 7 7 7 7 7 7 7 7 7 7 7 7 7 7 7 7 7 g ] ....W > 7 7 7 7 7                     ",
"                    7 7 7 7 7 7 7 7 7 7 7 7 7 7 7 7 7 7 7 7 7 7 7 7 7 7 7 7 7 7 7 7 g ] ....W > 7 7 7 7 7 7                     ",
"                    7 7 7 7 7 7 7 7 7 7 7 0 f 7 7 7 7 7 7 7 7 7 7 7 7 7 7 7 7 7 7 h ] ....R > 7 7 7 7 7 7 7                     ",
"                    7 7 7 7 7 7 7 7 7 7 0 ^ ..B 7 7 7 7 7 7 7 7 7 7 7 7 7 7 7 7 g ] ....W > 7 7 7 7 7 7 7 7                     ",
"                    7 7 7 7 7 7 7 7 7 0 ^ ......B 7 7 7 7 7 7 7 7 7 7 7 7 7 7 g ] ....W > 7 7 7 7 7 7 7 7 7                     ",
"                    7 7 7 7 7 7 7 7 0 ! ..........N 7 7 7 7 7 7 7 7 7 7 7 7 g ] ....W > 7 7 7 7 7 7 7 7 7 7                     ",
"                    7 7 7 7 7 7 7 0 ~ ....( Q ......v 7 7 7 7 7 7 7 7 7 7 h ] ....R > 7 7 7 7 7 7 7 7 7 7 7                     ",
"                    7 7 7 7 7 7 0 Y ....] y > C ......v 7 7 7 7 7 7 7 7 g ] ....W > 7 7 7 7 7 7 7 7 7 7 7 7                     ",
"                    7 7 7 7 7 0 Y ....] u 5 7 1 Z ......v 7 7 7 7 7 7 g ] ....W > 7 7 7 7 7 7 7 7 7 7 7 7 7                     ",
"                    7 7 7 7 0 U ....] a 5 7 7 7 1 A ......c 7 7 7 7 g ] ....W > 7 7 7 7 7 7 7 7 7 7 7 7 7 7                     ",
"                    7 7 7 0 U ....] a 5 7 7 7 7 7 1 A ......x 7 7 g ] ....W > 7 7 7 7 7 7 7 7 7 7 7 7 7 7 7                     ",
"                    7 7 0 P ....] a 5 7 7 7 7 7 7 7 1 D ....{ z g ] ....W > 7 7 7 7 7 7 7 7 7 7 7 7 7 7 7 7                     ",
"                    7 0 P ....] a 5 7 7 7 7 7 7 7 7 7 1 G ....] ] ....R > 7 7 7 7 7 7 7 7 7 7 7 7 7 7 7 7 7                     ",
"                    7 F ......j 5 7 7 7 7 7 7 7 7 7 7 7 > H ........W > 7 7 7 7 7 7 7 7 7 7 7 7 7 7 7 7 7 7                     ",
"                    K ....{ d 5 7 7 7 7 7 7 7 7 7 7 7 7 7 > R ....W > 7 7 7 7 7 7 7 7 7 7 7 7 7 7 7 7 7 7 7                     ",
"                    ......l 5 7 7 7 7 7 7 7 7 7 7 7 7 7 7 7 > J W > 7 7 7 7 7 7 7 7 7 7 7 7 7 7 7 7 7 7 7 7                     ",
"                    ....j 5 7 7 7 7 7 7 7 7 7 7 7 7 7 7 7 7 7 > > 7 7 7 7 7 7 7 7 7 7 7 7 7 7 7 7 7 7 7 7 7                     ",
"                    ..l 5 7 7 7 7 7 7 7 7 7 7 7 7 7 7 7 7 7 7 7 7 7 7 7 7 7 7 7 7 7 7 7 7 7 7 7 7 7 7 7 7 7                     ",
"                    l 5 7 7 7 7 7 7 7 7 7 7 7 7 7 7 7 7 7 7 7 7 7 7 7 7 7 7 7 7 7 7 7 7 7 7 7 7 7 7 7 7 7 7                     ",
"                    5 7 7 7 7 7 7 7 7 7 7 7 7 7 7 7 7 7 7 7 7 7 7 7 7 7 7 7 7 7 7 7 7 7 7 7 7 7 7 7 7 7 7 7                     ",
"                    7 7 7 7 7 7 7 7 7 7 7 7 7 7 7 7 7 7 7 7 7 7 7 7 7 7 7 7 7 7 7 7 7 7 7 7 7 7 7 7 7 7 7 7                     ",
"                    5 7 7 7 7 7 7 7 7 7 7 7 7 7 7 7 7 7 7 7 7 7 7 7 7 7 7 7 7 7 7 7 7 7 7 7 7 7 7 7 7 7 7 5                     ",
"                    X 7 7 7 7 7 7 7 7 7 7 7 7 7 7 7 7 7 7 7 7 7 7 7 7 7 7 7 7 7 7 7 7 7 7 7 7 7 7 7 7 7 7 .                     ",
"                      X 5 7 7 7 7 7 7 7 7 7 7 7 7 7 7 7 7 7 7 7 7 7 7 7 7 7 7 7 7 7 7 7 7 7 7 7 7 7 7 5 X                       ",
"                                                                                                                                ",
"                                                                                                                                ",
"                                                                                                                                ",
"                                                                                                                                "
};
