/* XPM */
static char * file_audio_xpm[] = {
"64 64 54 1 ",
"  c None",
". c #9E5E00",
"X c #9F5F00",
"o c #A05F00",
"O c #AB711D",
"+ c #805F32",
"@ c #886535",
"# c #996E32",
"$ c #996F35",
"% c #AD7420",
"& c #CB7900",
"* c #CD7A00",
"= c #CE7B00",
"- c #D88000",
"; c #DF8500",
": c #E38700",
"> c #E48800",
", c #E18805",
"< c #ED8D00",
"1 c #EE8E00",
"2 c #EF8E00",
"3 c #FB9500",
"4 c #FE9700",
"5 c #FE9803",
"6 c #EF9510",
"7 c #FE9F13",
"8 c #EBA33D",
"9 c #ECA33D",
"0 c #F3A430",
"q c #FEAC33",
"w c #DA9F49",
"e c #DAA04A",
"r c #DAA14C",
"t c #E4A549",
"y c #E4A64A",
"u c #E4A64D",
"i c #FEB74F",
"p c #FCB85C",
"a c #FFBD63",
"s c #E6BE83",
"d c #E6BF85",
"f c #FFCE88",
"g c #F2DCBB",
"h c #F1DCBC",
"j c #F2DCBD",
"k c #F2DDBE",
"l c #F2DEBF",
"z c #FBE3C0",
"x c #FFE5C0",
"c c #FCF8F1",
"v c #FCF8F2",
"b c #FDF9F3",
"n c #FFFBF4",
"m c white",
/* pixels */
"                                                                ",
"                                                                ",
"                                                                ",
"                                                                ",
"           %0qqqqqqqqqqqqqqqqqqqqqqq$                           ",
"          O7544444444444444444444444a@                          ",
"          64444444444444444444444444aa@                         ",
"          54444444444444444444444444aaa@                        ",
"          44444444444444444444444444aaaa@                       ",
"          44444444444444444444444444aaaaa@                      ",
"          44444444444444444444444444aaaaaa@                     ",
"          44444444444444444444444444aaaaaaa@                    ",
"          44444444444444444444444444aaaaaaaa@                   ",
"          44444444444444444444444444aaaaaaaaa@                  ",
"          44444444444444444444444444aaaaaaaaaa@                 ",
"          44444444444444444444444444aaaaaaaaaaa@                ",
"          44444444444444444444444444aaaaaaaaaaaa@               ",
"          44444444444444444444444444aaaaaaaaaaaaa@              ",
"          44444444444444444444444444aaaaaaaaaaaaaa@             ",
"          44444444444444444444444444paaaaaaaaaaaaaa+            ",
"          444444444444444444444444449aaaaaaaaaaaaaaa+           ",
"          44444444444444444444444444,8paaaaaaaaaaaaaa#          ",
"          444444444444444444444444443;*&&&&&&&&&&&&&&>          ",
"          44444444444444444444444444444444444444444444          ",
"          44444444444444444444444444444444444444444444          ",
"          44444444444444444444444444444444444444444444          ",
"          44444444444444444444444444444444444444444444          ",
"          44444444444444444444444444444444444444444444          ",
"          44444444444444444444444444444444444444444444          ",
"          4444444444444444mmmmmmmmmmmmmmmmmm4444444444          ",
"          4444444444444444mmmmmmmmmmmmmmmmmm4444444444          ",
"          4444444444444444mmmmmmmmmmmmmmmmmm4444444444          ",
"          4444444444444444mmmmmmmmmmmmmmmmmm4444444444          ",
"          4444444444444444mmmmmmmmmmmmmmmmmm4444444444          ",
"          4444444444444444mmmmmmmmmmmmmmmmmm4444444444          ",
"          4444444444444444mmmm&&&&&&&&&&mmmm4444444444          ",
"          4444444444444444mmmm4444444444mmmm4444444444          ",
"          4444444444444444mmmm4444444444mmmm4444444444          ",
"          4444444444444444mmmm4444444444mmmm4444444444          ",
"          4444444444444444mmmm4444444444mmmm4444444444          ",
"          4444444444444444mmmm4444444444mmmm4444444444          ",
"          4444444444444444mmmm4444444444mmmm4444444444          ",
"          4444444444444444mmmm4444444444mmmm4444444444          ",
"          444444444444ixnmmmmm444444ixnmmmmm4444444444          ",
"          44444444444fmmmmmmmm44444fmmmmmmmm4444444444          ",
"          4444444444immmmmmmmm4444immmmmmmmm4444444444          ",
"          4444444444zmmmmmmmmm4444zmmmmmmmmm4444444444          ",
"          4444444444bmmmmmmmmm4444bmmmmmmmmm4444444444          ",
"          4444444444bmmmmmmmmb4444bmmmmmmmmb4444444444          ",
"          4444444444lmmmmmmmmg4444lmmmmmmmmg4444444444          ",
"          4444444444ummmmmmmmt4444ummmmmmmmt4444444444          ",
"          44444444441dmmmmmms144441dmmmmmms14444444444          ",
"          44444444444:rlbble>444444:rlbblw>44444444444          ",
"          4444444444441-**-1444444441-**-1444444444444          ",
"          44444444444444444444444444444444444444444444          ",
"          44444444444444444444444444444444444444444444          ",
"          44444444444444444444444444444444444444444444          ",
"          14444444444444444444444444444444444444444441          ",
"          X444444444444444444444444444444444444444444X          ",
"           o1444444444444444444444444444444444444441o           ",
"                                                                ",
"                                                                ",
"                                                                ",
"                                                                "
};
