/* XPM */
static char * folder_db_xpm[] = {
"64 64 149 2 ",
"   c None",
".  c #363A4F",
"X  c #363B51",
"o  c #373C50",
"O  c #373D51",
"+  c #373C52",
"@  c #383E52",
"#  c #393F56",
"$  c #394055",
"%  c #394056",
"&  c #394157",
"*  c #3A4359",
"=  c #3B4459",
"-  c #3B455A",
";  c #3C455B",
":  c #3C465C",
">  c #3E4960",
",  c #404D63",
"<  c #404E64",
"1  c #414E65",
"2  c #414F66",
"3  c #415167",
"4  c #425067",
"5  c #43536A",
"6  c #44546B",
"7  c #44566D",
"8  c #45576E",
"9  c #45576F",
"0  c #45586E",
"q  c #455870",
"w  c #475B73",
"e  c #475C73",
"r  c #475C74",
"t  c #485C73",
"y  c #4A6178",
"u  c #4A6179",
"i  c #4B6179",
"p  c #4C657E",
"a  c #4D667F",
"s  c #4D677F",
"d  c #42687B",
"f  c #456B7F",
"g  c #4D6880",
"h  c #4E6881",
"j  c #4F6982",
"k  c #516F89",
"l  c #526F89",
"z  c #477084",
"x  c #487185",
"c  c #487388",
"v  c #497488",
"b  c #487489",
"n  c #497489",
"m  c #4C778B",
"M  c #4C788B",
"N  c #4D798C",
"B  c #4D798D",
"V  c #527089",
"C  c #52718A",
"Z  c #55768F",
"A  c #597E98",
"S  c #5A809B",
"D  c #5A819B",
"F  c #5B819C",
"G  c #5D859F",
"H  c #5D85A0",
"J  c #5D86A1",
"K  c #5788A1",
"L  c #548DA6",
"P  c #5F88A3",
"I  c #5E88A4",
"U  c #5F89A5",
"Y  c #5F8AA4",
"T  c #558FA9",
"R  c #5E94AF",
"E  c #5C9AB6",
"W  c #5C9BB7",
"Q  c #5E9DB9",
"!  c #5E9DBA",
"~  c #608AA5",
"^  c #6290AC",
"/  c #6393AF",
"(  c #6494B0",
")  c #6596B2",
"_  c #6696B3",
"`  c #6697B4",
"'  c #6799B5",
"]  c #689AB6",
"[  c #6A9FBB",
"{  c #6A9FBC",
"}  c #6A9FBD",
"|  c #65A5C4",
" . c #65A6C5",
".. c #6CA2C0",
"X. c #6CA3C0",
"o. c #6FA9C6",
"O. c #6FA9C7",
"+. c #6CA9C8",
"@. c #6DAAC9",
"#. c #6FAAC8",
"$. c #68AECE",
"%. c #6DAFCC",
"&. c #70ABC9",
"*. c #71AECC",
"=. c #72AFCD",
"-. c #69B0CF",
";. c #6EB0CD",
":. c #6EB0CE",
">. c #72B0CE",
",. c #73B0CE",
"<. c #73B0CF",
"1. c #69B0D0",
"2. c #6AB0D0",
"3. c #6BB1D1",
"4. c #6CB1D1",
"5. c #6DB1D1",
"6. c #6DB1D2",
"7. c #6CB2D2",
"8. c #6EB2D2",
"9. c #73B1D0",
"0. c #73B2D1",
"q. c #70B2D2",
"w. c #70B3D2",
"e. c #72B3D3",
"r. c #74B4D2",
"t. c #75B5D3",
"y. c #73B4D4",
"u. c #75B4D4",
"i. c #76B5D4",
"p. c #75B7D5",
"a. c #75B8D6",
"s. c #77B9D8",
"d. c #77BAD8",
"f. c #78B9D9",
"g. c #78BADA",
"h. c #79BBDA",
"j. c #79BCDB",
"k. c #7ABDDC",
"l. c #7ABEDD",
"z. c #7BC0E0",
"x. c #7AC1E0",
"c. c #7CC2E1",
"v. c #7DC3E2",
"b. c #7DC4E4",
"n. c #A4C6E7",
"m. c #A5C6E7",
"M. c #A6C6E7",
"N. c #C4D1F3",
"B. c #CAD3F5",
/* pixels */
"                                                                                                                                ",
"                                                                                                                                ",
"                                                                                                                                ",
"                                                                                                                                ",
"                                                                                                                                ",
"                                                                                                                                ",
"                                                                                                                                ",
"          n +.y.y.y.y.y.y.y.y.y.y.y.y.y.y.y.+.K                                                                                 ",
"        n 7.-.1.1.1.1.1.1.1.1.1.1.1.1.1.1.1.1.7.w.d                                                                             ",
"         .1.1.1.1.1.1.1.1.1.1.1.1.1.1.1.1.1.1.1.1.7.x                                                                           ",
"        -.1.1.1.1.1.1.1.1.1.1.1.1.1.1.1.1.1.1.1.1.1.7.f                                                                         ",
"        1.1.1.1.1.1.1.1.1.1.1.1.1.1.1.1.1.1.1.1.1.1.1.7.z                                                                       ",
"        1.1.1.1.1.1.1.1.1.1.1.1.1.1.1.1.1.1.1.1.1.1.1.1.7.R                                                                     ",
"        1.1.1.1.1.1.1.1.1.1.1.1.1.1.1.1.1.1.1.1.1.1.1.1.1.1.w.w.y.y.y.y.y.y.y.y.y.y.y.y.y.y.y.y.y.y.y.y.y.y.y.y.y.+.n           ",
"        1.1.1.1.1.1.1.1.1.1.1.1.1.1.1.1.1.1.1.1.1.1.1.1.1.1.1.1.1.1.1.1.1.1.1.1.1.1.1.1.1.1.1.1.1.1.1.1.1.1.1.1.1.-.7.c         ",
"        1.1.1.1.1.1.1.1.1.1.1.1.1.1.1.1.1.1.1.1.1.1.1.1.1.1.1.1.1.1.1.1.1.1.1.1.1.1.1.1.1.1.1.1.1.1.1.1.1.1.1.1.1.1.1. .        ",
"        1.1.1.1.7.m.N.B.B.B.B.B.B.B.B.B.B.B.B.B.B.B.B.B.B.B.B.B.B.B.B.B.B.B.B.B.B.B.B.B.B.B.B.B.B.B.B.B.B.N.m.7.1.1.1.1.        ",
"        1.1.1.1.m.B.B.B.B.B.B.B.B.B.B.B.B.B.B.B.B.B.B.B.B.B.B.B.B.B.B.B.B.B.B.B.B.B.B.B.B.B.B.B.B.B.B.B.B.B.B.m.1.1.1.1.        ",
"        1.1.1.1.N.B.B.B.B.B.B.B.B.B.B.B.B.B.B.B.B.B.B.B.B.B.B.B.B.B.B.B.B.B.B.B.B.B.B.B.B.B.B.B.B.B.B.B.B.B.B.N.1.1.1.1.        ",
"        1.1.1.1.B.B.B.B.B.B.B.B.B.B.B.B.B.B.B.B.B.B.B.B.B.B.B.B.B.B.B.B.B.B.B.B.B.B.B.B.B.B.B.B.B.B.B.B.B.B.B.B.1.1.1.1.        ",
"        $.E T L B.B.B.B.B.B.B.B.B.B.B.B.B.B.B.B.B.B.B.B.B.B.B.B.B.B.B.B.B.B.B.B.B.B.B.B.B.B.B.B.B.B.B.B.B.B.B.B.L T E $.        ",
"        Q %.x.b.b.b.b.b.b.b.b.b.b.b.b.b.b.b.b.b.b.b.b.b.b.b.b.b.b.b.b.b.b.b.b.b.b.b.b.b.b.b.b.b.b.b.b.b.b.b.b.b.b.x.%.Q         ",
"        :.b.b.b.b.b.b.b.b.b.b.b.b.b.b.b.b.b.b.b.b.b.b.b.b.b.b.b.b.b.b.b.b.b.b.b.b.b.b.b.b.b.b.b.b.b.b.b.b.b.b.b.b.b.b.:.        ",
"        x.b.b.b.b.b.b.b.b.b.b.b.b.b.b.b.b.b.b.b.b.b.b.b.b.b.b.b.b.b.b.b.b.b.b.b.b.b.b.b.b.b.b.b.b.b.b.b.b.b.b.b.b.b.b.x.        ",
"        b.b.b.b.b.b.b.b.b.b.b.b.b.b.b.b.b.b.b.b.b.b.b.b.b.b.b.b.b.b.b.b.b.b.b.b.b.b.b.b.b.b.b.b.b.b.b.b.b.b.b.b.b.b.b.b.        ",
"        b.b.b.b.b.b.b.b.b.b.b.b.b.b.b.b.b.b.b.b.b.b.b.b.b.b.b.b.b.b.b.b.b.b.b.b.b.b.b.b.b.b.b.b.b.b.b.b.b.b.b.b.b.b.b.b.        ",
"        b.b.b.b.b.b.b.b.b.b.b.b.b.b.b.b.b.b.b.b.b.b.b.b.b.b.b.b.b.b.b.b.b.b.b.b.b.b.b.b.b.b.b.b.b.b.b.b.b.b.b.b.b.b.b.b.        ",
"        b.b.b.b.b.b.b.b.b.b.b.b.b.b.b.b.b.b.b.b.b.b.b.r.U y 2 # b.b.b.b.b.b.b.b.b.b.b.b.b.b.b.b.b.b.b.b.b.b.b.b.b.b.b.b.        ",
"        b.b.b.b.b.b.b.b.b.b.b.b.b.b.b.b.b.b.b.b.b.i.V X . . . . b.b.b.b.b.b.b.b.b.b.b.b.b.b.b.b.b.b.b.b.b.b.b.b.b.b.b.b.        ",
"        b.b.b.b.b.b.b.b.b.b.b.b.b.b.b.b.b.b.b.b.' % . @ j ( =.l.b.b.b.b.b.b.b.b.b.b.b.b.b.b.b.b.b.b.b.b.b.b.b.b.b.b.b.b.        ",
"        b.b.b.b.b.b.b.b.b.b.b.b.b.b.b.b.b.b.b.P o . s w.[ V 2 # % 2 V b.b.b.b.b.b.b.b.b.b.b.b.b.b.b.b.b.b.b.b.b.b.b.b.b.        ",
"        b.b.b.b.b.b.b.b.b.b.b.b.b.b.b.b.b.b.' o X J >.e . . . . . . . b.b.b.b.b.b.b.b.b.b.b.b.b.b.b.b.b.b.b.b.b.b.b.b.b.        ",
"        b.b.b.b.b.b.b.b.b.b.b.b.b.b.b.b.b.i.% . J X.* . : F +.l.j.o.A b.b.b.b.b.b.b.b.b.b.b.b.b.b.b.b.b.b.b.b.b.b.b.b.b.        ",
"        b.b.b.b.b.b.b.b.b.b.b.b.b.b.b.b.b.l . s >.* . j s.U 9 # = q / c.b.b.b.b.b.b.b.b.b.b.b.b.b.b.b.b.b.b.b.b.b.b.b.b.        ",
"        b.b.b.b.b.b.b.b.b.b.b.b.b.b.b.b.r.X @ w.e . j i.5 . . . . . . 9 h.b.b.b.b.b.b.b.b.b.b.b.b.b.b.b.b.b.b.b.b.b.b.b.        ",
"        b.b.b.b.b.b.b.b.b.b.b.b.b.b.b.b.U . j [ . : s.5 . > ` l.h.( 2 . 9 c.b.b.b.b.b.b.b.b.b.b.b.b.b.b.b.b.b.b.b.b.b.b.        ",
"        b.b.b.b.b.b.b.b.b.b.b.b.b.b.b.b.y . ( V . F U . > h.b.b.b.b.h., . / b.b.b.b.b.b.b.b.b.b.b.b.b.b.b.b.b.b.b.b.b.b.        ",
"        b.b.b.b.b.b.b.b.b.b.b.b.b.b.b.b.2 . >.2 . &.0 . ` b.b.b.b.b.b.b.b.b.b.b.b.b.b.b.b.b.b.b.b.b.b.b.b.b.b.b.b.b.b.b.        ",
"        b.b.b.b.b.b.b.b.b.b.b.b.b.b.b.b.% . l.% . l.% . l.b.b.b.b.b.b.b.b.b.b.b.b.b.b.b.b.b.b.b.b.b.b.b.b.b.b.b.b.b.b.b.        ",
"        b.b.b.b.b.b.b.b.b.b.b.b.b.b.b.b.% . l.% . l.% . l.b.b.b.b.b.b.b.b.b.b.b.b.b.b.b.b.b.b.b.b.b.b.b.b.b.b.b.b.b.b.b.        ",
"        b.b.b.b.b.b.b.b.b.b.b.b.b.b.b.b.2 . >.2 . +.0 . ' b.b.b.b.b.b.b.b.b.b.b.b.b.b.b.b.b.b.b.b.b.b.b.b.b.b.b.b.b.b.b.        ",
"        b.b.b.b.b.b.b.b.b.b.b.b.b.b.b.b.y . ( V . S U . 2 h.b.b.b.b.b.b.b.b.b.b.b.b.b.b.b.b.b.b.b.b.b.b.b.b.b.b.b.b.b.b.        ",
"        b.b.b.b.b.b.b.b.b.b.b.b.b.b.b.b.U . j } . : s.6 . > ( j.b.b.b.b.b.b.b.b.b.b.b.b.b.b.b.b.b.b.b.b.b.b.b.b.b.b.b.b.        ",
"        b.b.b.b.b.b.b.b.b.b.b.b.b.b.b.b.r.X @ w.t . j i.6 . . . . . . . . . . . . . . . . . . . . . . . . . . . . b.b.b.        ",
"        b.b.b.b.b.b.b.b.b.b.b.b.b.b.b.b.b.l . s >.* . j s.U q % . . . . . . . . . . . . . . . . . . . . . . . . . b.b.b.        ",
"        b.b.b.b.b.b.b.b.b.b.b.b.b.b.b.b.b.i.% . J X.= . ; S o.l.b.b.b.b.b.b.b.b.b.b.b.b.b.b.b.b.b.b.b.b.b.b.b.b.b.b.b.b.        ",
"        b.b.b.b.b.b.b.b.b.b.b.b.b.b.b.b.b.b.] o o G >.r . . . . . . . . . . . . . . . . . . . . . . . . . . . . . b.b.b.        ",
"        b.b.b.b.b.b.b.b.b.b.b.b.b.b.b.b.b.b.b.U o . s >.} V 4 % . . . . . . . . . . . . . . . . . . . . . . . . . b.b.b.        ",
"        b.b.b.b.b.b.b.b.b.b.b.b.b.b.b.b.b.b.b.b.] % . o j / =.l.b.b.b.b.b.b.b.b.b.b.b.b.b.b.b.b.b.b.b.b.b.b.b.b.b.b.b.b.        ",
"        b.b.b.b.b.b.b.b.b.b.b.b.b.b.b.b.b.b.b.b.b.s.Z o . . . . . . . . . . . . . . . . . . . . . . . . . . . . . b.b.b.        ",
"        b.b.b.b.b.b.b.b.b.b.b.b.b.b.b.b.b.b.b.b.b.b.b.i.~ y 4 % . . . . . . . . . . . . . . . . . . . . . . . . . b.b.b.        ",
"        b.b.b.b.b.b.b.b.b.b.b.b.b.b.b.b.b.b.b.b.b.b.b.b.b.b.b.b.b.b.b.b.b.b.b.b.b.b.b.b.b.b.b.b.b.b.b.b.b.b.b.b.b.b.b.b.        ",
"        b.b.b.b.b.b.b.b.b.b.b.b.b.b.b.b.b.b.b.b.b.b.b.b.b.b.b.b.b.b.b.b.b.b.b.b.b.b.b.b.b.b.b.b.b.b.b.b.b.b.b.b.b.b.b.b.        ",
"        b.b.b.b.b.b.b.b.b.b.b.b.b.b.b.b.b.b.b.b.b.b.b.b.b.b.b.b.b.b.b.b.b.b.b.b.b.b.b.b.b.b.b.b.b.b.b.b.b.b.b.b.b.b.b.b.        ",
"        i.b.b.b.b.b.b.b.b.b.b.b.b.b.b.b.b.b.b.b.b.b.b.b.b.b.b.b.b.b.b.b.b.b.b.b.b.b.b.b.b.b.b.b.b.b.b.b.b.b.b.b.b.b.b.i.        ",
"        B b.b.b.b.b.b.b.b.b.b.b.b.b.b.b.b.b.b.b.b.b.b.b.b.b.b.b.b.b.b.b.b.b.b.b.b.b.b.b.b.b.b.b.b.b.b.b.b.b.b.b.b.b.b.M         ",
"          B a.b.b.b.b.b.b.b.b.b.b.b.b.b.b.b.b.b.b.b.b.b.b.b.b.b.b.b.b.b.b.b.b.b.b.b.b.b.b.b.b.b.b.b.b.b.b.b.b.b.b.a.m           ",
"                                                                                                                                ",
"                                                                                                                                ",
"                                                                                                                                ",
"                                                                                                                                ",
"                                                                                                                                ",
"                                                                                                                                ",
"                                                                                                                                "
};
