/* XPM */
static char * folder_trash_xpm[] = {
"64 64 24 1 ",
"  c None",
". c #4B4B4B",
"X c #4C4C4C",
"o c gray33",
"O c #555555",
"+ c #646464",
"@ c gray40",
"# c #676767",
"$ c #686868",
"% c #727272",
"& c #767676",
"* c #777777",
"= c gray50",
"- c #808080",
"; c #8D8D8D",
": c #8E8E8E",
"> c gray56",
", c #979797",
"< c #989898",
"1 c #9F9F9F",
"2 c gray63",
"3 c gray64",
"4 c gray66",
"5 c #B2B2B2",
/* pixels */
"                                                                ",
"                                                                ",
"                        111111111111111111                      ",
"                        111111111111111111                      ",
"       $25555555555555555555555555555555555555555555555552@     ",
"      @4211111111111111111111111111111111111111111111111124@    ",
"      ,1111111111111111111111111111111111111111111111111111<    ",
"      211111111111111111111111111111111111111111111111111112    ",
"      111111111111111111111111111111111111111111111111111111    ",
"      111111111111111111111111111111111111111111111111111111    ",
"      111111111111111111111111111111111111111111111111111111    ",
"      111111111111111111111111111111111111111111111111111111    ",
"      111111111111111111111111111111111111111111111111111111    ",
"      >1111111111111111111111111111111111111111111111111111>    ",
"      O1111111111111111111111111111111111111111111111111111O    ",
"       O>111111111111111111111111111111111111111111111111>O     ",
"          %%%%%%%%%%%%%%%%%%%%%%%%%%%%%%%%%%%%%%%%%%%%%%        ",
"          >>>>>>>>>>>>>>>>>>>>>>>>>>>>>>>>>>>>>>>>>>>>>>        ",
"          >>>>>>>>>>>>>>>>>>>>>>>>>>>>>>>>>>>>>>>>>>>>>>        ",
"          >>>>>>>>>>>>>>>>>>>>>>>>>>>>>>>>>>>>>>>>>>>>>>        ",
"          >>>>>>>>>>>>>>>>>>>>>>>>>>>>>>>>>>>>>>>>>>>>>>        ",
"          >>>>>>>>>>>>>>>>>>>>>>>>>>>>>>>>>>>>>>>>>>>>>>        ",
"          >>>>>>>>>&@@&>>>>>>>>&@@&>>>>>>>>&@@&>>>>>>>>>        ",
"          >>>>>>>>&@@@@&>>>>>>&@+++&>>>>>>&@+@@&>>>>>>>>        ",
"          >>>>>>>>@@+++@>>>>>>@++++@>>>>>>@@+++@>>>>>>>>        ",
"          >>>>>>>>@@++++>>>>>>++++++>>>>>>@@++++>>>>>>>>        ",
"          >>>>>>>>@@++++>>>>>>++++@@>>>>>>@@++@@>>>>>>>>        ",
"          >>>>>>>>@@++@@>>>>>>@@++@@>>>>>>++++@@>>>>>>>>        ",
"          >>>>>>>>++@@@@>>>>>>@@@@@@>>>>>>++@@@@>>>>>>>>        ",
"          >>>>>>>>+@@@@@>>>>>>@@@@@@>>>>>>+@@@@@>>>>>>>>        ",
"          >>>>>>>>++@@++>>>>>>+++@++>>>>>>@@+@++>>>>>>>>        ",
"          >>>>>>>>++@+++>>>>>>++++++>>>>>>+@++++>>>>>>>>        ",
"          >>>>>>>>+++@@+>>>>>>@+++@@>>>>>>@@@@@@>>>>>>>>        ",
"          >>>>>>>>++@@@@>>>>>>++++@@>>>>>>++@@@@>>>>>>>>        ",
"          >>>>>>>>+@+@@@>>>>>>@@@@@@>>>>>>++++@@>>>>>>>>        ",
"          >>>>>>>>+@++@@>>>>>>@@@@@@>>>>>>+++++@>>>>>>>>        ",
"          >>>>>>>>@@@@@@>>>>>>+@++@@>>>>>>+@++++>>>>>>>>        ",
"          >>>>>>>>@@@@@@>>>>>>++++++>>>>>>+@++++>>>>>>>>        ",
"          >>>>>>>>++@+@@>>>>>>++++++>>>>>>@@@@+@>>>>>>>>        ",
"          >>>>>>>>++++@@>>>>>>++++++>>>>>>@@@@@@>>>>>>>>        ",
"          >>>>>>>>@@@@++>>>>>>@@@@++>>>>>>+++@@@>>>>>>>>        ",
"          >>>>>>>>@@+@++>>>>>>@@@@@+>>>>>>++@@@@>>>>>>>>        ",
"          >>>>>>>>++++++>>>>>>++@@++>>>>>>+++@@@>>>>>>>>        ",
"          >>>>>>>>++++++>>>>>>++@@++>>>>>>+++@@@>>>>>>>>        ",
"          >>>>>>>>++@@++>>>>>>@+@@++>>>>>>@@++++>>>>>>>>        ",
"          >>>>>>>>++@@@+>>>>>>@+@@++>>>>>>@@++++>>>>>>>>        ",
"          >>>>>>>>@@@@++>>>>>>@@++++>>>>>>@@@@++>>>>>>>>        ",
"          >>>>>>>>@@@@++>>>>>>@@++++>>>>>>@@@@++>>>>>>>>        ",
"          >>>>>>>>@@+@+@>>>>>>++++@@>>>>>>@@@@++>>>>>>>>        ",
"          >>>>>>>>@@@+@@>>>>>>@+@@@@>>>>>>@@++@@>>>>>>>>        ",
"          >>>>>>>>&@++@&>>>>>>&+@@@&>>>>>>&++++&>>>>>>>>        ",
"          >>>>>>>>>&@@&>>>>>>>>&@@&>>>>>>>>&@@&>>>>>>>>>        ",
"          >>>>>>>>>>>>>>>>>>>>>>>>>>>>>>>>>>>>>>>>>>>>>>        ",
"          >>>>>>>>>>>>>>>>>>>>>>>>>>>>>>>>>>>>>>>>>>>>>>        ",
"          >>>>>>>>>>>>>>>>>>>>>>>>>>>>>>>>>>>>>>>>>>>>>>        ",
"          >>>>>>>>>>>>>>>>>>>>>>>>>>>>>>>>>>>>>>>>>>>>>>        ",
"          >>>>>>>>>>>>>>>>>>>>>>>>>>>>>>>>>>>>>>>>>>>>>>        ",
"          ->>>>>>>>>>>>>>>>>>>>>>>>>>>>>>>>>>>>>>>>>>>>=        ",
"          X>>>>>>>>>>>>>>>>>>>>>>>>>>>>>>>>>>>>>>>>>>>>.        ",
"           X->>>>>>>>>>>>>>>>>>>>>>>>>>>>>>>>>>>>>>>>-X         ",
"                                                                ",
"                                                                ",
"                                                                ",
"                                                                "
};
