/* XPM */
static char * folder_meme_xpm[] = {
"64 64 167 2 ",
"   c None",
".  c #363A4F",
"X  c #363B50",
"o  c #363B51",
"O  c #373C50",
"+  c #383D53",
"@  c #383E52",
"#  c #383E54",
"$  c #383F54",
"%  c #393F56",
"&  c #394055",
"*  c #394056",
"=  c #3A4357",
"-  c #3A4258",
";  c #3A4359",
":  c #3B455A",
">  c #3C455B",
",  c #3C475D",
"<  c #3D475D",
"1  c #3D485E",
"2  c #3E4960",
"3  c #3E4B61",
"4  c #3F4C62",
"5  c #404C62",
"6  c #404E64",
"7  c #414E65",
"8  c #414F66",
"9  c #415167",
"0  c #425168",
"q  c #43536A",
"w  c #44556C",
"e  c #44556D",
"r  c #45576E",
"t  c #455870",
"y  c #475A72",
"u  c #475C74",
"i  c #495E76",
"p  c #495F77",
"a  c #495F78",
"s  c #4A627A",
"d  c #4B637B",
"f  c #4B647D",
"g  c #4C657E",
"h  c #4D667F",
"j  c #42687B",
"k  c #456B7F",
"l  c #4D6880",
"z  c #4E6881",
"x  c #4F6B83",
"c  c #506B84",
"v  c #516F88",
"b  c #516F89",
"n  c #526F89",
"m  c #477084",
"M  c #487185",
"N  c #487388",
"B  c #497488",
"V  c #487489",
"C  c #497489",
"Z  c #4C778B",
"A  c #4C788B",
"S  c #4D798C",
"D  c #4D798D",
"F  c #52718A",
"G  c #54738D",
"H  c #55768F",
"J  c #587C96",
"K  c #587D97",
"L  c #597E98",
"P  c #597F9A",
"I  c #5A809A",
"U  c #5A809B",
"Y  c #5B819C",
"T  c #5D859F",
"R  c #5E87A3",
"E  c #5788A1",
"W  c #548DA6",
"Q  c #5F88A3",
"!  c #5F8BA6",
"~  c #558FA9",
"^  c #5E94AF",
"/  c #5C9AB6",
"(  c #5C9BB7",
")  c #5E9DB9",
"_  c #5E9DBA",
"`  c #608BA7",
"'  c #618FAA",
"]  c #628FAA",
"[  c #628FAB",
"{  c #6392AE",
"}  c #6493B0",
"|  c #6698B4",
" . c #6799B5",
".. c #689BB8",
"X. c #699CB9",
"o. c #689DBA",
"O. c #6A9FBC",
"+. c #6A9FBD",
"@. c #6BA1BE",
"#. c #65A5C4",
"$. c #65A6C5",
"%. c #6BA2C0",
"&. c #6CA3C0",
"*. c #6DA4C2",
"=. c #6EA7C4",
"-. c #6EA6C5",
";. c #6EA7C5",
":. c #6FA8C6",
">. c #6FA9C6",
",. c #6CA9C8",
"<. c #6DAAC9",
"1. c #68AECE",
"2. c #6DAFCC",
"3. c #70ABC9",
"4. c #70ACCB",
"5. c #71ADCB",
"6. c #72ADCC",
"7. c #72AFCD",
"8. c #69B0CF",
"9. c #6EB0CD",
"0. c #6EB0CE",
"q. c #72B0CE",
"w. c #73B0CE",
"e. c #73B0CF",
"r. c #69B0D0",
"t. c #6AB0D0",
"y. c #6BB1D1",
"u. c #6CB1D1",
"i. c #6DB1D1",
"p. c #6DB1D2",
"a. c #6CB2D2",
"s. c #6EB2D2",
"d. c #70B2D2",
"f. c #70B3D2",
"g. c #72B3D3",
"h. c #74B2D1",
"j. c #75B3D2",
"k. c #75B5D3",
"l. c #73B4D4",
"z. c #75B4D4",
"x. c #76B5D4",
"c. c #75B7D5",
"v. c #77B7D6",
"b. c #75B8D6",
"n. c #77B8D7",
"m. c #77B9D8",
"M. c #78B9D9",
"N. c #78BCDB",
"B. c #79BCDB",
"V. c #7ABEDE",
"C. c #7BBFDF",
"Z. c #7BC0DF",
"A. c #7BC0E0",
"S. c #7AC1E0",
"D. c #7BC1E0",
"F. c #7BC0E1",
"G. c #7CC2E1",
"H. c #7CC1E2",
"J. c #7DC3E2",
"K. c #7CC2E3",
"L. c #7DC3E3",
"P. c #7DC4E4",
"I. c #A4C6E7",
"U. c #A5C6E7",
"Y. c #A6C6E7",
"T. c #C4D1F3",
"R. c #CAD3F5",
/* pixels */
"                                                                                                                                ",
"                                                                                                                                ",
"                                                                                                                                ",
"                                                                                                                                ",
"                                                                                                                                ",
"                                                                                                                                ",
"                                                                                                                                ",
"          C ,.l.l.l.l.l.l.l.l.l.l.l.l.l.l.l.,.E                                                                                 ",
"        C a.8.r.r.r.r.r.r.r.r.r.r.r.r.r.r.r.r.a.f.j                                                                             ",
"        $.r.r.r.r.r.r.r.r.r.r.r.r.r.r.r.r.r.r.r.r.a.M                                                                           ",
"        8.r.r.r.r.r.r.r.r.r.r.r.r.r.r.r.r.r.r.r.r.r.a.k                                                                         ",
"        r.r.r.r.r.r.r.r.r.r.r.r.r.r.r.r.r.r.r.r.r.r.r.a.m                                                                       ",
"        r.r.r.r.r.r.r.r.r.r.r.r.r.r.r.r.r.r.r.r.r.r.r.r.a.^                                                                     ",
"        r.r.r.r.r.r.r.r.r.r.r.r.r.r.r.r.r.r.r.r.r.r.r.r.r.r.f.f.l.l.l.l.l.l.l.l.l.l.l.l.l.l.l.l.l.l.l.l.l.l.l.l.l.,.C           ",
"        r.r.r.r.r.r.r.r.r.r.r.r.r.r.r.r.r.r.r.r.r.r.r.r.r.r.r.r.r.r.r.r.r.r.r.r.r.r.r.r.r.r.r.r.r.r.r.r.r.r.r.r.r.8.a.N         ",
"        r.r.r.r.r.r.r.r.r.r.r.r.r.r.r.r.r.r.r.r.r.r.r.r.r.r.r.r.r.r.r.r.r.r.r.r.r.r.r.r.r.r.r.r.r.r.r.r.r.r.r.r.r.r.r.$.        ",
"        r.r.r.r.a.U.T.R.R.R.R.R.R.R.R.R.R.R.R.R.R.R.R.R.R.R.R.R.R.R.R.R.R.R.R.R.R.R.R.R.R.R.R.R.R.R.R.R.R.T.U.a.r.r.r.r.        ",
"        r.r.r.r.U.R.R.R.R.R.R.R.R.R.R.R.R.R.R.R.R.R.R.R.R.R.R.R.R.R.R.R.R.R.R.R.R.R.R.R.R.R.R.R.R.R.R.R.R.R.R.U.r.r.r.r.        ",
"        r.r.r.r.T.R.R.R.R.R.R.R.R.R.R.R.R.R.R.R.R.R.R.R.R.R.R.R.R.R.R.R.R.R.R.R.R.R.R.R.R.R.R.R.R.R.R.R.R.R.R.T.r.r.r.r.        ",
"        r.r.r.r.R.R.R.R.R.R.R.R.R.R.R.R.R.R.R.R.R.R.R.R.R.R.R.R.R.R.R.R.R.R.R.R.R.R.R.R.R.R.R.R.R.R.R.R.R.R.R.R.r.r.r.r.        ",
"        1./ ~ W R.R.R.R.R.R.R.R.R.R.R.R.R.R.R.R.R.R.R.R.R.R.R.R.R.R.R.R.R.R.R.R.R.R.R.R.R.R.R.R.R.R.R.R.R.R.R.R.W ~ / 1.        ",
"        ) 2.F.P.P.P.P.P.P.P.P.P.P.P.P.P.P.P.P.P.P.P.P.P.P.P.P.P.P.P.P.P.P.P.P.P.P.P.P.P.P.P.P.P.P.P.P.P.P.P.P.P.P.F.2.)         ",
"        0.P.P.P.P.P.P.P.P.P.P.P.P.P.P.P.P.P.P.P.P.P.P.P.P.P.P.P.P.P.P.P.P.P.P.P.P.P.P.P.P.P.P.P.P.P.P.P.P.P.P.P.P.P.P.0.        ",
"        F.P.P.P.P.P.P.P.P.P.P.P.P.P.P.P.P.P.P.P.P.P.P.P.P.P.P.P.P.P.P.P.P.P.P.P.P.P.P.P.P.P.P.P.P.P.P.P.P.P.P.P.P.P.P.F.        ",
"        P.P.P.P.P.P.P.P.P.P.P.P.P.P.P.P.P.P.P.P.P.P.P.P.P.P.P.P.P.P.P.P.P.P.P.P.P.P.P.P.P.P.P.P.P.P.P.P.P.P.P.P.P.P.P.P.        ",
"        P.P.P.P.P.P.P.P.P.P.P.P.P.P.P.P.P.P.P.P.P.P.P.P.P.P.P.P.P.P.P.P.P.P.P.P.P.P.P.P.P.P.P.P.P.P.P.P.P.P.P.P.P.P.P.P.        ",
"        P.P.P.P.P.P.P.P.P.P.P.P.P.P.P.P.P.P.P.P.P.P.P.P.P.P.P.P.P.P.P.P.P.P.P.P.P.P.P.P.P.P.P.P.P.P.P.P.P.P.P.P.P.P.P.P.        ",
"        P.P.P.P.P.P.P.P.P.P.P.P.P.P.P.P.P.P.P.P.P.P.P.P.P.P.P.P.P.P.P.P.P.P.P.P.P.P.P.P.P.P.P.P.P.P.P.P.P.P.P.P.P.P.P.P.        ",
"        P.P.P.P.P.P.P.P.P.P.P.P.P.P.P.P.P.P.P.P.P.P.P.P.P.P.P.P.P.P.P.P.P.P.P.P.P.P.P.P.P.P.P.P.P.P.P.P.P.P.P.P.P.P.P.P.        ",
"        P.P.P.P.P.P.P.P.P.P.P.P.P.P.P.P.P.P.P.P.P.P.F.{ l 7 * . , a ` Z.P.P.P.P.P.P.P.P.P.P.P.P.P.P.P.P.P.P.P.P.P.P.P.P.        ",
"        P.P.P.P.P.P.P.P.P.P.P.P.P.P.P.P.P.P.P.P.P.=.5 . . . . . . . . 7 4.P.P.P.P.P.P.P.P.P.P.P.P.P.P.P.P.P.P.P.P.P.P.P.        ",
"        P.P.P.P.P.P.P.P.P.P.P.P.P.P.P.P.P.P.P.P.>.* . . . . . . . . . . , k.P.P.P.P.P.P.P.P.P.P.P.P.P.P.P.P.P.P.P.P.P.P.        ",
"        P.P.P.P.P.P.P.P.P.P.P.P.P.P.P.P.P.P.P.H.q . . . . . . . . . . . . h P.P.P.P.P.P.P.P.P.P.P.P.P.P.P.P.P.P.P.P.P.P.        ",
"        P.P.P.P.P.P.P.P.P.P.P.P.P.P.P.P.P.P.P.@.. . . . . . . . . . . . . X e.P.P.P.P.P.P.P.P.P.P.P.P.P.P.P.P.P.P.P.P.P.        ",
"        P.P.P.P.P.P.P.P.P.P.P.P.P.P.P.P.P.P.P.H . . . . . . . . . . . . . . Q P.P.P.P.P.P.P.P.P.P.P.P.P.P.P.P.P.P.P.P.P.        ",
"        P.P.P.P.P.P.P.P.P.P.P.P.P.P.P.P.P.P.P.t . . . . . . . . . . . . . . f P.P.P.P.P.P.P.P.P.P.P.P.P.P.P.P.P.P.P.P.P.        ",
"        P.P.P.P.P.P.P.P.P.P.P.P.P.P.P.P.P.P.P.2 . ; # . . . X F ' d . . . . 5 P.P.P.P.P.P.P.P.P.P.P.P.P.P.P.P.P.P.P.P.P.        ",
"        P.P.P.P.P.P.P.P.P.P.P.P.P.P.P.P.P.P.P.# t V.b.7 . . Y P.P.H.l . . . @ H.P.P.P.P.P.P.P.P.P.P.P.P.P.P.P.P.P.P.P.P.        ",
"        P.P.P.P.P.P.P.P.P.P.P.P.P.P.P.P.P.P.P.# ..j.c.{ . # V.+.K H.3.. . . . B.P.P.P.P.P.P.P.P.P.P.P.P.P.P.P.P.P.P.P.P.        ",
"        P.P.P.P.P.P.P.P.P.P.P.P.P.P.P.P.P.P.P.* 6.u e e.. 7 H.4 . +.H.X . . . M.P.P.P.P.P.P.P.P.P.P.P.P.P.P.P.P.P.P.P.P.        ",
"        P.P.P.P.P.P.P.P.P.P.P.P.P.P.P.P.P.P.P.1 %.e X > @ O 4 . . ..M.. . . . m.P.P.P.P.P.P.P.P.P.P.P.P.P.P.P.P.P.P.P.P.        ",
"        P.P.P.P.P.P.P.P.P.P.P.P.P.P.P.P.P.P.P.7 v i : | H.V.} 9 . G P . . . . c.P.P.P.P.P.P.P.P.P.P.P.P.P.P.P.P.P.P.P.P.        ",
"        P.P.P.P.P.P.P.P.P.P.P.P.P.P.P.P.P.P.P.e . q e.P.P.P.P.H.X.h X . . . . c.P.P.P.P.P.P.P.P.P.P.P.P.P.P.P.P.P.P.P.P.        ",
"        P.P.P.P.P.P.P.P.P.P.P.P.P.P.P.P.P.P.P.4 d U Y 6.H.P.H.4.U X.T . . . . =.P.P.P.P.P.P.P.P.P.P.P.P.P.P.P.P.P.P.P.P.        ",
"        P.P.P.P.P.P.P.P.P.P.P.P.P.P.P.P.P.P.B.X l &.a @ # ; @ # d >.v . . . . ' P.P.P.P.P.P.P.P.P.P.P.P.P.P.P.P.P.P.P.P.        ",
"        P.P.P.P.P.P.P.P.P.P.P.P.P.P.P.P.P.P.*.. . v Z.H.6.>.j.H.4.l > 2 . . . i P.P.P.P.P.P.P.P.P.P.P.P.P.P.P.P.P.P.P.P.        ",
"        P.P.P.P.P.P.P.P.P.P.P.P.P.P.P.P.P.P.P . e e e j.P.P.j.c # v c.P . . . X >.P.P.P.P.P.P.P.P.P.P.P.P.P.P.P.P.P.P.P.        ",
"        P.P.P.P.P.P.P.P.P.P.P.P.P.P.P.P.P.P.q . K F.F # a i # l j.P.P.4.. . . . u H.P.P.P.P.P.P.P.P.P.P.P.P.P.P.P.P.P.P.        ",
"        P.P.P.P.P.P.P.P.P.P.P.P.P.P.P.P.P.e.. . | P.P.=.R ! 6.P.P.P.P.P.7 . . . . ' P.P.P.P.P.P.P.P.P.P.P.P.P.P.P.P.P.P.        ",
"        P.P.P.P.P.P.P.P.P.P.P.P.P.P.P.P.P.P.P.P.P.P.P.P.P.P.P.P.P.P.P.P.P.P.P.P.P.P.P.P.P.P.P.P.P.P.P.P.P.P.P.P.P.P.P.P.        ",
"        P.P.P.P.P.P.P.P.P.P.P.P.P.P.P.P.P.P.P.P.P.P.P.P.P.P.P.P.P.P.P.P.P.P.P.P.P.P.P.P.P.P.P.P.P.P.P.P.P.P.P.P.P.P.P.P.        ",
"        P.P.P.P.P.P.P.P.P.P.P.P.P.P.P.P.P.P.P.P.P.P.P.P.P.P.P.P.P.P.P.P.P.P.P.P.P.P.P.P.P.P.P.P.P.P.P.P.P.P.P.P.P.P.P.P.        ",
"        P.P.P.P.P.P.P.P.P.P.P.P.P.P.P.P.P.P.P.P.P.P.P.P.P.P.P.P.P.P.P.P.P.P.P.P.P.P.P.P.P.P.P.P.P.P.P.P.P.P.P.P.P.P.P.P.        ",
"        P.P.P.P.P.P.P.P.P.P.P.P.P.P.P.P.P.P.P.P.P.P.P.P.P.P.P.P.P.P.P.P.P.P.P.P.P.P.P.P.P.P.P.P.P.P.P.P.P.P.P.P.P.P.P.P.        ",
"        c.P.P.P.P.P.P.P.P.P.P.P.P.P.P.P.P.P.P.P.P.P.P.P.P.P.P.P.P.P.P.P.P.P.P.P.P.P.P.P.P.P.P.P.P.P.P.P.P.P.P.P.P.P.P.c.        ",
"        D P.P.P.P.P.P.P.P.P.P.P.P.P.P.P.P.P.P.P.P.P.P.P.P.P.P.P.P.P.P.P.P.P.P.P.P.P.P.P.P.P.P.P.P.P.P.P.P.P.P.P.P.P.P.A         ",
"          D b.P.P.P.P.P.P.P.P.P.P.P.P.P.P.P.P.P.P.P.P.P.P.P.P.P.P.P.P.P.P.P.P.P.P.P.P.P.P.P.P.P.P.P.P.P.P.P.P.P.P.b.Z           ",
"                                                                                                                                ",
"                                                                                                                                ",
"                                                                                                                                ",
"                                                                                                                                ",
"                                                                                                                                ",
"                                                                                                                                ",
"                                                                                                                                "
};
