/* XPM */
static char * folder_code_xpm[] = {
"64 64 152 2 ",
"   c None",
".  c #363A4F",
"X  c #363B50",
"o  c #363B51",
"O  c #373C50",
"+  c #373D51",
"@  c #373C52",
"#  c #383D53",
"$  c #383E54",
"%  c #383F54",
"&  c #394055",
"*  c #394157",
"=  c #3B4459",
"-  c #3B455A",
";  c #3C445B",
":  c #3C455B",
">  c #3C465C",
",  c #3D495F",
"<  c #3F4A61",
"1  c #3E4B61",
"2  c #3F4C62",
"3  c #404E64",
"4  c #414E65",
"5  c #414F66",
"6  c #415167",
"7  c #435268",
"8  c #425369",
"9  c #43536A",
"0  c #44556C",
"q  c #44556D",
"w  c #475A72",
"e  c #475C74",
"r  c #485D75",
"t  c #495E76",
"y  c #495F78",
"u  c #496078",
"i  c #4D667F",
"p  c #42687B",
"a  c #456B7F",
"s  c #4E6881",
"d  c #4F6982",
"f  c #4E6A83",
"g  c #4F6B83",
"h  c #516D87",
"j  c #477084",
"k  c #487185",
"l  c #487388",
"z  c #497488",
"x  c #487489",
"c  c #497489",
"v  c #4C778B",
"b  c #4C788B",
"n  c #4D798C",
"m  c #4D798D",
"M  c #527089",
"N  c #54758E",
"B  c #547690",
"V  c #557790",
"C  c #557791",
"Z  c #567892",
"A  c #567993",
"S  c #577A94",
"D  c #577B96",
"F  c #5A7F99",
"G  c #5A809B",
"H  c #5A819B",
"J  c #5B819C",
"K  c #5C849F",
"L  c #5D859F",
"P  c #5D85A0",
"I  c #5D86A1",
"U  c #5788A1",
"Y  c #548DA6",
"T  c #558FA9",
"R  c #5E94AF",
"E  c #5C9AB6",
"W  c #5C9BB7",
"Q  c #5E9DB9",
"!  c #5E9DBA",
"~  c #608CA7",
"^  c #628FAA",
"/  c #628FAB",
"(  c #6290AC",
")  c #6291AC",
"_  c #6493B0",
"`  c #6596B2",
"'  c #6696B3",
"]  c #6799B5",
"[  c #679BB7",
"{  c #689AB6",
"}  c #689BB8",
"|  c #6A9FBB",
" . c #6A9FBC",
".. c #6BA0BD",
"X. c #65A5C4",
"o. c #65A6C5",
"O. c #6DA4C1",
"+. c #6DA4C2",
"@. c #6DA5C3",
"#. c #6EA7C4",
"$. c #6EA7C5",
"%. c #6CA9C8",
"&. c #6DAAC9",
"*. c #6FAAC8",
"=. c #68AECE",
"-. c #6DAFCC",
";. c #71ABCA",
":. c #72ADCC",
">. c #71AECC",
",. c #69B0CF",
"<. c #6EB0CD",
"1. c #6EB0CE",
"2. c #69B0D0",
"3. c #6AB0D0",
"4. c #6BB1D1",
"5. c #6CB1D1",
"6. c #6DB1D1",
"7. c #6DB1D2",
"8. c #6CB2D2",
"9. c #6EB2D2",
"0. c #73B1D0",
"q. c #70B2D2",
"w. c #70B3D2",
"e. c #72B3D3",
"r. c #75B5D3",
"t. c #73B4D4",
"y. c #75B4D4",
"u. c #76B5D4",
"i. c #75B7D5",
"p. c #76B6D5",
"a. c #76B7D6",
"s. c #75B8D6",
"d. c #77BAD8",
"f. c #79BCDB",
"g. c #79BBDC",
"h. c #7ABDDC",
"j. c #7BBFDF",
"k. c #7BC0DF",
"l. c #7BC0E0",
"z. c #7AC1E0",
"x. c #7BC1E0",
"c. c #7BC0E1",
"v. c #7CC2E1",
"b. c #7DC3E2",
"n. c #7CC2E3",
"m. c #7DC3E3",
"M. c #7DC4E4",
"N. c #A4C6E7",
"B. c #A5C6E7",
"V. c #A6C6E7",
"C. c #C4D1F3",
"Z. c #CAD3F5",
/* pixels */
"                                                                                                                                ",
"                                                                                                                                ",
"                                                                                                                                ",
"                                                                                                                                ",
"                                                                                                                                ",
"                                                                                                                                ",
"                                                                                                                                ",
"          c %.t.t.t.t.t.t.t.t.t.t.t.t.t.t.t.%.U                                                                                 ",
"        c 8.,.2.2.2.2.2.2.2.2.2.2.2.2.2.2.2.2.8.w.p                                                                             ",
"        o.2.2.2.2.2.2.2.2.2.2.2.2.2.2.2.2.2.2.2.2.8.k                                                                           ",
"        ,.2.2.2.2.2.2.2.2.2.2.2.2.2.2.2.2.2.2.2.2.2.8.a                                                                         ",
"        2.2.2.2.2.2.2.2.2.2.2.2.2.2.2.2.2.2.2.2.2.2.2.8.j                                                                       ",
"        2.2.2.2.2.2.2.2.2.2.2.2.2.2.2.2.2.2.2.2.2.2.2.2.8.R                                                                     ",
"        2.2.2.2.2.2.2.2.2.2.2.2.2.2.2.2.2.2.2.2.2.2.2.2.2.2.w.w.t.t.t.t.t.t.t.t.t.t.t.t.t.t.t.t.t.t.t.t.t.t.t.t.t.%.c           ",
"        2.2.2.2.2.2.2.2.2.2.2.2.2.2.2.2.2.2.2.2.2.2.2.2.2.2.2.2.2.2.2.2.2.2.2.2.2.2.2.2.2.2.2.2.2.2.2.2.2.2.2.2.2.,.8.l         ",
"        2.2.2.2.2.2.2.2.2.2.2.2.2.2.2.2.2.2.2.2.2.2.2.2.2.2.2.2.2.2.2.2.2.2.2.2.2.2.2.2.2.2.2.2.2.2.2.2.2.2.2.2.2.2.2.o.        ",
"        2.2.2.2.8.B.C.Z.Z.Z.Z.Z.Z.Z.Z.Z.Z.Z.Z.Z.Z.Z.Z.Z.Z.Z.Z.Z.Z.Z.Z.Z.Z.Z.Z.Z.Z.Z.Z.Z.Z.Z.Z.Z.Z.Z.Z.Z.Z.C.B.8.2.2.2.2.        ",
"        2.2.2.2.B.Z.Z.Z.Z.Z.Z.Z.Z.Z.Z.Z.Z.Z.Z.Z.Z.Z.Z.Z.Z.Z.Z.Z.Z.Z.Z.Z.Z.Z.Z.Z.Z.Z.Z.Z.Z.Z.Z.Z.Z.Z.Z.Z.Z.Z.Z.B.2.2.2.2.        ",
"        2.2.2.2.C.Z.Z.Z.Z.Z.Z.Z.Z.Z.Z.Z.Z.Z.Z.Z.Z.Z.Z.Z.Z.Z.Z.Z.Z.Z.Z.Z.Z.Z.Z.Z.Z.Z.Z.Z.Z.Z.Z.Z.Z.Z.Z.Z.Z.Z.Z.C.2.2.2.2.        ",
"        2.2.2.2.Z.Z.Z.Z.Z.Z.Z.Z.Z.Z.Z.Z.Z.Z.Z.Z.Z.Z.Z.Z.Z.Z.Z.Z.Z.Z.Z.Z.Z.Z.Z.Z.Z.Z.Z.Z.Z.Z.Z.Z.Z.Z.Z.Z.Z.Z.Z.Z.2.2.2.2.        ",
"        =.E T Y Z.Z.Z.Z.Z.Z.Z.Z.Z.Z.Z.Z.Z.Z.Z.Z.Z.Z.Z.Z.Z.Z.Z.Z.Z.Z.Z.Z.Z.Z.Z.Z.Z.Z.Z.Z.Z.Z.Z.Z.Z.Z.Z.Z.Z.Z.Z.Z.Y T E =.        ",
"        Q -.z.M.M.M.M.M.M.M.M.M.M.M.M.M.M.M.M.M.M.M.M.M.M.M.M.M.M.M.M.M.M.M.M.M.M.M.M.M.M.M.M.M.M.M.M.M.M.M.M.M.M.z.-.Q         ",
"        1.M.M.M.M.M.M.M.M.M.M.M.M.M.M.M.M.M.M.M.M.M.M.M.M.M.M.M.M.M.M.M.M.M.M.M.M.M.M.M.M.M.M.M.M.M.M.M.M.M.M.M.M.M.M.1.        ",
"        z.M.M.M.M.M.M.M.M.M.M.M.M.M.M.M.M.M.M.M.M.M.M.M.M.M.M.M.M.M.M.M.M.M.M.M.M.M.M.M.M.M.M.M.M.M.M.M.M.M.M.M.M.M.M.z.        ",
"        M.M.M.M.M.M.M.M.M.M.M.M.M.M.M.M.M.M.M.M.M.M.M.M.M.M.M.M.M.M.M.M.M.M.M.M.M.M.M.M.M.M.M.M.M.M.M.M.M.M.M.M.M.M.M.M.        ",
"        M.M.M.M.M.M.M.M.M.M.M.M.M.M.M.M.M.M.M.M.M.M.M.M.M.M.M.M.M.M.M.M.M.M.M.M.M.M.M.M.M.M.M.M.M.M.M.M.M.M.M.M.M.M.M.M.        ",
"        M.M.M.M.M.M.M.M.M.M.M.M.M.M.M.M.M.M.M.M.M.M.M.M.M.M.M.M.M.M.M.M.M.M.M.M.M.M.M.M.M.M.M.M.M.M.M.M.M.M.M.M.M.M.M.M.        ",
"        M.M.M.M.M.M.M.M.M.M.M.M.M.M.M.M.M.M.M.M.M.M.M.M.M.M.M.M.M.M.M.M.M.M.M.M.M.M.M.M.M.M.M.M.M.M.M.M.M.M.M.M.M.M.M.M.        ",
"        M.M.M.M.M.M.M.M.M.M.M.M.M.M.M.M.M.M.M.M.M.M.M.M.M.M.M.M.m.3 g ^ m.K M.M.M.M.M.M.M.M.M.M.M.M.M.M.M.M.M.M.M.M.M.M.        ",
"        M.M.M.M.M.M.M.M.M.M.M.M.M.M.M.M.M.M.M.M.M.M.M.M.M.M.M.M.@.. . < M.. N m.M.M.M.M.M.M.M.M.M.M.M.M.M.M.M.M.M.M.M.M.        ",
"        M.M.M.M.M.M.M.M.M.M.M.M.M.M.M.M.M.M.M.M.M.M.K M.M.M.M.M.F . . M M.. . g z.M.M.M.M.M.M.M.M.M.M.M.M.M.M.M.M.M.M.M.        ",
"        M.M.M.M.M.M.M.M.M.M.M.M.M.M.M.M.M.M.M.M.m.A . M.M.M.M.M.w . . ' M.. . . e g.M.M.M.M.M.M.M.M.M.M.M.M.M.M.M.M.M.M.        ",
"        M.M.M.M.M.M.M.M.M.M.M.M.M.M.M.M.M.M.M.z.g . . M.M.M.M.f.+ . + d.M.N . . . 8 i.M.M.M.M.M.M.M.M.M.M.M.M.M.M.M.M.M.        ",
"        M.M.M.M.M.M.M.M.M.M.M.M.M.M.M.M.M.M.h.y . . . M.M.M.M.{ . . 0 M.M.m.V . . . , ;.M.M.M.M.M.M.M.M.M.M.M.M.M.M.M.M.        ",
"        M.M.M.M.M.M.M.M.M.M.M.M.M.M.M.M.M.i.8 . . . V M.M.M.M.N . . S M.M.M.m.V . . . - @.M.M.M.M.M.M.M.M.M.M.M.M.M.M.M.        ",
"        M.M.M.M.M.M.M.M.M.M.M.M.M.M.M.M.:.< . . . V M.M.M.M.M.3 . . ..M.M.M.M.M.S . . . # ' M.M.M.M.M.M.M.M.M.M.M.M.M.M.        ",
"        M.M.M.M.M.M.M.M.M.M.M.M.M.M.M.$.: . . . V M.M.M.M.M.i.. . % h.M.M.M.M.M.M.S . . . X ~ M.M.M.M.M.M.M.M.M.M.M.M.M.        ",
"        M.M.M.M.M.M.M.M.M.M.M.M.M.M.] % . . . A M.M.M.M.M.M.^ . . u M.M.M.M.M.M.M.P . . . . F M.M.M.M.M.M.M.M.M.M.M.M.M.        ",
"        M.M.M.M.M.M.M.M.M.M.M.M.M.^ + . . . A M.M.M.M.M.M.M.g . . P M.M.M.M.M.M.P . . . X ~ M.M.M.M.M.M.M.M.M.M.M.M.M.M.        ",
"        M.M.M.M.M.M.M.M.M.M.M.M.M.G X . . . K M.M.M.M.M.M.m.> . . %.M.M.M.M.M.K . . . * ] M.M.M.M.M.M.M.M.M.M.M.M.M.M.M.        ",
"        M.M.M.M.M.M.M.M.M.M.M.M.M.M.) + . . . J M.M.M.M.M.%.. . > m.M.M.M.M.P . . . - @.M.M.M.M.M.M.M.M.M.M.M.M.M.M.M.M.        ",
"        M.M.M.M.M.M.M.M.M.M.M.M.M.M.M.| * . . . G M.M.M.M.K . . g M.M.M.M.P . . . 2 :.M.M.M.M.M.M.M.M.M.M.M.M.M.M.M.M.M.        ",
"        M.M.M.M.M.M.M.M.M.M.M.M.M.M.M.M.$.: . . . G M.M.M.y . . ) M.M.M.M.. . . 8 i.M.M.M.M.M.M.M.M.M.M.M.M.M.M.M.M.M.M.        ",
"        M.M.M.M.M.M.M.M.M.M.M.M.M.M.M.M.M.w.3 . . . G M.k.% . . r.M.M.M.M.. . t g.M.M.M.M.M.M.M.M.M.M.M.M.M.M.M.M.M.M.M.        ",
"        M.M.M.M.M.M.M.M.M.M.M.M.M.M.M.M.M.M.i.0 . . . M. .. . 6 M.M.M.M.M.. i k.M.M.M.M.M.M.M.M.M.M.M.M.M.M.M.M.M.M.M.M.        ",
"        M.M.M.M.M.M.M.M.M.M.M.M.M.M.M.M.M.M.M.f.t . . M.S . . N M.M.M.M.M.V m.M.M.M.M.M.M.M.M.M.M.M.M.M.M.M.M.M.M.M.M.M.        ",
"        M.M.M.M.M.M.M.M.M.M.M.M.M.M.M.M.M.M.M.M.z.g . M.0 . . } M.M.M.M.M.M.M.M.M.M.M.M.M.M.M.M.M.M.M.M.M.M.M.M.M.M.M.M.        ",
"        M.M.M.M.M.M.M.M.M.M.M.M.M.M.M.M.M.M.M.M.M.m.A M._ h 2 h.M.M.M.M.M.M.M.M.M.M.M.M.M.M.M.M.M.M.M.M.M.M.M.M.M.M.M.M.        ",
"        M.M.M.M.M.M.M.M.M.M.M.M.M.M.M.M.M.M.M.M.M.M.M.M.M.M.M.M.M.M.M.M.M.M.M.M.M.M.M.M.M.M.M.M.M.M.M.M.M.M.M.M.M.M.M.M.        ",
"        M.M.M.M.M.M.M.M.M.M.M.M.M.M.M.M.M.M.M.M.M.M.M.M.M.M.M.M.M.M.M.M.M.M.M.M.M.M.M.M.M.M.M.M.M.M.M.M.M.M.M.M.M.M.M.M.        ",
"        M.M.M.M.M.M.M.M.M.M.M.M.M.M.M.M.M.M.M.M.M.M.M.M.M.M.M.M.M.M.M.M.M.M.M.M.M.M.M.M.M.M.M.M.M.M.M.M.M.M.M.M.M.M.M.M.        ",
"        M.M.M.M.M.M.M.M.M.M.M.M.M.M.M.M.M.M.M.M.M.M.M.M.M.M.M.M.M.M.M.M.M.M.M.M.M.M.M.M.M.M.M.M.M.M.M.M.M.M.M.M.M.M.M.M.        ",
"        M.M.M.M.M.M.M.M.M.M.M.M.M.M.M.M.M.M.M.M.M.M.M.M.M.M.M.M.M.M.M.M.M.M.M.M.M.M.M.M.M.M.M.M.M.M.M.M.M.M.M.M.M.M.M.M.        ",
"        M.M.M.M.M.M.M.M.M.M.M.M.M.M.M.M.M.M.M.M.M.M.M.M.M.M.M.M.M.M.M.M.M.M.M.M.M.M.M.M.M.M.M.M.M.M.M.M.M.M.M.M.M.M.M.M.        ",
"        i.M.M.M.M.M.M.M.M.M.M.M.M.M.M.M.M.M.M.M.M.M.M.M.M.M.M.M.M.M.M.M.M.M.M.M.M.M.M.M.M.M.M.M.M.M.M.M.M.M.M.M.M.M.M.i.        ",
"        m M.M.M.M.M.M.M.M.M.M.M.M.M.M.M.M.M.M.M.M.M.M.M.M.M.M.M.M.M.M.M.M.M.M.M.M.M.M.M.M.M.M.M.M.M.M.M.M.M.M.M.M.M.M.b         ",
"          m s.M.M.M.M.M.M.M.M.M.M.M.M.M.M.M.M.M.M.M.M.M.M.M.M.M.M.M.M.M.M.M.M.M.M.M.M.M.M.M.M.M.M.M.M.M.M.M.M.M.M.s.v           ",
"                                                                                                                                ",
"                                                                                                                                ",
"                                                                                                                                ",
"                                                                                                                                ",
"                                                                                                                                ",
"                                                                                                                                ",
"                                                                                                                                "
};
