/* XPM */
static char * winicon48x48_xpm[] = {
"48 48 56 1 ",
"  c None",
". c #4C798F",
"X c #4E7B92",
"o c #4F7E94",
"O c #508098",
"+ c #588FA9",
"@ c #5C93AD",
"# c #5F96B1",
"$ c #629AB3",
"% c #629AB4",
"& c #649DB6",
"* c #649EB7",
"= c #61A0BC",
"- c #61A0BD",
"; c #62A0BC",
": c #62A0BD",
"> c #62A1BE",
", c #65A1BE",
"< c #68A3BF",
"1 c #65A3C0",
"2 c #64A7C5",
"3 c #66A7C6",
"4 c #67ADCC",
"5 c #6AACC9",
"6 c #68ACCC",
"7 c #68ADCC",
"8 c #69AFCF",
"9 c #6AAFCF",
"0 c #6FAFCE",
"q c #6FAFCF",
"w c #69B0D0",
"e c #6AB0D0",
"r c #6AB1D0",
"t c #6AB1D1",
"y c #6CB1D1",
"u c #6DB1D1",
"i c #6EB2D2",
"p c #6FB2D2",
"a c #71B2D2",
"s c #71B3D3",
"d c #72B4D4",
"f c #78BEDD",
"g c #79BFDF",
"h c #7ABFDE",
"j c #7ABFDF",
"k c #7CC3E2",
"l c #7DC4E4",
"z c #85BBDB",
"x c #AECBEC",
"c c #B4CBED",
"v c #B5CFF0",
"b c #B6CFF1",
"n c #C1D0F2",
"m c #C2D0F2",
"M c #CAD3F5",
"N c #CCD3F5",
/* pixels */
"                                                ",
"                                                ",
"                                                ",
"                                                ",
"                                                ",
"    @adddddaaaadq#                              ",
"   +7eeeeeeeeeeee71.                            ",
"   7eeeeeeeeeeeeeee=X                           ",
"   eeeeeeeeeeeeeeeee=o                          ",
"   eeeeeeeeeeeeeeeeee2,                         ",
"   eeeeeeeeeeeeeeeeeeeepppppppppppppppppppp=O   ",
"   eeeepaaaaaaaaaaaaaaaaaaaaaaaaaaaaaaaapeee=   ",
"   eeezcmmmmmmmmmmmmmmmmmmmmmmmmmmmmmmmmczeee   ",
"   eepcMMMMMMMMMMMMMMMMMMMMMMMMMMMMMMMMMMcpee   ",
"   74qmNMMMMNNNNMMMMNNNNNNNNMMMMNNNNNNMMNmq4e   ",
"   2=<xbbbbbbbbbbbbbbbbbbbbbbbbbbbbbbbbbbx<=2   ",
"   5fllllllllllllllllllllllllllllllllllllllf5   ",
"   fllllllllllllllllllllllllllllllllllllllllf   ",
"   llllllllllllllllllllllllllllllllllllllllll   ",
"   llllllllllllllllllllllllllllllllllllllllll   ",
"   llllllllllllllllllllllllllllllllllllllllll   ",
"   llllllllllllllllllllllllllllllllllllllllll   ",
"   llllllllllllllllllllllllllllllllllllllllll   ",
"   llllllllllllllllllllllllllllllllllllllllll   ",
"   llllllllllllllllllllllllllllllllllllllllll   ",
"   llllllllllllllllllllllllllllllllllllllllll   ",
"   llllllllllllllllllllllllllllllllllllllllll   ",
"   llllllllllllllllllllllllllllllllllllllllll   ",
"   llllllllllllllllllllllllllllllllllllllllll   ",
"   llllllllllllllllllllllllllllllllllllllllll   ",
"   llllllllllllllllllllllllllllllllllllllllll   ",
"   llllllllllllllllllllllllllllllllllllllllll   ",
"   llllllllllllllllllllllllllllllllllllllllll   ",
"   llllllllllllllllllllllllllllllllllllllllll   ",
"   llllllllllllllllllllllllllllllllllllllllll   ",
"   llllllllllllllllllllllllllllllllllllllllll   ",
"   llllllllllllllllllllllllllllllllllllllllll   ",
"   llllllllllllllllllllllllllllllllllllllllll   ",
"   llllllllllllllllllllllllllllllllllllllllll   ",
"   llllllllllllllllllllllllllllllllllllllllll   ",
"   fllllllllllllllllllllllllllllllllllllllllf   ",
"   %fllllllllllllllllllllllllllllllllllllllf$   ",
"    *kllllllllllllllllllllllllllllllllllllk*    ",
"                                                ",
"                                                ",
"                                                ",
"                                                ",
"                                                "
};
