/* XPM */
static char * winicon16x16_xpm[] = {
"16 16 30 1 ",
"  c None",
". c #62A3C0",
"X c #66A8C6",
"o c #67ACCB",
"O c #69AFCF",
"+ c #69B0D0",
"@ c #6AB0D0",
"# c #70B0D0",
"$ c #70B1D1",
"% c #70B3D3",
"& c #74B3D3",
"* c #77B3D2",
"= c #74B4D4",
"- c #75B4D4",
"; c #74B4D5",
": c #76B5D5",
"> c #7CB7D7",
", c #76B9D7",
"< c #76B9D8",
"1 c #7ABFDE",
"2 c #7CC4E4",
"3 c #7DC4E4",
"4 c #90C7E7",
"5 c #94C9E9",
"6 c #ACC8E9",
"7 c #ADC8EA",
"8 c #BCCEF0",
"9 c #BDCEF0",
"0 c #BDCFF0",
"q c #BECFF1",
/* pixels */
"                ",
"                ",
" o@@@O.         ",
" @%---**>>>>>-X ",
" %700000000007% ",
" <455555555554< ",
" 22222222222222 ",
" 22222222222222 ",
" 22222222222222 ",
" 22222222222222 ",
" 22222222222222 ",
" 22222222222222 ",
" 22222222222222 ",
" 12222222222221 ",
"                ",
"                "
};
