/* XPM */
static char * file_video_xpm[] = {
"64 64 46 1 ",
"  c None",
". c #4D5892",
"X c #4E5994",
"o c #4E5995",
"O c #4F5A96",
"+ c #5B68AE",
"@ c #5C69AE",
"# c #626CA0",
"$ c #636DA1",
"% c #6771A4",
"& c #6771A5",
"* c #6472BE",
"= c #6675C3",
"- c #6776C5",
"; c #6D7CD0",
": c #6E7DD0",
"> c #6E7DD1",
", c #7583D3",
"< c #7282D9",
"1 c #7382D9",
"2 c #7383D9",
"3 c #7685DA",
"4 c #7B8ADB",
"5 c #7C8BDC",
"6 c #8593DE",
"7 c #8A96DA",
"8 c #A8AED4",
"9 c #ADB4D7",
"0 c #8E9BE1",
"q c #909DE1",
"w c #9EA9E5",
"e c #AEB6E1",
"r c #B0B9EA",
"t c #BDC5ED",
"y c #C2C7E1",
"u c #CAD0F1",
"i c #CBD1F1",
"p c #CFD4F2",
"a c #DEE1F6",
"s c #E9ECF9",
"d c #F3F4FB",
"f c #F9FAFD",
"g c #FDFDFE",
"h c #FDFEFF",
"j c #FEFEFF",
"k c white",
/* pixels */
"                                                                ",
"                                                                ",
"                                                                ",
"                                                                ",
"                                                                ",
"                                                                ",
"                                                                ",
"                                                                ",
"       &700000000000000000000000000000000000000000000007&       ",
"      $4<<<<<<<<<<<<<<<<<<<<<<<<<<<<<<<<<<<<<<<<<<<<<<<<4$      ",
"      ,<<<<<<<<<<<<<<<<<<<<<<<<<<<<<<<<<<<<<<<<<<<<<<<<<<,      ",
"      <<<<<<<<<<<<<<<<<<<<<<<<<<<<<<<<<<<<<<<<<<<<<<<<<<<<      ",
"      <<<<<<<<<<<<<<<<<<<<<<<<<<<<<<<<<<<<<<<<<<<<<<<<<<<<      ",
"      <<<<<<<<<<<<<<<<<<<<<<<<<<<<<<<<<<<<<<<<<<<<<<<<<<<<      ",
"      <<<<<<<<<<<<<<<<<<<<<<<<<<<<<<<<<<<<<<<<<<<<<<<<<<<<      ",
"      <<<<<<<<<<<<<<<<<<<<<<<<<<<<<<<<<<<<<<<<<<<<<<<<<<<<      ",
"      <<<<<<<<<<<<<<<<<<<<<<<<<<<<<<<<<<<<<<<<<<<<<<<<<<<<      ",
"      <<<<<<<<<<<<<<<<<<<<<<<<<<<<<<<<<<<<<<<<<<<<<<<<<<<<      ",
"      <<<<<<<<<<<<<<<<<<<<<<<<<<<<<<<<<<<<<<<<<<<<<<<<<<<<      ",
"      <<<<<<<<<<<<<<<<<<<<<<<<<<<<<<<<<<<<<<<<<<<<<<<<<<<<      ",
"      <<<<<<<<<<<<<<<<<<<<<<<<<<<<<<<<<<<<<<<<<<<<<<<<<<<<      ",
"      <<<<<<<<<<<<<<<<<<<<<<<<<<<<<<<<<<<<<<<<<<<<<<<<<<<<      ",
"      <<<<<<<<<<<<<<<<<<<<<<<<<<<<<<<<<<<<<<<<<<<<<<<<<<<<      ",
"      <<<<<<<<<<<<<<<<<<<<<<<<<<<<<<<<<<<<<<<<<<<<<<<<<<<<      ",
"      <<<<<<<<<<<<<<ikkkkkkkkkkkkkkkkki<<<<<<<<<<<<<<<<<<<      ",
"      <<<<<<<<<<<<<<kkkkkkkkkkkkkkkkkkk<<<<<<<<<<<<<<<<<<<      ",
"      <<<<<<<<<<<<<<kkkkkkkkkkkkkkkkkkk<<<<<<<t<<<<<<<<<<<      ",
"      <<<<<<<<<<<<<<kkkkkkkkkkkkkkkkkkk<<<<<3pk<<<<<<<<<<<      ",
"      <<<<<<<<<<<<<<kkkkkkkkkkkkkkkkkkk<<<<5akk<<<<<<<<<<<      ",
"      <<<<<<<<<<<<<<kkkkkkkkkkkkkkkkkkk<<<6skkk<<<<<<<<<<<      ",
"      <<<<<<<<<<<<<<kkkkkkkkkkkkkkkkkkk<<qdkkkk<<<<<<<<<<<      ",
"      <<<<<<<<<<<<<<kkkkkkkkkkkkkkkkkkk<wfkkkkk<<<<<<<<<<<      ",
"      <<<<<<<<<<<<<<kkkkkkkkkkkkkkkkkkkrkkkkkkk<<<<<<<<<<<      ",
"      <<<<<<<<<<<<<<kkkkkkkkkkkkkkkkkkkekkkkkkk<<<<<<<<<<<      ",
"      <<<<<<<<<<<<<<kkkkkkkkkkkkkkkkkkk-8kkkkkk<<<<<<<<<<<      ",
"      <<<<<<<<<<<<<<kkkkkkkkkkkkkkkkkkk<-8kkkkk<<<<<<<<<<<      ",
"      <<<<<<<<<<<<<<kkkkkkkkkkkkkkkkkkk<<-8kkkk<<<<<<<<<<<      ",
"      <<<<<<<<<<<<<<kkkkkkkkkkkkkkkkkkk<<<-8kkk<<<<<<<<<<<      ",
"      <<<<<<<<<<<<<<kkkkkkkkkkkkkkkkkkk<<<<-8kk<<<<<<<<<<<      ",
"      <<<<<<<<<<<<<<kkkkkkkkkkkkkkkkkkk<<<<<-8k<<<<<<<<<<<      ",
"      <<<<<<<<<<<<<<kkkkkkkkkkkkkkkkkkk<<<<<<-9<<<<<<<<<<<      ",
"      <<<<<<<<<<<<<<ykkkkkkkkkkkkkkkkky<<<<<<<=<<<<<<<<<<<      ",
"      <<<<<<<<<<<<<<*@+++++++++++++++@*<<<<<<<<<<<<<<<<<<<      ",
"      <<<<<<<<<<<<<<<<<<<<<<<<<<<<<<<<<<<<<<<<<<<<<<<<<<<<      ",
"      <<<<<<<<<<<<<<<<<<<<<<<<<<<<<<<<<<<<<<<<<<<<<<<<<<<<      ",
"      <<<<<<<<<<<<<<<<<<<<<<<<<<<<<<<<<<<<<<<<<<<<<<<<<<<<      ",
"      <<<<<<<<<<<<<<<<<<<<<<<<<<<<<<<<<<<<<<<<<<<<<<<<<<<<      ",
"      <<<<<<<<<<<<<<<<<<<<<<<<<<<<<<<<<<<<<<<<<<<<<<<<<<<<      ",
"      <<<<<<<<<<<<<<<<<<<<<<<<<<<<<<<<<<<<<<<<<<<<<<<<<<<<      ",
"      <<<<<<<<<<<<<<<<<<<<<<<<<<<<<<<<<<<<<<<<<<<<<<<<<<<<      ",
"      <<<<<<<<<<<<<<<<<<<<<<<<<<<<<<<<<<<<<<<<<<<<<<<<<<<<      ",
"      <<<<<<<<<<<<<<<<<<<<<<<<<<<<<<<<<<<<<<<<<<<<<<<<<<<<      ",
"      <<<<<<<<<<<<<<<<<<<<<<<<<<<<<<<<<<<<<<<<<<<<<<<<<<<<      ",
"      ;<<<<<<<<<<<<<<<<<<<<<<<<<<<<<<<<<<<<<<<<<<<<<<<<<<;      ",
"      X<<<<<<<<<<<<<<<<<<<<<<<<<<<<<<<<<<<<<<<<<<<<<<<<<<.      ",
"       X;<<<<<<<<<<<<<<<<<<<<<<<<<<<<<<<<<<<<<<<<<<<<<<;X       ",
"                                                                ",
"                                                                ",
"                                                                ",
"                                                                ",
"                                                                ",
"                                                                ",
"                                                                ",
"                                                                "
};
