/* XPM */
static char * file_config_xpm[] = {
"64 64 84 1 ",
"  c None",
". c gray49",
"X c gray52",
"o c #8E8E8E",
"O c gray56",
"+ c #909090",
"@ c gray57",
"# c #929292",
"$ c #939393",
"% c gray58",
"& c #979797",
"* c #989898",
"= c gray60",
"- c #9A9A9A",
"; c #9B9B9B",
": c gray61",
"> c #9D9D9D",
", c gray62",
"< c #9F9F9F",
"1 c #A0A0A0",
"2 c gray63",
"3 c #A2A2A2",
"4 c gray64",
"5 c #A4A4A4",
"6 c #A5A5A5",
"7 c gray65",
"8 c gray66",
"9 c #A9A9A9",
"0 c #AAAAAA",
"q c gray67",
"w c #ACACAC",
"e c #AEAEAE",
"r c #AFAFAF",
"t c gray69",
"y c #B1B1B1",
"u c #B2B2B2",
"i c gray70",
"p c #B4B4B4",
"a c gray71",
"s c #B6B6B6",
"d c gray72",
"f c #B9B9B9",
"g c #BBBBBB",
"h c #BCBCBC",
"j c gray74",
"k c gray",
"l c gray75",
"z c #C0C0C0",
"x c #C1C1C1",
"c c gray76",
"v c #C3C3C3",
"b c #C5C5C5",
"n c #C6C6C6",
"m c #C8C8C8",
"M c gray79",
"N c #CACACA",
"B c #CBCBCB",
"V c gray80",
"C c #CDCDCD",
"Z c #CECECE",
"A c gray81",
"S c #D0D0D0",
"D c #D2D2D2",
"F c LightGray",
"G c gray83",
"H c #D5D5D5",
"J c gray84",
"K c #D7D7D7",
"L c #D8D8D8",
"P c gray85",
"I c gray86",
"U c gainsboro",
"Y c #DDDDDD",
"T c gray87",
"R c #DFDFDF",
"E c gray88",
"W c #E1E1E1",
"Q c #E2E2E2",
"! c gray89",
"~ c #E4E4E4",
"^ c #E6E6E6",
"/ c #E9E9E9",
"( c gray96",
") c gray98",
/* pixels */
"                                                                ",
"                                                                ",
"                                                                ",
"                                                                ",
"           >R///////////////////////&                           ",
"          >~~~~~~~~~~~~~~~~~~~~~~~~~)X                          ",
"          P~~~~~~~~~~~~~~~~~~~~~~~~~))X                         ",
"          ~~~~~~~~~~~~~~~~~~~~~~~~~~)))X                        ",
"          ~~~~~~~~~~~~~~~~~~~~~~~~~~))))X                       ",
"          ~~~~~~~~~~~~~~~~~~~~~~~~~~)))))X                      ",
"          ~~~~~~~~~~~~~~~~~~~~~~~~~~))))))X                     ",
"          ~~~~~~~~~~~~~~~~~~~~~~~~~~)))))))X                    ",
"          ~~~~~~~~~~~~~~~~~~~~~~~~~~))))))))X                   ",
"          ~~~~~~~~~~~~~~~~~~~~~~~~~~)))))))))X                  ",
"          ~~~~~~~~~~~~~~~~~~~~~~~~~~))))))))))X                 ",
"          ~~~~~~~~~~~~~~~~~~~~~~~~~~)))))))))))X                ",
"          ~~~~~~~~~~~~~~~~~~~~~~~~~~))))))))))))X               ",
"          ~~~~~~~~~~~~~~~~~~~~~~~~~~)))))))))))))X              ",
"          ~~~~~~~~~~~~~~~~~~~~~~~~~~))))))))))))))X             ",
"          ~~~~~~~~~~~~~~~~~~~~~~~~~~()))))))))))))).            ",
"          ~~~~~~~~~~~~~~~~~~~~~~~~~~Q))))))))))))))).           ",
"          ~~~~~~~~~~~~~~~~~~~~~~~~~~MQ())))))))))))))&          ",
"          ~~~~~~~~~~~~~~~~~~~~~~~~~~QMfaaaaaaaaaaaaaaZ          ",
"          ~~~~~~~~~~~~~~~~~~~~~~~~~~~~~~~~~~~~~~~~~~~~          ",
"          ~~~~~~~~~~~~~~~~~~~~~~~~~~~~~~~~~~~~~~~~~~~~          ",
"          ~~~~~~~~~~~~~~~~~~~~~~~~~~~~~~~~~~~~~~~~~~~~          ",
"          ~~~~~~~~~~~~~~~~~~~~~~~~~~~~~~~~~~~~~~~~~~~~          ",
"          ~~~~~~~~~~~~~~~~~~~~~~~~~~~~~~~~~~~~~~~~~~~~          ",
"          ~~~~~~~~~~~~~~~~~~~~~~~~~~~~~~~~~~~~~~~~~~~~          ",
"          ~~~~~~~~~~nFQ~~~~~~~~~~~~~~~QZh9-5~~~~~~~~~~          ",
"          ~~~~~~~~~~5o#3anP~~~~~~~~Rh5#oooo3~~~~~~~~~~          ",
"          ~~~~~~~~~~a-ooo#5z~~~~~~J#ooooooo9~~~~~~~~~~          ",
"          ~~~~~~~~~~n-oooooof~~~~R>ooooooooa~~~~~~~~~~          ",
"          ~~~~~~~~~~R#oooooooi~Q~r&oo>f>oooh~~~~~~~~~~          ",
"          ~~~~~~~~~~~>ooooooooJ~h5#o#Q~MoooF~~~~~~~~~~          ",
"          ~~~~~~~~~~~aooooooo5~M9&oo#P~zoo&Q~~~~~~~~~~          ",
"          ~~~~~~~~~~~Zoooooo-RFi3oooo-r#ooh~~~~~~~~~~~          ",
"          ~~~~~~~~~~~~aoooo#FPrrooooooooo5n~~~~~~~~~~~          ",
"          ~~~~~~~~~~~~~z#o#MRia#oooooooo>zQ~~~~~~~~~~~          ",
"          ~~~~~~~~~~~~~~Z-zQaf&oooooooo3Z~~~~~~~~~~~~~          ",
"          ~~~~~~~~~~~~~~~~Qff-oooooooo>P~~~~~~~~~~~~~~          ",
"          ~~~~~~~~~~~~~~~~hi>oooooooo3R~~~~~~~~~~~~~~~          ",
"          ~~~~~~~~~~~~~~~z93ooooooooiQR~~~~~~~~~~~~~~~          ",
"          ~~~~~~~~~~~~~~M53oooooooof~h#f~~~~~~~~~~~~~~          ",
"          ~~~~~~~~~~~~~M3>oooooooozQroooh~~~~~~~~~~~~~          ",
"          ~~~~~~~~~~~~Z>>ooooooo#MQ9#ooooM~~~~~~~~~~~~          ",
"          ~~~~~~~~~~~Z-&ooooooo>Z~h9ooooo#J~~~~~~~~~~~          ",
"          ~~~~~~~~~~Z##ooooooo3F~~z>oooooo-R~~~~~~~~~~          ",
"          ~~~~~~~~~~ioooooooo3J~~~~fooooooo9~~~~~~~~~~          ",
"          ~~~~~~~~~~Q5oooooo&J~~~~~~z##ooooh~~~~~~~~~~          ",
"          ~~~~~~~~~~~Qroooo&J~~~~~~~~F>>ooi~~~~~~~~~~~          ",
"          ~~~~~~~~~~~~~z#o-P~~~~~~~~~~R9-9Q~~~~~~~~~~~          ",
"          ~~~~~~~~~~~~~~Z3R~~~~~~~~~~~~QnQ~~~~~~~~~~~~          ",
"          ~~~~~~~~~~~~~~~~~~~~~~~~~~~~~~~~~~~~~~~~~~~~          ",
"          ~~~~~~~~~~~~~~~~~~~~~~~~~~~~~~~~~~~~~~~~~~~~          ",
"          ~~~~~~~~~~~~~~~~~~~~~~~~~~~~~~~~~~~~~~~~~~~~          ",
"          ~~~~~~~~~~~~~~~~~~~~~~~~~~~~~~~~~~~~~~~~~~~~          ",
"          J~~~~~~~~~~~~~~~~~~~~~~~~~~~~~~~~~~~~~~~~~~J          ",
"          o~~~~~~~~~~~~~~~~~~~~~~~~~~~~~~~~~~~~~~~~~~o          ",
"           #J~~~~~~~~~~~~~~~~~~~~~~~~~~~~~~~~~~~~~~J#           ",
"                                                                ",
"                                                                ",
"                                                                ",
"                                                                "
};
