/* XPM */
static char * folder_gear_xpm[] = {
"64 64 101 2 ",
"   c None",
".  c #363A4F",
"X  c #373C52",
"o  c #394157",
"O  c #3A4357",
"+  c #3A4258",
"@  c #3B4258",
"#  c #3B4459",
"$  c #3E4A5F",
"%  c #3E4960",
"&  c #3F4A61",
"*  c #414F66",
"=  c #415167",
"-  c #425067",
";  c #44556C",
":  c #44556D",
">  c #4A627A",
",  c #4B637B",
"<  c #42687B",
"1  c #456B7F",
"2  c #4E6A83",
"3  c #4F6B83",
"4  c #526F89",
"5  c #477084",
"6  c #487185",
"7  c #487388",
"8  c #497488",
"9  c #487489",
"0  c #497489",
"q  c #4C778B",
"w  c #4C788B",
"e  c #4D798C",
"r  c #4D798D",
"t  c #527089",
"y  c #55768F",
"u  c #547690",
"i  c #557790",
"p  c #597E99",
"a  c #5A7F99",
"s  c #597F9A",
"d  c #5D86A1",
"f  c #5E87A2",
"g  c #5788A1",
"h  c #548DA6",
"j  c #5F89A5",
"k  c #558FA9",
"l  c #5E94AF",
"z  c #5C9AB6",
"x  c #5C9BB7",
"c  c #5E9DB9",
"v  c #5E9DBA",
"b  c #6596B2",
"n  c #6697B4",
"m  c #6799B5",
"M  c #65A5C4",
"N  c #65A6C5",
"B  c #6BA2C0",
"V  c #6CA2C0",
"C  c #6EA7C4",
"Z  c #6EA6C5",
"A  c #6EA7C5",
"S  c #6CA9C8",
"D  c #6DAAC9",
"F  c #68AECE",
"G  c #6DAFCC",
"H  c #69B0CF",
"J  c #6EB0CD",
"K  c #6EB0CE",
"L  c #69B0D0",
"P  c #6AB0D0",
"I  c #6BB1D1",
"U  c #6CB1D1",
"Y  c #6DB1D1",
"T  c #6DB1D2",
"R  c #6CB2D2",
"E  c #6EB2D2",
"W  c #70B2D2",
"Q  c #70B3D2",
"!  c #72B3D3",
"~  c #73B4D4",
"^  c #75B7D5",
"/  c #76B7D6",
"(  c #75B8D6",
")  c #77B8D7",
"_  c #78B9D9",
"`  c #78BADA",
"'  c #79BBDA",
"]  c #78BCDB",
"[  c #79BCDB",
"{  c #79BBDC",
"}  c #7ABDDC",
"|  c #7BBFDF",
" . c #7BC0E0",
".. c #7AC1E0",
"X. c #7CC1E2",
"o. c #7DC4E4",
"O. c #A4C6E7",
"+. c #A5C6E7",
"@. c #A6C6E7",
"#. c #C4D1F3",
"$. c #CAD3F5",
/* pixels */
"                                                                                                                                ",
"                                                                                                                                ",
"                                                                                                                                ",
"                                                                                                                                ",
"                                                                                                                                ",
"                                                                                                                                ",
"                                                                                                                                ",
"          0 S ~ ~ ~ ~ ~ ~ ~ ~ ~ ~ ~ ~ ~ ~ ~ S g                                                                                 ",
"        0 R H L L L L L L L L L L L L L L L L R Q <                                                                             ",
"        N L L L L L L L L L L L L L L L L L L L L R 6                                                                           ",
"        H L L L L L L L L L L L L L L L L L L L L L R 1                                                                         ",
"        L L L L L L L L L L L L L L L L L L L L L L L R 5                                                                       ",
"        L L L L L L L L L L L L L L L L L L L L L L L L R l                                                                     ",
"        L L L L L L L L L L L L L L L L L L L L L L L L L L Q Q ~ ~ ~ ~ ~ ~ ~ ~ ~ ~ ~ ~ ~ ~ ~ ~ ~ ~ ~ ~ ~ ~ ~ ~ ~ S 0           ",
"        L L L L L L L L L L L L L L L L L L L L L L L L L L L L L L L L L L L L L L L L L L L L L L L L L L L L L H R 7         ",
"        L L L L L L L L L L L L L L L L L L L L L L L L L L L L L L L L L L L L L L L L L L L L L L L L L L L L L L L N         ",
"        L L L L R +.#.$.$.$.$.$.$.$.$.$.$.$.$.$.$.$.$.$.$.$.$.$.$.$.$.$.$.$.$.$.$.$.$.$.$.$.$.$.$.$.$.$.$.#.+.R L L L L         ",
"        L L L L +.$.$.$.$.$.$.$.$.$.$.$.$.$.$.$.$.$.$.$.$.$.$.$.$.$.$.$.$.$.$.$.$.$.$.$.$.$.$.$.$.$.$.$.$.$.$.+.L L L L         ",
"        L L L L #.$.$.$.$.$.$.$.$.$.$.$.$.$.$.$.$.$.$.$.$.$.$.$.$.$.$.$.$.$.$.$.$.$.$.$.$.$.$.$.$.$.$.$.$.$.$.#.L L L L         ",
"        L L L L $.$.$.$.$.$.$.$.$.$.$.$.$.$.$.$.$.$.$.$.$.$.$.$.$.$.$.$.$.$.$.$.$.$.$.$.$.$.$.$.$.$.$.$.$.$.$.$.L L L L         ",
"        F z k h $.$.$.$.$.$.$.$.$.$.$.$.$.$.$.$.$.$.$.$.$.$.$.$.$.$.$.$.$.$.$.$.$.$.$.$.$.$.$.$.$.$.$.$.$.$.$.$.h k z F         ",
"        c G ..o.o.o.o.o.o.o.o.o.o.o.o.o.o.o.o.o.o.o.o.o.o.o.o.o.o.o.o.o.o.o.o.o.o.o.o.o.o.o.o.o.o.o.o.o.o.o.o.o.o...G c         ",
"        K o.o.o.o.o.o.o.o.o.o.o.o.o.o.o.o.o.o.o.o.o.o.o.o.o.o.o.o.o.o.o.o.o.o.o.o.o.o.o.o.o.o.o.o.o.o.o.o.o.o.o.o.o.o.K         ",
"        ..o.o.o.o.o.o.o.o.o.o.o.o.o.o.o.o.o.o.o.o.o.o.o.o.o.o.o.o.o.o.o.o.o.o.o.o.o.o.o.o.o.o.o.o.o.o.o.o.o.o.o.o.o.o...        ",
"        o.o.o.o.o.o.o.o.o.o.o.o.o.o.o.o.o.o.o.o.o.o.o.o.o.o.o.o.o.o.o.o.o.o.o.o.o.o.o.o.o.o.o.o.o.o.o.o.o.o.o.o.o.o.o.o.        ",
"        o.o.o.o.o.o.o.o.o.o.o.o.o.o.o.o.o.o.o.o.o.o.o.o.o.o.o.o.o.o.o.o.o.o.o.o.o.o.o.o.o.o.o.o.o.o.o.o.o.o.o.o.o.o.o.o.        ",
"        o.o.o.o.o.o.o.o.o.o.o.o.o.o.o.o.o.o.o.o.o.o.o.o.o.o.o.o.o.o.o.o.o.o.o.o.o.o.o.o.o.o.o.o.o.o.o.o.o.o.o.o.o.o.o.o.        ",
"        o.o.o.o.o.o.o.o.o.o.o.o.o.o.o.o.o.o.o.o.o.o.o.o.o.o.o.o.o.o.o.o.o.o.o.o.o.o.o.o.o.o.o.o.o.o.o.o.o.o.o.o.o.o.o.o.        ",
"        o.o.o.o.o.o.o.o.o.o.o.o.o.o.o.o.o.o.o.o.o.o.o.o.o.o.o.o.o.o.o.o.o.o.o.o.o.o.o.o.o.o.o.o.o.o.o.o.o.o.o.o.o.o.o.o.        ",
"        o.o.o.o.o.o.o.o.o.o.o.o.o.o.o.o.o.o.o.o.o.o.o.o.o.y . . . . u o.o.o.o.o.o.o.o.o.o.o.o.o.o.o.o.o.o.o.o.o.o.o.o.o.        ",
"        o.o.o.o.o.o.o.o.o.o.o.o.o.o.o.o.o.o.o.o.o.o.o.o.o.2 . . . . 2 o.o.o.o.o.o.o.o.o.o.o.o.o.o.o.o.o.o.o.o.o.o.o.o.o.        ",
"        o.o.o.o.o.o.o.o.o.o.o.o.o.o.o.o.o.o.o.o.| o.o.o.' : . . . . : ] o.o.o.| o.o.o.o.o.o.o.o.o.o.o.o.o.o.o.o.o.o.o.o.        ",
"        o.o.o.o.o.o.o.o.o.o.o.o.o.o.o.o.o.o.o.X.- > V j o . . . . . . o j B > - X.o.o.o.o.o.o.o.o.o.o.o.o.o.o.o.o.o.o.o.        ",
"        o.o.o.o.o.o.o.o.o.o.o.o.o.o.o.o.o.o.o.d . . . . . . . . . . . . . . . . d o.o.o.o.o.o.o.o.o.o.o.o.o.o.o.o.o.o.o.        ",
"        o.o.o.o.o.o.o.o.o.o.o.o.o.o.o.o.o.o.( o . . . . . . . . . . . . . . . . o ^ o.o.o.o.o.o.o.o.o.o.o.o.o.o.o.o.o.o.        ",
"        o.o.o.o.o.o.o.o.o.o.o.o.o.o.o.o.o.o.4 . . . . . . % n | | m * . . . . . . t o.o.o.o.o.o.o.o.o.o.o.o.o.o.o.o.o.o.        ",
"        o.o.o.o.o.o.o.o.o.o.o.o.o.o.o.o.o.o.a X . . . . % ' o.o.o.o.' % . . . . X a o.o.o.o.o.o.o.o.o.o.o.o.o.o.o.o.o.o.        ",
"        o.o.o.o.o.o.o.o.o.o.o.o.o.o.o.o.o.o.o.A # . . . n o.o.o.o.o.o.b . . . # A o.o.o.o.o.o.o.o.o.o.o.o.o.o.o.o.o.o.o.        ",
"        o.o.o.o.o.o.o.o.o.o.o.o.o.o.o.o.o.o.o.o.% . . . | o.o.o.o.o.o.] . . . % o.o.o.o.o.o.o.o.o.o.o.o.o.o.o.o.o.o.o.o.        ",
"        o.o.o.o.o.o.o.o.o.o.o.o.o.o.o.o.o.o.o.o.% . . . | o.o.o.o.o.o.{ . . . % o.o.o.o.o.o.o.o.o.o.o.o.o.o.o.o.o.o.o.o.        ",
"        o.o.o.o.o.o.o.o.o.o.o.o.o.o.o.o.o.o.o.A # . . . m o.o.o.o.o.o.b . . . # A o.o.o.o.o.o.o.o.o.o.o.o.o.o.o.o.o.o.o.        ",
"        o.o.o.o.o.o.o.o.o.o.o.o.o.o.o.o.o.o.a X . . . . * ' o.o.o.o.' $ . . . . X a o.o.o.o.o.o.o.o.o.o.o.o.o.o.o.o.o.o.        ",
"        o.o.o.o.o.o.o.o.o.o.o.o.o.o.o.o.o.o.4 . . . . . . % b ] ] b $ . . . . . . 4 o.o.o.o.o.o.o.o.o.o.o.o.o.o.o.o.o.o.        ",
"        o.o.o.o.o.o.o.o.o.o.o.o.o.o.o.o.o.o.( @ . . . . . . . . . . . . . . . . @ ^ o.o.o.o.o.o.o.o.o.o.o.o.o.o.o.o.o.o.        ",
"        o.o.o.o.o.o.o.o.o.o.o.o.o.o.o.o.o.o.o.d . . . . . . . . . . . . . . . . d o.o.o.o.o.o.o.o.o.o.o.o.o.o.o.o.o.o.o.        ",
"        o.o.o.o.o.o.o.o.o.o.o.o.o.o.o.o.o.o.o.X.- > B j o . . . . . . o j B > - X.o.o.o.o.o.o.o.o.o.o.o.o.o.o.o.o.o.o.o.        ",
"        o.o.o.o.o.o.o.o.o.o.o.o.o.o.o.o.o.o.o.o.| o.o.o.] : . . . . : ' o.o.o.| o.o.o.o.o.o.o.o.o.o.o.o.o.o.o.o.o.o.o.o.        ",
"        o.o.o.o.o.o.o.o.o.o.o.o.o.o.o.o.o.o.o.o.o.o.o.o.o.2 . . . . 2 o.o.o.o.o.o.o.o.o.o.o.o.o.o.o.o.o.o.o.o.o.o.o.o.o.        ",
"        o.o.o.o.o.o.o.o.o.o.o.o.o.o.o.o.o.o.o.o.o.o.o.o.o.u . . . . u o.o.o.o.o.o.o.o.o.o.o.o.o.o.o.o.o.o.o.o.o.o.o.o.o.        ",
"        o.o.o.o.o.o.o.o.o.o.o.o.o.o.o.o.o.o.o.o.o.o.o.o.o.o.o.o.o.o.o.o.o.o.o.o.o.o.o.o.o.o.o.o.o.o.o.o.o.o.o.o.o.o.o.o.        ",
"        o.o.o.o.o.o.o.o.o.o.o.o.o.o.o.o.o.o.o.o.o.o.o.o.o.o.o.o.o.o.o.o.o.o.o.o.o.o.o.o.o.o.o.o.o.o.o.o.o.o.o.o.o.o.o.o.        ",
"        o.o.o.o.o.o.o.o.o.o.o.o.o.o.o.o.o.o.o.o.o.o.o.o.o.o.o.o.o.o.o.o.o.o.o.o.o.o.o.o.o.o.o.o.o.o.o.o.o.o.o.o.o.o.o.o.        ",
"        o.o.o.o.o.o.o.o.o.o.o.o.o.o.o.o.o.o.o.o.o.o.o.o.o.o.o.o.o.o.o.o.o.o.o.o.o.o.o.o.o.o.o.o.o.o.o.o.o.o.o.o.o.o.o.o.        ",
"        o.o.o.o.o.o.o.o.o.o.o.o.o.o.o.o.o.o.o.o.o.o.o.o.o.o.o.o.o.o.o.o.o.o.o.o.o.o.o.o.o.o.o.o.o.o.o.o.o.o.o.o.o.o.o.o.        ",
"        ^ o.o.o.o.o.o.o.o.o.o.o.o.o.o.o.o.o.o.o.o.o.o.o.o.o.o.o.o.o.o.o.o.o.o.o.o.o.o.o.o.o.o.o.o.o.o.o.o.o.o.o.o.o.o.^         ",
"        r o.o.o.o.o.o.o.o.o.o.o.o.o.o.o.o.o.o.o.o.o.o.o.o.o.o.o.o.o.o.o.o.o.o.o.o.o.o.o.o.o.o.o.o.o.o.o.o.o.o.o.o.o.o.w         ",
"          r ( o.o.o.o.o.o.o.o.o.o.o.o.o.o.o.o.o.o.o.o.o.o.o.o.o.o.o.o.o.o.o.o.o.o.o.o.o.o.o.o.o.o.o.o.o.o.o.o.o.o.( q           ",
"                                                                                                                                ",
"                                                                                                                                ",
"                                                                                                                                ",
"                                                                                                                                ",
"                                                                                                                                ",
"                                                                                                                                ",
"                                                                                                                                "
};
