/* XPM */
static char * folder_mount_xpm[] = {
"64 64 106 2 ",
"   c None",
".  c #363A4F",
"X  c #363B51",
"o  c #373C50",
"O  c #373C52",
"+  c #393F56",
"@  c #394056",
"#  c #394157",
"$  c #3A4258",
"%  c #3E4A5F",
"&  c #3E4960",
"*  c #404E64",
"=  c #414E65",
"-  c #414F66",
";  c #425067",
":  c #4A6178",
">  c #4A6179",
",  c #4B6179",
"<  c #4A627A",
"1  c #42687B",
"2  c #456B7F",
"3  c #4E6881",
"4  c #506C85",
"5  c #516F88",
"6  c #526F89",
"7  c #477084",
"8  c #487185",
"9  c #487388",
"0  c #497488",
"q  c #487489",
"w  c #497489",
"e  c #4C778B",
"r  c #4C788B",
"t  c #4D798C",
"y  c #4D798D",
"u  c #527089",
"i  c #52718A",
"p  c #52728B",
"a  c #55768F",
"s  c #5788A1",
"d  c #548DA6",
"f  c #5F88A3",
"g  c #5E88A4",
"h  c #5F89A5",
"j  c #5F8AA4",
"k  c #5F8BA6",
"l  c #558FA9",
"z  c #5E94AF",
"x  c #5C9AB6",
"c  c #5C9BB7",
"v  c #5E9DB9",
"b  c #5E9DBA",
"n  c #608AA5",
"m  c #608BA7",
"M  c #6596B2",
"N  c #6697B4",
"B  c #6799B5",
"V  c #679BB7",
"C  c #689AB6",
"Z  c #689BB8",
"A  c #689DBA",
"S  c #65A5C4",
"D  c #65A6C5",
"F  c #6CA9C8",
"G  c #6DAAC9",
"H  c #68AECE",
"J  c #6DAFCC",
"K  c #69B0CF",
"L  c #6EB0CD",
"P  c #6EB0CE",
"I  c #69B0D0",
"U  c #6AB0D0",
"Y  c #6BB1D1",
"T  c #6CB1D1",
"R  c #6DB1D1",
"E  c #6DB1D2",
"W  c #6CB2D2",
"Q  c #6EB2D2",
"!  c #70B2D2",
"~  c #70B3D2",
"^  c #72B3D3",
"/  c #74B2D1",
"(  c #74B4D2",
")  c #75B5D3",
"_  c #73B4D4",
"`  c #75B4D4",
"'  c #76B5D4",
"]  c #75B7D5",
"[  c #76B6D5",
"{  c #76B7D6",
"}  c #75B8D6",
"|  c #77B9D8",
" . c #78B9D9",
".. c #78BADA",
"X. c #79BBDA",
"o. c #79BCDB",
"O. c #79BBDC",
"+. c #7ABDDC",
"@. c #7BC0E0",
"#. c #7AC1E0",
"$. c #7DC4E4",
"%. c #A4C6E7",
"&. c #A5C6E7",
"*. c #A6C6E7",
"=. c #C4D1F3",
"-. c #CAD3F5",
/* pixels */
"                                                                                                                                ",
"                                                                                                                                ",
"                                                                                                                                ",
"                                                                                                                                ",
"                                                                                                                                ",
"                                                                                                                                ",
"                                                                                                                                ",
"          w F _ _ _ _ _ _ _ _ _ _ _ _ _ _ _ F s                                                                                 ",
"        w W K I I I I I I I I I I I I I I I I W ~ 1                                                                             ",
"        D I I I I I I I I I I I I I I I I I I I I W 8                                                                           ",
"        K I I I I I I I I I I I I I I I I I I I I I W 2                                                                         ",
"        I I I I I I I I I I I I I I I I I I I I I I I W 7                                                                       ",
"        I I I I I I I I I I I I I I I I I I I I I I I I W z                                                                     ",
"        I I I I I I I I I I I I I I I I I I I I I I I I I I ~ ~ _ _ _ _ _ _ _ _ _ _ _ _ _ _ _ _ _ _ _ _ _ _ _ _ _ F w           ",
"        I I I I I I I I I I I I I I I I I I I I I I I I I I I I I I I I I I I I I I I I I I I I I I I I I I I I I K W 9         ",
"        I I I I I I I I I I I I I I I I I I I I I I I I I I I I I I I I I I I I I I I I I I I I I I I I I I I I I I I D         ",
"        I I I I W &.=.-.-.-.-.-.-.-.-.-.-.-.-.-.-.-.-.-.-.-.-.-.-.-.-.-.-.-.-.-.-.-.-.-.-.-.-.-.-.-.-.-.-.=.&.W I I I I         ",
"        I I I I &.-.-.-.-.-.-.-.-.-.-.-.-.-.-.-.-.-.-.-.-.-.-.-.-.-.-.-.-.-.-.-.-.-.-.-.-.-.-.-.-.-.-.-.-.-.-.&.I I I I         ",
"        I I I I =.-.-.-.-.-.-.-.-.-.-.-.-.-.-.-.-.-.-.-.-.-.-.-.-.-.-.-.-.-.-.-.-.-.-.-.-.-.-.-.-.-.-.-.-.-.-.=.I I I I         ",
"        I I I I -.-.-.-.-.-.-.-.-.-.-.-.-.-.-.-.-.-.-.-.-.-.-.-.-.-.-.-.-.-.-.-.-.-.-.-.-.-.-.-.-.-.-.-.-.-.-.-.I I I I         ",
"        H x l d -.-.-.-.-.-.-.-.-.-.-.-.-.-.-.-.-.-.-.-.-.-.-.-.-.-.-.-.-.-.-.-.-.-.-.-.-.-.-.-.-.-.-.-.-.-.-.-.d l x H         ",
"        v J #.$.$.$.$.$.$.$.$.$.$.$.$.$.$.$.$.$.$.$.$.$.$.$.$.$.$.$.$.$.$.$.$.$.$.$.$.$.$.$.$.$.$.$.$.$.$.$.$.$.$.#.J v         ",
"        P $.$.$.$.$.$.$.$.$.$.$.$.$.$.$.$.$.$.$.$.$.$.$.$.$.$.$.$.$.$.$.$.$.$.$.$.$.$.$.$.$.$.$.$.$.$.$.$.$.$.$.$.$.$.P         ",
"        #.$.$.$.$.$.$.$.$.$.$.$.$.$.$.$.$.$.$.$.$.$.$.$.$.$.$.$.$.$.$.$.$.$.$.$.$.$.$.$.$.$.$.$.$.$.$.$.$.$.$.$.$.$.$.#.        ",
"        $.$.$.$.$.$.$.$.$.$.$.$.$.$.$.$.$.$.$.$.$.$.$.$.$.$.$.$.$.$.$.$.$.$.$.$.$.$.$.$.$.$.$.$.$.$.$.$.$.$.$.$.$.$.$.$.        ",
"        $.$.$.$.$.$.$.$.$.$.$.$.$.$.$.$.$.$.$.$.$.$.$.$.$.$.$.$.$.$.$.$.$.$.$.$.$.$.$.$.$.$.$.$.$.$.$.$.$.$.$.$.$.$.$.$.        ",
"        $.$.$.$.$.$.$.$.$.$.$.$.$.$.$.$.$.$.$.$.$.$.$.$.$.$.$.$.$.$.$.$.$.$.$.$.$.$.$.$.$.$.$.$.$.$.$.$.$.$.$.$.$.$.$.$.        ",
"        $.$.$.$.$.$.$.$.$.$.$.$.$.$.$.$.$.$.$.$.$.$.$.( h : - + + - : h ( $.$.$.$.$.$.$.$.$.$.$.$.$.$.$.$.$.$.$.$.$.$.$.        ",
"        $.$.$.$.$.$.$.$.$.$.$.$.$.$.$.$.$.$.$.$.$.' i X . . . . . . . . o 3 / $.$.$.$.$.$.$.$.$.$.$.$.$.$.$.$.$.$.$.$.$.        ",
"        $.$.$.$.$.$.$.$.$.$.$.$.$.$.$.$.$.$.$.$.B @ . . . . . . . . . . . . @ C $.$.$.$.$.$.$.$.$.$.$.$.$.$.$.$.$.$.$.$.        ",
"        $.$.$.$.$.$.$.$.$.$.$.$.$.$.$.$.$.$.$.f o . . . . . . . . . . . . . . o h $.$.$.$.$.$.$.$.$.$.$.$.$.$.$.$.$.$.$.        ",
"        $.$.$.$.$.$.$.$.$.$.$.$.$.$.$.$.$.$.B o . . . . . . . . . . . . . . . . o C $.$.$.$.$.$.$.$.$.$.$.$.$.$.$.$.$.$.        ",
"        $.$.$.$.$.$.$.$.$.$.$.$.$.$.$.$.$.' @ . . . . . . . . . . . . . . . . . . @ ' $.$.$.$.$.$.$.$.$.$.$.$.$.$.$.$.$.        ",
"        $.$.$.$.$.$.$.$.$.$.$.$.$.$.$.$.$.6 . . . . . . . . . . . . . . . . . . . . i $.$.$.$.$.$.$.$.$.$.$.$.$.$.$.$.$.        ",
"        $.$.$.$.$.$.$.$.$.$.$.$.$.$.$.$.( X . . . . . . . . . . . . . . . . . . . . X ' $.$.$.$.$.$.$.$.$.$.$.$.$.$.$.$.        ",
"        $.$.$.$.$.$.$.$.$.$.$.$.$.$.$.$.h . . . . . . . . & N +.+.B - . . . . . . . . n $.$.$.$.$.$.$.$.$.$.$.$.$.$.$.$.        ",
"        $.$.$.$.$.$.$.$.$.$.$.$.$.$.$.$.: . . . . . . . & X.$.$.$.$.X.& . . . . . . . : $.$.$.$.$.$.$.$.$.$.$.$.$.$.$.$.        ",
"        $.$.$.$.$.$.$.$.$.$.$.$.$.$.$.$.- . . . . . . . N $.$.$.$.$.$.M . . . . . . . - $.$.$.$.$.$.$.$.$.$.$.$.$.$.$.$.        ",
"        $.$.$.$.$.$.$.$.$.$.$.$.$.$.$.$.@ . . . . . . . +.$.$.$.$.$.$.o.. . . . . . . @ $.$.$.$.$.$.$.$.$.$.$.$.$.$.$.$.        ",
"        $.$.$.$.$.$.$.$.$.$.$.$.$.$.$.$.@ . . . . . . . +.$.$.$.$.$.$.O.. . . . . . . $ $.$.$.$.$.$.$.$.$.$.$.$.$.$.$.$.        ",
"        $.$.$.$.$.$.$.$.$.$.$.$.$.$.$.$.- . . . . . . . B $.$.$.$.$.$.M . . . . . . . ; $.$.$.$.$.$.$.$.$.$.$.$.$.$.$.$.        ",
"        $.$.$.$.$.$.$.$.$.$.$.$.$.$.$.$.: . . . . . . . - X.$.$.$.$.X.% . . . . . . . : $.$.$.$.$.$.$.$.$.$.$.$.$.$.$.$.        ",
"        $.$.$.$.$.$.$.$.$.$.$.$.$.$.$.$.h . . . . . . . . & M o.o.M % . . . . . . . . n $.$.$.$.$.$.$.$.$.$.$.$.$.$.$.$.        ",
"        $.$.$.$.$.$.$.$.$.$.$.$.$.$.$.$.( X . . . . . . . . . . . . . . . . . . . . o ' $.$.$.$.$.$.$.$.$.$.$.$.$.$.$.$.        ",
"        $.$.$.$.$.$.$.$.$.$.$.$.$.$.$.$.$.6 . . . . . . . . . . . . . . . . . . . . i $.$.$.$.$.$.$.$.$.$.$.$.$.$.$.$.$.        ",
"        $.$.$.$.$.$.$.$.$.$.$.$.$.$.$.$.$.' @ . . . . . . . . . . . . . . . . . . $ ' $.$.$.$.$.$.$.$.$.$.$.$.$.$.$.$.$.        ",
"        $.$.$.$.$.$.$.$.$.$.$.$.$.$.$.$.$.$.A X . . . . . . . . . . . . . . . . o B $.$.$.$.$.$.$.$.$.$.$.$.$.$.$.$.$.$.        ",
"        $.$.$.$.$.$.$.$.$.$.$.$.$.$.$.$.$.$.$.h o . . . . . . . . . . . . . . o h $.$.$.$.$.$.$.$.$.$.$.$.$.$.$.$.$.$.$.        ",
"        $.$.$.$.$.$.$.$.$.$.$.$.$.$.$.$.$.$.$.$.C @ . . . . . . . . . . . . $ Z $.$.$.$.$.$.$.$.$.$.$.$.$.$.$.$.$.$.$.$.        ",
"        $.$.$.$.$.$.$.$.$.$.$.$.$.$.$.$.$.$.$.$.$.| a o . . . . . . . . o 4 ' $.$.$.$.$.$.$.$.$.$.$.$.$.$.$.$.$.$.$.$.$.        ",
"        $.$.$.$.$.$.$.$.$.$.$.$.$.$.$.$.$.$.$.$.$.$.$.' n : ; @ @ ; : h ' $.$.$.$.$.$.$.$.$.$.$.$.$.$.$.$.$.$.$.$.$.$.$.        ",
"        $.$.$.$.$.$.$.$.$.$.$.$.$.$.$.$.$.$.$.$.$.$.$.$.$.$.$.$.$.$.$.$.$.$.$.$.$.$.$.$.$.$.$.$.$.$.$.$.$.$.$.$.$.$.$.$.        ",
"        $.$.$.$.$.$.$.$.$.$.$.$.$.$.$.$.$.$.$.$.$.$.$.$.$.$.$.$.$.$.$.$.$.$.$.$.$.$.$.$.$.$.$.$.$.$.$.$.$.$.$.$.$.$.$.$.        ",
"        $.$.$.$.$.$.$.$.$.$.$.$.$.$.$.$.$.$.$.$.$.$.$.$.$.$.$.$.$.$.$.$.$.$.$.$.$.$.$.$.$.$.$.$.$.$.$.$.$.$.$.$.$.$.$.$.        ",
"        ' $.$.$.$.$.$.$.$.$.$.$.$.$.$.$.$.$.$.$.$.$.$.$.$.$.$.$.$.$.$.$.$.$.$.$.$.$.$.$.$.$.$.$.$.$.$.$.$.$.$.$.$.$.$.'         ",
"        y $.$.$.$.$.$.$.$.$.$.$.$.$.$.$.$.$.$.$.$.$.$.$.$.$.$.$.$.$.$.$.$.$.$.$.$.$.$.$.$.$.$.$.$.$.$.$.$.$.$.$.$.$.$.r         ",
"          y } $.$.$.$.$.$.$.$.$.$.$.$.$.$.$.$.$.$.$.$.$.$.$.$.$.$.$.$.$.$.$.$.$.$.$.$.$.$.$.$.$.$.$.$.$.$.$.$.$.$.} e           ",
"                                                                                                                                ",
"                                                                                                                                ",
"                                                                                                                                ",
"                                                                                                                                ",
"                                                                                                                                ",
"                                                                                                                                ",
"                                                                                                                                "
};
