/* XPM */
static char * x_xpm[] = {
"64 64 173 2 ",
"   c None",
".  c gray49",
"X  c #FF6600",
"o  c #FF6701",
"O  c #FF6702",
"+  c #FE6703",
"@  c #FF6803",
"#  c #FE6804",
"$  c #FE6906",
"%  c #FD6A08",
"&  c #FD6B09",
"*  c #FE6B09",
"=  c #FC6B0A",
"-  c #FD6B0A",
";  c #FC6C0C",
":  c #FB6F12",
">  c #FA6F13",
",  c #FC6F11",
"<  c #FB7013",
"1  c #FA7014",
"2  c #FB7216",
"3  c #FA7217",
"4  c #FC7114",
"5  c #FB751B",
"6  c #FC751B",
"7  c #F8741C",
"8  c #FA751D",
"9  c #F77721",
"0  c #F77722",
"q  c #FA7821",
"w  c #FB7A24",
"e  c #FB7B25",
"r  c #FA7B27",
"t  c #F47C2C",
"y  c #F47D2E",
"u  c #F47E2F",
"i  c #F87C29",
"p  c #FA7D29",
"a  c #F97D2B",
"s  c #FA7E2B",
"d  c #F97F2E",
"f  c #F87F2F",
"g  c #F37F31",
"h  c #F98030",
"j  c #F98233",
"k  c #F88335",
"l  c #F88436",
"z  c #F0853E",
"x  c #F0863F",
"c  c #EF8742",
"v  c #EE8A48",
"b  c #EE8B49",
"n  c #ED8C4B",
"m  c #F68A42",
"M  c #F28B47",
"N  c #F68C45",
"B  c #F58F4B",
"V  c #F18E4C",
"C  c #EB8F52",
"Z  c #EB9054",
"A  c #EB9257",
"S  c #F59250",
"D  c #F59453",
"F  c #E89660",
"G  c #E69A67",
"H  c #E89862",
"J  c #E79B69",
"K  c #E59D6D",
"L  c #F39C62",
"P  c #E49E70",
"I  c #F3A068",
"U  c #F2A069",
"Y  c #F3A069",
"T  c #F2A26D",
"R  c #F2A36E",
"E  c #E4A072",
"W  c #E4A175",
"Q  c #F0A776",
"!  c #F0AB7D",
"~  c gray52",
"^  c gray55",
"/  c #8E8E8E",
"(  c gray56",
")  c #909090",
"_  c #9D9D9D",
"`  c #9F9F9F",
"'  c #B6B6B6",
"]  c gray72",
"[  c #DEAD8C",
"{  c #DEAE8E",
"}  c #DCB397",
"|  c #DAB59D",
" . c #DCB79F",
".. c #E0A883",
"X. c #EFB188",
"o. c #EEB38B",
"O. c #EEB38C",
"+. c #EDB894",
"@. c #D9B8A2",
"#. c #D8BBA7",
"$. c #D6BCAA",
"%. c #D8BDAB",
"&. c #DEBEA8",
"*. c #DFBFA9",
"=. c #D4C3B7",
"-. c #D7C3B6",
";. c #DCC4B4",
":. c #D7C4B8",
">. c #ECC0A2",
",. c #EBC1A5",
"<. c #EBC5AC",
"1. c #EAC8B1",
"2. c #E9CDBB",
"3. c #C6C6C6",
"4. c #CBCBCB",
"5. c #CDCDCD",
"6. c gray81",
"7. c #D6CBC4",
"8. c #D5CCC6",
"9. c #D6CDC7",
"0. c #DBCBC1",
"q. c #D8CBC3",
"w. c #DACCC2",
"e. c #DCCFC6",
"r. c #D9CFC9",
"t. c #D5D0CC",
"y. c #D7D0CC",
"u. c #DBD0C9",
"i. c #DDD0C8",
"p. c #D0D0D0",
"a. c LightGray",
"s. c #D5D5D5",
"d. c #D7D5D4",
"f. c gray84",
"g. c #D7D7D7",
"h. c #DAD6D3",
"j. c #D9D6D4",
"k. c gray85",
"l. c #DAD9D9",
"z. c #DADADA",
"x. c gainsboro",
"c. c #DDDDDD",
"v. c gray87",
"b. c #DFDFDF",
"n. c #E7D3C6",
"m. c #E8D1C2",
"M. c #E7D7CD",
"N. c #E6D9D1",
"B. c #E6DAD2",
"V. c #E6DBD3",
"C. c #E6DBD4",
"Z. c #E6DCD5",
"A. c #E5DDD7",
"S. c #E6DDD7",
"D. c #E5DDD8",
"F. c #E5DEDA",
"G. c #E5DFDB",
"H. c #E3DFDC",
"J. c #E5E0DD",
"K. c gray88",
"L. c #E1E1E1",
"P. c #E2E2E2",
"I. c gray89",
"U. c #E5E2E0",
"Y. c #E4E2E1",
"T. c #E4E3E2",
"R. c #E4E3E3",
"E. c #E4E4E4",
"W. c gray90",
"Q. c #E6E6E6",
"!. c #E9E9E9",
"~. c gray97",
"^. c gray98",
/* pixels */
"                                                                                                                                ",
"                                                                                                                                ",
"                                                                                                                                ",
"                                                                                                                                ",
"                      _ b.!.!.!.!.!.!.!.!.!.!.!.!.!.!.!.!.!.!.!.!.!.!.!.!.!.(                                                   ",
"                    _ E.E.E.E.E.E.E.E.E.E.E.E.E.E.E.E.E.E.E.E.E.E.E.E.E.E.E.^.~                                                 ",
"                    k.E.E.E.E.E.E.E.E.E.E.E.E.E.E.E.E.E.E.E.E.E.E.E.E.E.E.E.^.^.~                                               ",
"                    E.E.E.E.E.E.E.E.E.E.E.E.E.E.E.E.E.E.E.E.E.E.E.E.E.E.E.E.^.^.^.~                                             ",
"                    E.E.E.E.E.E.E.E.E.E.E.E.E.E.E.E.E.E.E.E.E.E.E.E.E.E.E.E.^.^.^.^.~                                           ",
"                    E.E.E.E.E.E.E.E.E.E.E.E.E.E.E.E.E.E.E.E.E.E.E.E.E.E.E.E.^.^.^.^.^.~                                         ",
"                    E.E.E.E.E.E.E.E.E.E.E.E.E.E.E.E.E.E.E.E.E.E.E.E.E.E.E.E.^.^.^.^.^.^.~                                       ",
"                    E.E.E.E.E.E.E.E.E.E.E.E.E.E.E.E.E.E.E.E.E.E.E.E.E.E.E.E.^.^.^.^.^.^.^.~                                     ",
"                    E.E.E.E.E.E.E.E.E.E.E.E.E.E.E.E.E.E.E.E.E.E.E.E.E.E.E.E.^.^.^.^.^.^.^.^.~                                   ",
"                    E.E.E.E.E.E.E.E.E.E.E.E.E.E.E.E.E.E.E.E.E.E.E.E.E.E.E.E.^.^.^.^.^.^.^.^.^.~                                 ",
"                    E.E.E.E.E.E.E.E.E.E.E.E.E.E.E.E.E.E.E.E.E.E.E.E.E.E.E.E.^.^.^.^.^.^.^.^.^.^.~                               ",
"                    E.E.E.E.E.E.E.E.E.E.E.E.E.E.E.E.E.E.E.E.E.E.E.E.E.E.E.E.^.^.^.^.^.^.^.^.^.^.^.~                             ",
"                    E.E.E.E.E.E.E.E.E.E.E.E.E.E.E.E.E.E.E.E.E.E.E.E.E.E.E.E.^.^.^.^.^.^.^.^.^.^.^.^.~                           ",
"                    E.E.E.E.E.E.E.E.E.E.E.E.E.E.E.E.E.E.E.E.E.E.E.E.E.E.E.E.~.^.^.^.^.^.^.^.^.^.^.^.^..                         ",
"                    E.E.E.E.E.E.E.E.E.E.E.E.E.E.E.E.E.E.E.E.E.E.E.E.E.E.E.E.E.^.^.^.^.^.^.^.^.^.^.^.^.^..                       ",
"                    E.E.E.E.E.E.E.E.E.E.E.E.E.E.E.E.E.E.E.E.E.E.E.E.E.E.E.E.4.E.~.^.^.^.^.^.^.^.^.^.^.^.^.(                     ",
"                    E.E.E.E.E.E.E.E.E.E.E.E.E.E.E.E.E.E.E.E.E.E.E.E.E.E.E.E.L.3.] ' ' ' ' ' ' ' ' ' ' ' ' 6.                    ",
"                    E.E.E.E.E.E.E.E.E.E.E.E.E.E.E.E.E.E.E.E.E.E.E.E.E.E.E.E.E.E.E.E.E.E.E.E.E.E.E.E.E.E.E.E.                    ",
"                    E.E.E.E.E.E.E.E.E.E.E.E.E.E.E.E.E.E.E.E.E.E.E.E.E.E.E.E.E.E.E.E.E.E.E.E.E.E.E.E.E.E.E.E.                    ",
"                    E.E.E.E.E.E.E.E.E.E.E.E.E.E.E.E.E.E.E.E.E.E.E.E.E.E.E.E.E.E.E.E.E.E.E.E.E.E.E.E.E.E.E.E.                    ",
"                    E.E.E.E.E.E.E.E.E.E.E.E.E.E.E.E.E.E.E.E.E.E.E.E.E.E.E.E.E.E.E.E.E.E.E.E.E.E.E.E.E.E.E.E.                    ",
"                    E.E.E.E.E.E.E.E.E.E.E.E.E.E.E.E.E.E.E.E.E.E.E.E.E.E.E.E.E.E.E.E.E.E.E.E.E.E.E.E.E.E.E.E.                    ",
"                    E.E.E.E.E.E.E.E.E.E.E.E.S.L e e X.E.E.E.E.E.E.E.E.E.E.E.C.U 6 % T E.E.E.E.E.E.E.E.E.E.E.                    ",
"                    E.E.E.E.E.E.E.E.E.E.E.E.D X X X X ! E.E.E.E.E.E.E.E.E.n.5 X X X M E.E.E.E.E.E.E.E.E.E.E.                    ",
"                    E.E.E.E.E.E.E.E.E.E.E.E.V X X X X X ,.E.E.E.E.E.E.E.T.l X X X X *.E.E.E.E.E.E.E.E.E.E.E.                    ",
"                    E.E.E.E.E.E.E.E.E.E.E.E.r.0 X X X X , M.E.E.E.E.E.E.+.X X X X F L.E.E.E.E.E.E.E.E.E.E.E.                    ",
"                    E.E.E.E.E.E.E.E.E.E.E.E.L.-.: X X X X m E.E.E.E.E.V.3 X X X g j.E.E.E.E.E.E.E.E.E.E.E.E.                    ",
"                    E.E.E.E.E.E.E.E.E.E.E.E.E.L.@.$ X X X X O.E.E.E.E.B X X X 0 7.E.E.E.E.E.E.E.E.E.E.E.E.E.                    ",
"                    E.E.E.E.E.E.E.E.E.E.E.E.E.E.L.W X X X X % m.E.E.! X X X 3 :.L.E.E.E.E.E.E.E.E.E.E.E.E.E.                    ",
"                    E.E.E.E.E.E.E.E.E.E.E.E.E.E.E.k.x X X X X f T.>.@ X X % #.L.E.E.E.E.E.E.E.E.E.E.E.E.E.E.                    ",
"                    E.E.E.E.E.E.E.E.E.E.E.E.E.E.E.E.0.: X X X X S % X X $ } L.E.E.E.E.E.E.E.E.E.E.E.E.E.E.E.                    ",
"                    E.E.E.E.E.E.E.E.E.E.E.E.E.E.E.E.L.{ X X X X X X X X ..b.E.E.E.E.E.E.E.E.E.E.E.E.E.E.E.E.                    ",
"                    E.E.E.E.E.E.E.E.E.E.E.E.E.E.E.E.E.b.b X X X X X X P b.E.E.E.E.E.E.E.E.E.E.E.E.E.E.E.E.E.                    ",
"                    E.E.E.E.E.E.E.E.E.E.E.E.E.E.E.E.E.E.w.% X X X X < i.E.E.E.E.E.E.E.E.E.E.E.E.E.E.E.E.E.E.                    ",
"                    E.E.E.E.E.E.E.E.E.E.E.E.E.E.E.E.E.E.H.7 X X X X X e V.E.E.E.E.E.E.E.E.E.E.E.E.E.E.E.E.E.                    ",
"                    E.E.E.E.E.E.E.E.E.E.E.E.E.E.E.E.E.E.U X X X X X X X i V.E.E.E.E.E.E.E.E.E.E.E.E.E.E.E.E.                    ",
"                    E.E.E.E.E.E.E.E.E.E.E.E.E.E.E.E.E.1.@ X X 3 % X X X X i S.E.E.E.E.E.E.E.E.E.E.E.E.E.E.E.                    ",
"                    E.E.E.E.E.E.E.E.E.E.E.E.E.E.E.E.G.q X X X | { X X X X X i C.E.E.E.E.E.E.E.E.E.E.E.E.E.E.                    ",
"                    E.E.E.E.E.E.E.E.E.E.E.E.E.E.E.E.L X X X G b.b.K X X X X X j S.E.E.E.E.E.E.E.E.E.E.E.E.E.                    ",
"                    E.E.E.E.E.E.E.E.E.E.E.E.E.E.E.<.X X X 0 h.E.E.k.A X X X X X j G.E.E.E.E.E.E.E.E.E.E.E.E.                    ",
"                    E.E.E.E.E.E.E.E.E.E.E.E.E.E.J.q X X X  .L.E.E.E.f.x X X X X X k G.E.E.E.E.E.E.E.E.E.E.E.                    ",
"                    E.E.E.E.E.E.E.E.E.E.E.E.E.E.T X X X c b.E.E.E.E.E.y.y X X X X X N T.E.E.E.E.E.E.E.E.E.E.                    ",
"                    E.E.E.E.E.E.E.E.E.E.E.E.E.2.$ X X X ;.E.E.E.E.E.E.L.8.y X X X X X U E.E.E.E.E.E.E.E.E.E.                    ",
"                    E.E.E.E.E.E.E.E.E.E.E.E.T.f X X X C L.E.E.E.E.E.E.E.L.8.y X X X X 7 E.E.E.E.E.E.E.E.E.E.                    ",
"                    E.E.E.E.E.E.E.E.E.E.E.E.X.X X X % 0.E.E.E.E.E.E.E.E.E.L.y.b X X y %.E.E.E.E.E.E.E.E.E.E.                    ",
"                    E.E.E.E.E.E.E.E.E.E.E.S.4 X X X H L.E.E.E.E.E.E.E.E.E.E.L.f.$.-.p.L.E.E.E.E.E.E.E.E.E.E.                    ",
"                    E.E.E.E.E.E.E.E.E.E.E.U X X X ; u.E.E.E.E.E.E.E.E.E.E.E.E.E.L.L.E.E.E.E.E.E.E.E.E.E.E.E.                    ",
"                    E.E.E.E.E.E.E.E.E.E.V.% X X X J L.E.E.E.E.E.E.E.E.E.E.E.E.E.E.E.E.E.E.E.E.E.E.E.E.E.E.E.                    ",
"                    E.E.E.E.E.E.E.E.E.E.Q X X X $ e.E.E.E.E.E.E.E.E.E.E.E.E.E.E.E.E.E.E.E.E.E.E.E.E.E.E.E.E.                    ",
"                    E.E.E.E.E.E.E.E.E.E.i X X X n L.E.E.E.E.E.E.E.E.E.E.E.E.E.E.E.E.E.E.E.E.E.E.E.E.E.E.E.E.                    ",
"                    E.E.E.E.E.E.E.E.E.E.% X X X *.E.E.E.E.E.E.E.E.E.E.E.E.E.E.E.E.E.E.E.E.E.E.E.E.E.E.E.E.E.                    ",
"                    E.E.E.E.E.E.E.E.E.E.A % 3 E L.E.E.E.E.E.E.E.E.E.E.E.E.E.E.E.E.E.E.E.E.E.E.E.E.E.E.E.E.E.                    ",
"                    E.E.E.E.E.E.E.E.E.E.f.6.p.k.E.E.E.E.E.E.E.E.E.E.E.E.E.E.E.E.E.E.E.E.E.E.E.E.E.E.E.E.E.E.                    ",
"                    f.E.E.E.E.E.E.E.E.E.E.E.E.E.E.E.E.E.E.E.E.E.E.E.E.E.E.E.E.E.E.E.E.E.E.E.E.E.E.E.E.E.E.f.                    ",
"                    ( E.E.E.E.E.E.E.E.E.E.E.E.E.E.E.E.E.E.E.E.E.E.E.E.E.E.E.E.E.E.E.E.E.E.E.E.E.E.E.E.E.E.(                     ",
"                      ) f.E.E.E.E.E.E.E.E.E.E.E.E.E.E.E.E.E.E.E.E.E.E.E.E.E.E.E.E.E.E.E.E.E.E.E.E.E.E.f.)                       ",
"                                                                                                                                ",
"                                                                                                                                ",
"                                                                                                                                ",
"                                                                                                                                "
};
