/* XPM */
static char * file_gear_xpm[] = {
"64 64 178 2 ",
"   c None",
".  c #1B2428",
"X  c #1F292D",
"o  c #20292E",
"O  c #232E33",
"+  c #253136",
"@  c #263137",
"#  c #263237",
"$  c #273338",
"%  c #283439",
"&  c #28343A",
"*  c #29353B",
"=  c #2B353A",
"-  c #29363C",
";  c #2A373D",
":  c #2B383E",
">  c #2D383D",
",  c #2E383C",
"<  c #2E393D",
"1  c #2C383E",
"2  c #2E393E",
"3  c #2F3A3E",
"4  c #303B3F",
"5  c #2D3B41",
"6  c #2E3C42",
"7  c #2E3C43",
"8  c #2F3D44",
"9  c #2F3E45",
"0  c #323D42",
"q  c #333D43",
"w  c #323E42",
"e  c #333E43",
"r  c #303E45",
"t  c #303F46",
"y  c #314047",
"u  c #354046",
"i  c #344147",
"p  c #354147",
"a  c #324148",
"s  c #374348",
"d  c #34434A",
"f  c #34434B",
"g  c #35444B",
"h  c #35454D",
"j  c #39464C",
"k  c #39474C",
"l  c #3A474D",
"z  c #3A474E",
"x  c #374850",
"c  c #384951",
"v  c #394A53",
"b  c #394B53",
"n  c #3A4B53",
"m  c #3C4950",
"M  c #3C4A50",
"N  c #3D4A50",
"B  c #3E4C53",
"V  c #3A4C54",
"C  c #3D4D56",
"Z  c #3C4E56",
"A  c #3C4E57",
"S  c #3D4F58",
"D  c #3F5059",
"F  c #3F5159",
"G  c #3F525B",
"H  c #404D54",
"J  c #404F57",
"K  c #415057",
"L  c #405259",
"P  c #44535A",
"I  c #40535D",
"U  c #42535C",
"Y  c #41545D",
"T  c #41545E",
"R  c #42555E",
"E  c #44545C",
"W  c #45555D",
"Q  c #47565E",
"!  c #425660",
"~  c #455760",
"^  c #435862",
"/  c #445862",
"(  c #445962",
")  c #445963",
"_  c #455A64",
"`  c #465B64",
"'  c #465B65",
"]  c #475C65",
"[  c #475C66",
"{  c #495960",
"}  c #495A61",
"|  c #485C64",
" . c #485D66",
".. c #495D67",
"X. c #495E66",
"o. c #4D5C64",
"O. c #4E5E65",
"+. c #4D5D66",
"@. c #4C5E67",
"#. c #4F5F66",
"$. c #495E68",
"%. c #4A5F68",
"&. c #4B5F69",
"*. c #4D5F68",
"=. c #505F66",
"-. c #4C6069",
";. c #4C606A",
":. c #4D616B",
">. c #4E616A",
",. c #4E626B",
"<. c #4E626C",
"1. c #50626B",
"2. c #50626C",
"3. c #50636C",
"4. c #51636C",
"5. c #50646D",
"6. c #52646C",
"7. c #52656D",
"8. c #51656E",
"9. c #52656E",
"0. c #53656E",
"q. c #52666F",
"w. c #53666F",
"e. c #536670",
"r. c #546770",
"t. c #556871",
"y. c #566972",
"u. c #586B74",
"i. c #596B74",
"p. c #596C75",
"a. c #5B6D76",
"s. c #828C91",
"d. c #828D92",
"f. c #848F94",
"g. c #869196",
"h. c #8A979E",
"j. c #8C999F",
"k. c #8D999F",
"l. c #8C99A0",
"z. c #949DA1",
"x. c #949DA2",
"c. c #959EA2",
"v. c #97A0A4",
"b. c #9CA7AC",
"n. c #9EA9AE",
"m. c #9FAAAF",
"M. c #A0AAAF",
"N. c #BFC5C7",
"B. c #BFC5C8",
"V. c #C0C6C8",
"C. c #C1C7C9",
"Z. c #C2C8CC",
"A. c #C4CACC",
"S. c #C5CBCE",
"D. c #C5CCCF",
"F. c #D5D8DA",
"G. c #D6DADB",
"H. c #D9DCDD",
"J. c #D8DCDF",
"K. c #D9DDDF",
"L. c #DADEE0",
"P. c #DCE0E2",
"I. c #E0E2E4",
"U. c #E1E4E5",
"Y. c #E3E6E7",
"T. c #E8EAEB",
"R. c #E9EBEC",
"E. c #EAEDEE",
"W. c #EBEDEE",
"Q. c #F2F4F4",
"!. c #F3F4F5",
"~. c #F4F5F5",
"^. c #F4F5F6",
"/. c #F5F6F6",
"(. c #F6F6F7",
"). c #F6F7F7",
"_. c #F7F8F8",
"`. c white",
/* pixels */
"                                                                                                                                ",
"                                                                                                                                ",
"                                                                                                                                ",
"                                                                                                                                ",
"                                                                    f o.y.o.M                                                   ",
"                                                                  w.:.] _ ] $.w.y.P                                             ",
"                                                                3._ _ _ _ _ _ _ _ $.w.                                          ",
"                                                              M _ _ _ _ _ _ _ _ _ _ _ :.                                        ",
"                                                              X._ _ _ _ _ _ _ _ _ _ _ _ e                                       ",
"                              e H H 2                       l _ _ _ _ _ _ _ _ _ _ _ _ _ G                                       ",
"                          e r.:.$.$.:.w.                  K :._ _ _ _ _ _ _ _ _ _ _ _ _ R                                       ",
"                        l :._ _ _ _ _ _ <.l         2 { r.$._ _ _ _ _ _ _ _ _ _ _ _ _ _ x                                       ",
"                      l :._ _ _ _ _ _ _ _ :.r.y.y.e.:.X._ _ _ _ _ _ _ _ _ _ _ _ _ _ _ _ 7                                       ",
"                    e :._ _ _ _ _ _ _ _ _ _ _ _ _ _ _ _ _ _ _ _ _ _ _ _ _ _ _ _ _ _ _ _ a                                       ",
"                    :._ _ _ _ _ _ _ _ _ _ _ _ _ _ _ _ _ _ _ _ _ _ _ _ _ _ _ _ _ _ _ _ _ X.                                      ",
"                  2 _ _ _ _ _ _ _ _ _ _ _ _ _ _ _ _ _ _ _ _ _ _ _ _ _ _ _ _ _ _ _ _ _ _ _ B                                     ",
"                  g _ _ _ _ _ _ _ _ _ _ _ _ _ _ _ _ _ _ _ _ _ _ _ _ _ _ _ _ _ _ _ _ _ _ _ $.e                                   ",
"                  y _ _ _ _ _ _ _ _ _ _ _ _ _ _ _ _ _ _ _ _ _ _ _ _ _ _ _ _ _ _ _ _ _ _ _ _ :.2                                 ",
"                  O _ _ _ _ _ _ _ _ _ _ _ _ _ _ _ _ _ _ _ _ _ _ _ _ _ _ _ _ _ _ _ _ _ _ _ _ _ :.l                               ",
"                    / _ _ _ _ _ _ _ _ _ _ _ _ _ _ _ _ _ _ _ _ _ _ _ _ _ _ _ _ _ _ _ _ _ _ _ _ _ :.w.M l W 3.{ p                 ",
"                    o _ _ _ _ _ _ _ _ _ _ _ _ _ _ _ _ _ _ _ _ _ _ _ _ _ _ _ _ _ _ _ _ _ _ _ _ _ _ _ $.:.X._ X.:.w.              ",
"                      f _ _ _ _ _ _ _ _ _ _ _ _ _ _ _ w.l.D.Y._._.Y.A.k.w._ _ _ _ _ _ _ _ _ _ _ _ _ _ _ _ _ _ _ _ 3.            ",
"                        _ _ _ _ _ _ _ _ _ _ _ _ _ :.m./.`.`.`.`.`.`.`.`./.m.:._ _ _ _ _ _ _ _ _ _ _ _ _ _ _ _ _ _ _ H           ",
"                        _ _ _ _ _ _ _ _ _ _ _ _ u.J.`.`.`.`.`.`.`.`.`.`.`.`.P.p._ _ _ _ _ _ _ _ _ _ _ _ _ _ _ _ _ _ $.          ",
"                        _ _ _ _ _ _ _ _ _ _ _ p.W.`.`.`.`.`.`.`.`.`.`.`.`.`.`.W.u._ _ _ _ _ _ _ _ _ _ _ _ _ _ _ _ _ _           ",
"                        _ _ _ _ _ _ _ _ _ _ :.L.`.`.`.`.`.`.`.`.`.`.`.`.`.`.`.`.J.$._ _ _ _ _ _ _ _ _ _ _ _ _ _ _ _ _ p         ",
"                      2 _ _ _ _ _ _ _ _ _ _ M.`.`.`.`.`.`.`.`.`.`.`.`.`.`.`.`.`.`.b._ _ _ _ _ _ _ _ _ _ _ _ _ _ _ _ _ I         ",
"                      C _ _ _ _ _ _ _ _ _ w./.`.`.`.`.`.`.`.`.`.`.`.`.`.`.`.`.`.`./.w._ _ _ _ _ _ _ _ _ _ _ _ _ _ _ _ /         ",
"                      ] _ _ _ _ _ _ _ _ _ k.`.`.`.`.`.`.`.`.`.`.`.`.`.`.`.`.`.`.`.`.h._ _ _ _ _ _ _ _ _ _ _ _ _ _ _ _ S         ",
"                    2 _ _ _ _ _ _ _ _ _ _ A.`.`.`.`.`.`.`.`.`.`.`.`.`.`.`.`.`.`.`.`.Z._ _ _ _ _ _ _ _ _ _ _ _ _ _ _ _ -         ",
"                  4 :._ _ _ _ _ _ _ _ _ _ Y.`.`.`.`.`.`.`.`.`.`.`.`.`.`.`.`.`.`.`.`.Y._ _ _ _ _ _ _ _ _ _ _ _ _ _ _ !           ",
"              H r.:._ _ _ _ _ _ _ _ _ _ _ /.`.`.`.`.`.`.`.`.`.`.`.`.`.`.`.`.`.`.`.`./._ _ _ _ _ _ _ _ _ _ _ _ _ _ ^             ",
"            w.$._ _ _ _ _ _ _ _ _ _ _ _ _ /.`.`.`.`.`.`.`.`.`.`.`.`.`.`.`.`.`.`.`.`./._ _ _ _ _ _ _ _ _ _ _ _ / t               ",
"          1._ _ _ _ _ _ _ _ _ _ _ _ _ _ _ Y.`.`.`.`.`.`.`.`.`.`.`.`.`.`.`.`.`.`.`.`.I._ _ _ _ _ _ _ _ _ _ _ h                   ",
"        p _ _ _ _ _ _ _ _ _ _ _ _ _ _ _ _ V.`.`.`.`.`.`.`.`.`.`.`.`.`.`.`.`.`.`.`.`.B._ _ _ _ _ _ _ _ _ _ S                     ",
"        R _ _ _ _ _ _ _ _ _ _ _ _ _ _ _ _ g.`.`.`.`.`.`.`.`.`.`.`.`.`.`.`.`.`.`.`.`.f._ _ _ _ _ _ _ _ _ _                       ",
"        _ _ _ _ _ _ _ _ _ _ _ _ _ _ _ _ _ *.!.`.`.`.`.`.`.`.`.`.`.`.`.`.`.`.`.`.`.!.o._ _ _ _ _ _ _ _ _ I                       ",
"        S _ _ _ _ _ _ _ _ _ _ _ _ _ _ _ _ / v.`.`.`.`.`.`.`.`.`.`.`.`.`.`.`.`.`.`.c./ _ _ _ _ _ _ _ _ _ %                       ",
"        7 _ _ _ _ _ _ _ _ _ _ _ _ _ _ _ _ _ ~ F.`.`.`.`.`.`.`.`.`.`.`.`.`.`.`.`.F.~ _ _ _ _ _ _ _ _ _ _                         ",
"          _ _ _ _ _ _ _ _ _ _ _ _ _ _ _ _ _ / o.R.`.`.`.`.`.`.`.`.`.`.`.`.`.`.T.o./ _ _ _ _ _ _ _ _ _ ^                         ",
"          _ _ _ _ _ _ _ _ _ _ _ _ _ _ _ _ _ _ / o.F.`.`.`.`.`.`.`.`.`.`.`.`.J.=./ _ _ _ _ _ _ _ _ _ _ C                         ",
"          h _ _ _ _ _ _ _ _ _ _ _ _ _ _ _ _ _ _ / L c.!.`.`.`.`.`.`.`.`.!.c.G ^ _ _ _ _ _ _ _ _ _ _ _ _                         ",
"            / _ _ _ _ _ _ _ _ _ _ _ _ _ _ _ _ _ _ / G W d.V.I././.I.N.d.W G _ _ _ _ _ _ _ _ _ _ _ _ _ _ l                       ",
"              ! _ _ _ _ _ _ _ _ _ _ _ _ _ _ _ _ _ _ _ / I C v v v v C I / _ _ _ _ _ _ _ _ _ _ _ _ _ _ _ :.                      ",
"                % v G x 9 9 ! _ _ _ _ _ _ _ _ _ _ _ _ _ _ _ _ _ _ _ _ _ _ _ _ _ _ _ _ _ _ _ _ _ _ _ _ _ _ :.                    ",
"                              a _ _ _ _ _ _ _ _ _ _ _ _ _ _ _ _ _ _ _ _ _ _ _ _ _ _ _ _ _ _ _ _ _ _ _ _ _ _ %                   ",
"                                : _ _ _ _ _ _ _ _ _ _ _ _ _ _ _ _ _ _ _ _ _ _ _ _ _ _ _ _ _ _ _ _ _ _ _ _ _ f                   ",
"                                  - _ _ _ _ _ _ _ _ _ _ _ _ _ _ _ _ _ _ _ _ _ _ _ _ _ _ _ _ _ _ _ _ _ _ _ _ a                   ",
"                                    9 _ _ _ _ _ _ _ _ _ _ _ _ _ _ _ _ _ _ _ _ _ _ _ _ _ _ _ _ _ _ _ _ _ _ _ +                   ",
"                                      R _ _ _ _ _ _ _ _ _ _ _ _ _ _ _ _ _ _ _ _ _ _ _ _ _ _ _ _ _ _ _ _ _ /                     ",
"                                      7 _ _ _ _ _ _ _ _ _ _ _ _ _ _ _ _ _ _ _ _ _ _ _ _ _ _ _ _ _ _ _ _ _ +                     ",
"                                      9 _ _ _ _ _ _ _ _ _ _ _ _ _ _ _ _ _ _ _ _ _ _ _ _ _ _ _ _ _ _ _ _ 5                       ",
"                                      v _ _ _ _ _ _ _ _ _ _ _ _ _ _ _ _ V $         t _ _ _ _ _ _ _ _ 5                         ",
"                                      R _ _ _ _ _ _ _ _ _ _ _ _ _ _ 7                 X ^ _ _ _ _ / +                           ",
"                                      V _ _ _ _ _ _ _ _ _ _ _ _ _ -                       O t y +                               ",
"                                      % _ _ _ _ _ _ _ _ _ _ _ _ /                                                               ",
"                                        ! _ _ _ _ _ _ _ _ _ _ _ t                                                               ",
"                                          / _ _ _ _ _ _ _ _ _ ^                                                                 ",
"                                            h _ _ _ _ _ _ _ !                                                                   ",
"                                                . 7 S / S -                                                                     ",
"                                                                                                                                ",
"                                                                                                                                ",
"                                                                                                                                ",
"                                                                                                                                "
};
