/* XPM */
static char * folder_video_xpm[] = {
"64 64 60 1 ",
"  c None",
". c #363A4F",
"X c #383D53",
"o c #383E52",
"O c #42687B",
"+ c #456B7F",
"@ c #477084",
"# c #487185",
"$ c #487388",
"% c #497488",
"& c #487489",
"* c #497489",
"= c #4C778B",
"- c #4C788B",
"; c #4D798C",
": c #4D798D",
"> c #577A94",
", c #577B96",
"< c #587D97",
"1 c #597F9A",
"2 c #5C849F",
"3 c #5788A1",
"4 c #548DA6",
"5 c #558FA9",
"6 c #5E94AF",
"7 c #5C9AB6",
"8 c #5C9BB7",
"9 c #5E9DB9",
"0 c #5E9DBA",
"q c #65A5C4",
"w c #65A6C5",
"e c #6CA9C8",
"r c #6DAAC9",
"t c #68AECE",
"y c #6DAFCC",
"u c #69B0CF",
"i c #6EB0CD",
"p c #6EB0CE",
"a c #69B0D0",
"s c #6AB0D0",
"d c #6BB1D1",
"f c #6CB1D1",
"g c #6DB1D1",
"h c #6DB1D2",
"j c #6CB2D2",
"k c #6EB2D2",
"l c #70B2D2",
"z c #70B3D2",
"x c #72B3D3",
"c c #73B4D4",
"v c #75B7D5",
"b c #75B8D6",
"n c #7BC0E0",
"m c #7AC1E0",
"M c #7DC4E4",
"N c #A4C6E7",
"B c #A5C6E7",
"V c #A6C6E7",
"C c #C4D1F3",
"Z c #CAD3F5",
/* pixels */
"                                                                ",
"                                                                ",
"                                                                ",
"                                                                ",
"                                                                ",
"                                                                ",
"                                                                ",
"     *eccccccccccccccce3                                        ",
"    *juaaaaaaaaaaaaaaaajzO                                      ",
"    waaaaaaaaaaaaaaaaaaaaj#                                     ",
"    uaaaaaaaaaaaaaaaaaaaaaj+                                    ",
"    aaaaaaaaaaaaaaaaaaaaaaaj@                                   ",
"    aaaaaaaaaaaaaaaaaaaaaaaaj6                                  ",
"    aaaaaaaaaaaaaaaaaaaaaaaaaazzccccccccccccccccccccccccce*     ",
"    aaaaaaaaaaaaaaaaaaaaaaaaaaaaaaaaaaaaaaaaaaaaaaaaaaaaauj$    ",
"    aaaaaaaaaaaaaaaaaaaaaaaaaaaaaaaaaaaaaaaaaaaaaaaaaaaaaaaw    ",
"    aaaajBCZZZZZZZZZZZZZZZZZZZZZZZZZZZZZZZZZZZZZZZZZZCBjaaaa    ",
"    aaaaBZZZZZZZZZZZZZZZZZZZZZZZZZZZZZZZZZZZZZZZZZZZZZZBaaaa    ",
"    aaaaCZZZZZZZZZZZZZZZZZZZZZZZZZZZZZZZZZZZZZZZZZZZZZZCaaaa    ",
"    aaaaZZZZZZZZZZZZZZZZZZZZZZZZZZZZZZZZZZZZZZZZZZZZZZZZaaaa    ",
"    t754ZZZZZZZZZZZZZZZZZZZZZZZZZZZZZZZZZZZZZZZZZZZZZZZZ457t    ",
"    9ymMMMMMMMMMMMMMMMMMMMMMMMMMMMMMMMMMMMMMMMMMMMMMMMMMMmy9    ",
"    pMMMMMMMMMMMMMMMMMMMMMMMMMMMMMMMMMMMMMMMMMMMMMMMMMMMMMMp    ",
"    mMMMMMMMMMMMMMMMMMMMMMMMMMMMMMMMMMMMMMMMMMMMMMMMMMMMMMMm    ",
"    MMMMMMMMMMMMMMMMMMMMMMMMMMMMMMMMMMMMMMMMMMMMMMMMMMMMMMMM    ",
"    MMMMMMMMMMMMMMMMMMMMMMMMMMMMMMMMMMMMMMMMMMMMMMMMMMMMMMMM    ",
"    MMMMMMMMMMMMMMMMMMMMMMMMMMMMMMMMMMMMMMMMMMMMMMMMMMMMMMMM    ",
"    MMMMMMMMMMMMMMMMMMMMMMMMMMMMMMMMMMMMMMMMMMMMMMMMMMMMMMMM    ",
"    MMMMMMMMMMMMMMMMMMMMMMMMMMMMMMMMMMMMMMMMMMMMMMMMMMMMMMMM    ",
"    MMMMMMMMMMMMMMMMMMMMMMMMMMMMMMMMMMMMMMMMMMMMMMMMMMMMMMMM    ",
"    MMMMMMMMMMMMMMMMMMMMMMMMMMMMMMMMMMMMMMMMMMMMMMMMMMMMMMMM    ",
"    MMMMMMMMMMMMMMMMM>o..............o>MMMMMMMMMMMMMMMMMMMMM    ",
"    MMMMMMMMMMMMMMMMMo................oMMMMMMMMMMMMMMMMMMMMM    ",
"    MMMMMMMMMMMMMMMMM..................MMMMM1MMMMMMMMMMMMMMM    ",
"    MMMMMMMMMMMMMMMMM..................MMMM1.MMMMMMMMMMMMMMM    ",
"    MMMMMMMMMMMMMMMMM..................MMM1..MMMMMMMMMMMMMMM    ",
"    MMMMMMMMMMMMMMMMM..................MM1...MMMMMMMMMMMMMMM    ",
"    MMMMMMMMMMMMMMMMM..................M1....MMMMMMMMMMMMMMM    ",
"    MMMMMMMMMMMMMMMMM..................1.....MMMMMMMMMMMMMMM    ",
"    MMMMMMMMMMMMMMMMM..................2.....MMMMMMMMMMMMMMM    ",
"    MMMMMMMMMMMMMMMMM..................M2....MMMMMMMMMMMMMMM    ",
"    MMMMMMMMMMMMMMMMM..................MM2...MMMMMMMMMMMMMMM    ",
"    MMMMMMMMMMMMMMMMM..................MMM2..MMMMMMMMMMMMMMM    ",
"    MMMMMMMMMMMMMMMMM..................MMMM2.MMMMMMMMMMMMMMM    ",
"    MMMMMMMMMMMMMMMMM..................MMMMM1MMMMMMMMMMMMMMM    ",
"    MMMMMMMMMMMMMMMMMo................oMMMMMMMMMMMMMMMMMMMMM    ",
"    MMMMMMMMMMMMMMMMM>o..............o<MMMMMMMMMMMMMMMMMMMMM    ",
"    MMMMMMMMMMMMMMMMMMMMMMMMMMMMMMMMMMMMMMMMMMMMMMMMMMMMMMMM    ",
"    MMMMMMMMMMMMMMMMMMMMMMMMMMMMMMMMMMMMMMMMMMMMMMMMMMMMMMMM    ",
"    MMMMMMMMMMMMMMMMMMMMMMMMMMMMMMMMMMMMMMMMMMMMMMMMMMMMMMMM    ",
"    MMMMMMMMMMMMMMMMMMMMMMMMMMMMMMMMMMMMMMMMMMMMMMMMMMMMMMMM    ",
"    MMMMMMMMMMMMMMMMMMMMMMMMMMMMMMMMMMMMMMMMMMMMMMMMMMMMMMMM    ",
"    MMMMMMMMMMMMMMMMMMMMMMMMMMMMMMMMMMMMMMMMMMMMMMMMMMMMMMMM    ",
"    MMMMMMMMMMMMMMMMMMMMMMMMMMMMMMMMMMMMMMMMMMMMMMMMMMMMMMMM    ",
"    vMMMMMMMMMMMMMMMMMMMMMMMMMMMMMMMMMMMMMMMMMMMMMMMMMMMMMMv    ",
"    :MMMMMMMMMMMMMMMMMMMMMMMMMMMMMMMMMMMMMMMMMMMMMMMMMMMMMM-    ",
"     :bMMMMMMMMMMMMMMMMMMMMMMMMMMMMMMMMMMMMMMMMMMMMMMMMMMb=     ",
"                                                                ",
"                                                                ",
"                                                                ",
"                                                                ",
"                                                                ",
"                                                                ",
"                                                                "
};
