/* XPM */
static char * file_broken_xpm[] = {
"64 64 198 2 ",
"   c None",
".  c #77362C",
"X  c #7E3A2F",
"o  c #902514",
"O  c #912514",
"+  c #922514",
"@  c #B92F1A",
"#  c #B9301B",
"$  c #BC301A",
"%  c #8E3C2F",
"&  c #9E3E2F",
"*  c #8D3E31",
"=  c #C4321B",
"-  c #CB341C",
";  c #CF351D",
":  c #CD371F",
">  c #D8371E",
",  c #D9371E",
"<  c #D6381F",
"1  c #D9381E",
"2  c #DF391F",
"3  c #E0391F",
"4  c #E1391F",
"5  c #E23A1F",
"6  c #E33A1F",
"7  c #DB3A20",
"8  c #DB3A21",
"9  c #DD3920",
"0  c #DC3A21",
"q  c #D93C23",
"w  c #DA3C23",
"e  c #DB3D23",
"r  c #D93E26",
"t  c #D13F28",
"y  c #E43A20",
"u  c #E53B20",
"i  c #E63B20",
"p  c #E73B20",
"a  c #E73C21",
"s  c #E73D22",
"d  c #E73D23",
"f  c #E73F24",
"g  c #A14031",
"h  c #D7462F",
"j  c #D94029",
"k  c #DB4028",
"l  c #DA4129",
"z  c #DA422A",
"x  c #DB442C",
"c  c #DA452E",
"v  c #D74831",
"b  c #D64C37",
"n  c #D94932",
"m  c #D84E38",
"M  c #D9513B",
"N  c #D9543F",
"B  c #E84127",
"V  c #E84228",
"C  c #E8442A",
"Z  c #E94930",
"A  c #E94A31",
"S  c #E94E36",
"D  c #EA5138",
"F  c #EA533B",
"G  c #EA563F",
"H  c #D75540",
"J  c #D75743",
"K  c #D95440",
"L  c #DA5440",
"P  c #EA5740",
"I  c #EB5B44",
"U  c #EB5C46",
"Y  c #EB5E47",
"T  c #E15D48",
"R  c #D9604D",
"E  c #DA6552",
"W  c #D86654",
"Q  c #DA6754",
"!  c #D86957",
"~  c #DA6B59",
"^  c #EC614C",
"/  c #EC624D",
"(  c #EC654F",
")  c #EC6550",
"_  c #EC6853",
"`  c #E96854",
"'  c #ED6C58",
"]  c #ED6D59",
"[  c #ED725E",
"{  c #D37465",
"}  c #D87262",
"|  c #D97262",
" . c #DB7768",
".. c #D97868",
"X. c #D97969",
"o. c #DB7869",
"O. c #DB7D6D",
"+. c #DC7D6E",
"@. c #ED7461",
"#. c #EE7461",
"$. c #EF7866",
"%. c #ED7B69",
"&. c #EF7C6A",
"*. c #DB8072",
"=. c #DD8475",
"-. c #DC8679",
";. c #DE897C",
":. c #DC8A7D",
">. c #DE8C7F",
",. c #ED8271",
"<. c #EE8473",
"1. c #DF9084",
"2. c #DE9185",
"3. c #EF9081",
"4. c #EF9181",
"5. c #EE9182",
"6. c #EF9789",
"7. c #EF998C",
"8. c #EF9C8F",
"9. c #F09182",
"0. c #F09789",
"q. c #E09B90",
"w. c #E09C91",
"e. c #E19C91",
"r. c #E09E93",
"t. c #EF9F93",
"y. c #F19E91",
"u. c #F09F93",
"i. c #E2A095",
"p. c #E2A096",
"a. c #EFA498",
"s. c #E3A89F",
"d. c #F1AA9E",
"f. c #E5AEA5",
"g. c #E5AFA7",
"h. c #F0AFA4",
"j. c #E7B4AC",
"k. c #E7B5AD",
"l. c #E7B6AE",
"z. c #F2B4AB",
"x. c #E8B8B0",
"c. c #E8B8B1",
"v. c #EABFB9",
"b. c #F1B8B0",
"n. c #F3BCB3",
"m. c #F7BFB6",
"M. c #EAC1BB",
"N. c #EBC2BC",
"B. c #EBC3BD",
"V. c #ECC5BE",
"C. c #F3C3BB",
"Z. c #F4C3BB",
"A. c #EDC8C3",
"S. c #EECDC8",
"D. c #EFCFCA",
"F. c #F4CDC6",
"G. c #EFD0CB",
"H. c #F1D5D0",
"J. c #F6D7D3",
"K. c #F2D8D4",
"L. c #F7DAD5",
"P. c #F8DAD6",
"I. c #F8DCD7",
"U. c #F3DDD9",
"Y. c #F7DCD8",
"T. c #F4DEDA",
"R. c #F8DFDC",
"E. c #F9E0DD",
"W. c #F8E1DD",
"Q. c #F8E2DE",
"!. c #F5E2E0",
"~. c #F7E7E4",
"^. c #F9E6E3",
"/. c #F8E9E7",
"(. c #FAEAE7",
"). c #FAEAE8",
"_. c #FAEBE9",
"`. c #FBEBE9",
"'. c #FAECEA",
"]. c #FAEFED",
"[. c #FAEFEE",
"{. c #FAF0EF",
"}. c #FBF1F0",
"|. c #FBF3F2",
" X c #FBF4F2",
".X c #FCF5F4",
"XX c #FCF7F6",
"oX c #FDF8F7",
"OX c #FDF8F8",
"+X c #FDF9F9",
"@X c #FDFAFA",
"#X c #FEFBFB",
"$X c #FEFCFB",
"%X c #FEFDFC",
"&X c #FEFDFD",
"*X c #FFFDFD",
"=X c #FFFEFE",
"-X c white",
/* pixels */
"                                                                                                                                ",
"                                                                                                                                ",
"                                                                                                                                ",
"                                                                                                                                ",
"                      g T / / / / / / / / / / / / / / / / / / / / / / / *                                                       ",
"                    & A d p p p p p p p p p p p p p p p p p p p p p p p ] X                                                     ",
"                    x p p p p p p p p p p p p p p p p p p p p p p p p p ] ] X                                                   ",
"                    d p p p p p p p p p p p p p p p p p p p p p p p p p ] ] ] X                                                 ",
"                    p p p p p p p p p p p p p p p p p p p p p p p p p p ] ] ] ] X                                               ",
"                    p p p p p p p p p p p p p p p p p p p p p p p p p p ] ] ] ] ] X                                             ",
"                    p p p p p p p p p p p p p p p p p p p p p p p p p p ] ] ] ] ] ] X                                           ",
"                    p p p p p p p p p p p p p p p p p p p p p p p p p p ] ] ] ] ] ] ] X                                         ",
"                    p p p p p p p p p p p p p p p p p p p p p p p p p p ] ] ] ] ] ] ] ] X                                       ",
"                    p p p p p p p p p p p p p p p p p p p p p p p p p p ] ] ] ] ] ] ] ] ] X                                     ",
"                    p p p p p p p p p p p p p p p p p p p p p p p p p p ] ] ] ] ] ] ] ] ] ] X                                   ",
"                    p p p p p p p p p p p p p p p p p p p p p p p p p 6 ] ] ] ] ] ] ] ] ] ] ] X                                 ",
"                    p p p p p p p p p p p p p p p p p p p p p p p p p p ] ] ] ] ] ] ] ] ] ] ] ] X                               ",
"                    p p p p p p p p p p p p p p p p p p p p p p p p p p ] ] ] ] ] ] ] ] ] ] ] ] ] X                             ",
"                    p p p p p p p p p p p p p p p p p p p p p p p p p p ] ] ] ] ] ] ] ] ] ] ] ] ] ] X                           ",
"                    p p p p p p p p p p p p p p p p p p p p p p p p p p ` ] ] ] ] ] ] ] ] ] ] ] ] ] ] .                         ",
"                    p p p p p p p p p p p p p p p p p p p p p p p p p p K ] ] ] ] ] ] ] ] ] ] ] ] ] ] ] .                       ",
"                    p p p p p p p p p p p p p p p p p p p p p p p p p p ; K ` ] ] ] ] ] ] ] ] ] ] ] ] ] ] %                     ",
"                    p p p p p p p p p p p p p p p p p p p p p p p p p p p - $ @ @ @ @ @ @ @ @ @ @ @ @ @ @ ;                     ",
"                    p p p p p p p p p p p p p p p p p p p p p p p p p p p p p p p p p p p p p p p p p p p p                     ",
"                    p p p p p p p p p p p p p p p p p p p p p p p p p p p p p p p p p p p p p p p p p p p p                     ",
"                    p p p p p p p p p p p p p p p p p p p p &.p p p p p p p p p p p p p p p p p p p p p p p                     ",
"                    p p p p p p p p p p p p p p p p p p p p E.G p p p p p p p V $.p p p p p p p p p p p p p                     ",
"                    p p p p p p p p p p p p p p p p p p p U -X6.p p p p p p p 9.P.p p p p p p p p p p p p p                     ",
"                    p p p p p p p p p p p p p p p p p p p 7.-XL.p p p p p p B /.-X) p p p p p p p p p p p p                     ",
"                    p p p p p p p p p p p p p p p p p p p J.-X-XI p p p p p 9.-X-Xz.p p p p p p p p p p p p                     ",
"                    p p p p p p p p p p p p p p p p p p D -X-X-X8.p p p p B /.-X-XoXA p p p p p p p p p p p                     ",
"                    p p p p p p p p p p p p p p p p p p 3.-X-X-XR.p p p p 9.-X-X-X-X3.p p p p p p p p p p p                     ",
"                    p p p p p p p p p p p p p p p p p p F.-X-X-X-XU p p B /.-X-X-X-XR.d p p p p p p p p p p                     ",
"                    -X-X-X-X-X-X-X-X-Xm.p p p p p p p A $X-X-X-X-Xu.p p 9.-X-X$Xv.-X-X] p p p p p p p p p p                     ",
"                    -X-X-X-X-X-X-X-X-XXXB p p p p p p <.-X-X~.-X-XE.p V _.-X-XN.| -X-Xn.p p p p p p p p p p                     ",
"                    -X-X-X-X-X-X-X-X-X-X@.p p p p p p C.-X-X{ #X-X-X/ 9.-X-X-X..j #X-X#XS p p p p p p p p p                     ",
"                    -X-X-X-X-X-X-X-X-X-Xh.p p p p p C oX-X|.w A.-X-Xd./.-X-X Xr p V.-X-X0.p p p p p p p p p                     ",
"                    @ @ @ @ @ @ # !.-X-X_.d p p p p %.-X-Xk.p >.-X-X-X-X-X-Xf.p p ;.-X-X^.d p p p p p p p p                     ",
"                    p p p p p p p q.-X-X-X( p p p p b.-X-X .p M -X-X-X-X-X-XW p p m -X-X-X@.p p p p p p p p                     ",
"                    p p p p p p p H -X-X-Xt.p p p f |.-X#Xj p 5 Y.-X-X-X-X~.7 p p 5 U.-X-XZ.p p p p p p p p                     ",
"                    p p p p p p p 5 K.-X-XY.p p p [ -X-XN.p p p p.-X-X-X-Xr.p p p p p.-X-X-XD p p p p p p p                     ",
"                    p p p p p p p p 1.-X-X-XP p p h.-X-X=.p p p E -X-X-X-XH p p p p W -X-X-Xu.p p p p p p p                     ",
"                    p p p p p p p p b -X-X-X3.p d _.-X-Xn p p p 9 [.-X-XH.2 p p p p 7 {.-X-X'.f p p p p p p                     ",
"                    p p p p p p p p 5 D.-X-XF.p _ -X-XD.5 p p p p k.-X-X;.p p p p p p c.-X-X-X-X-X-X-X-X-X-X                    ",
"                    p p p p p p p p p -.-X-X-XA a.-X-X1.p p p p p ..-X$Xv p p p p p p +.-X-X-X-X-X-X-X-X-X-X                    ",
"                    p p p p p p p p p h #X-X-X,.E.-X-XN p p p p p j #XM.5 p p p p p p x -X-X-X-X-X-X-X-X-X-X                    ",
"                    p p p p p p p p p 5 N.-X-XI.-X-XU.5 p p p p p p A...p p p p p p p 5 G.-X-X-X-X-X-X-X-X-X                    ",
"                    p p p p p p p p p p O.-X-X-X-X-Xr.p p p p p p p *.r p p p p p p p p = @ @ @ @ @ @ @ @ @                     ",
"                    p p p p p p p p p p j XX-X-X-X-XR p p p p p p p < p p p p p p p p p p p p p p p p p p p                     ",
"                    p p p p p p p p p p p c.-X-X-X/.9 p p p p p p p p p p p p p p p p p p p p p p p p p p p                     ",
"                    p p p p p p p p p p p | -X-X-Xs.p p p p p p p p p p p p p p p p p p p p p p p p p p p p                     ",
"                    p p p p p p p p p p p w [.-X-X~ p p p p p p p p p p p p p p p p p p p p p p p p p p p p                     ",
"                    p p p p p p p p p p p p f.-X|.w p p p p p p p p p p p p p p p p p p p p p p p p p p p p                     ",
"                    p p p p p p p p p p p p ! -Xk.p p p p p p p p p p p p p p p p p p p p p p p p p p p p p                     ",
"                    p p p p p p p p p p p p 7 /. .p p p p p p p p p p p p p p p p p p p p p p p p p p p p p                     ",
"                    p p p p p p p p p p p p p r.j p p p p p p p p p p p p p p p p p p p p p p p p p p p p p                     ",
"                    p p p p p p p p p p p p p t p p p p p p p p p p p p p p p p p p p p p p p p p p p p p p                     ",
"                    , p p p p p p p p p p p p p p p p p p p p p p p p p p p p p p p p p p p p p p p p p p ,                     ",
"                    O p p p p p p p p p p p p p p p p p p p p p p p p p p p p p p p p p p p p p p p p p p O                     ",
"                      O 1 p p p p p p p p p p p p p p p p p p p p p p p p p p p p p p p p p p p p p p 1 O                       ",
"                                                                                                                                ",
"                                                                                                                                ",
"                                                                                                                                ",
"                                                                                                                                "
};
