/* XPM */
static char * file_image_xpm[] = {
"64 64 55 1 ",
"  c None",
". c #1A5E8E",
"X c #1A5F8F",
"o c #1A5F90",
"O c #1A6091",
"+ c #35719B",
"@ c #35729D",
"# c #1E6FA8",
"$ c #3976A0",
"% c #3976A1",
"& c #2485C9",
"* c #2586CA",
"= c #2586CB",
"- c #308CCC",
"; c #268BD2",
": c #278BD2",
"> c #288CD2",
", c #298DD3",
"< c #2B8ED3",
"1 c #2C8ED3",
"2 c #3492D5",
"3 c #3493D5",
"4 c #3C97D7",
"5 c #3D97D7",
"6 c #4F9DD5",
"7 c #469CD9",
"8 c #4B9FDA",
"9 c #51A2DB",
"0 c #5AA7DD",
"q c #5CA8DD",
"w c #60AADE",
"e c #6CB0E0",
"r c #7DB9E4",
"t c #81BCE5",
"y c #86BEE6",
"u c #93C5E9",
"i c #9AC9EA",
"p c #A5CEEC",
"a c #A8D0ED",
"s c #AED3EE",
"d c #B3D7EF",
"f c #C5E0F2",
"g c #C9E2F4",
"h c #CFE5F4",
"j c #D6E9F6",
"k c #DFEDF7",
"l c #E5F1F9",
"z c #EAF3FA",
"x c #F0F7FB",
"c c #F1F7FC",
"v c #F8FBFD",
"b c #FBFDFE",
"n c #FCFDFE",
"m c #FDFEFF",
"M c white",
/* pixels */
"                                                                ",
"                                                                ",
"                                                                ",
"                                                                ",
"                                                                ",
"                                                                ",
"                                                                ",
"                                                                ",
"       %699999999999999999999999999999999999999999999996%       ",
"      @2>;;;;;;;;;;;;;;;;;;;;;;;;;;;;;;;;;;;;;;;;;;;;;;>2+      ",
"      -;;;;;;;;;;;;;;;;;;;;;;;;;;;;;;;;;;;;;;;;;;;;;;;;;;-      ",
"      >;;;;;;;;;;;;;;;;;;;;;;;;;;;;;;;;;;;;;;;;;;;;;;;;;;>      ",
"      ;;;;;;;;;;;;;;;;;;;;;;;;;;;;;;;;;;;;;;;;;;;;;;;;;;;;      ",
"      ;;;;;;;;;;;;;;;;;;;;;;;;;;;;;;;;;;;;;;;;;;;;;;;;;;;;      ",
"      ;;;;;;;;;;;;;;;;;;;;;;;;;;;;;;;;;;;;;;;;;;;;;;;;;;;;      ",
"      ;;;;;;;;;;;;;;;;;;;;;;;;;;;;;;;;;;;;;;;;;;;;;;;;;;;;      ",
"      ;;;;;;;;;;;;;;;;;;;;;;;;;;;;;;;;;;;;;;;;;;;;;;;;;;;;      ",
"      ;;;;;;;;;;;;;;;;;;;;;;;;;;;;;;;;;;;;;;;;;;;;;;;;;;;;      ",
"      ;;;;;;;;;;;;;;;;;;;;;;;;;;;;;;;;;;;;;;;;;;;;;;;;;;;;      ",
"      ;;;;;;;;;;;;;;;;;;;;;;;;;;;;;;;;;;;;;;;;;;;;;;;;;;;;      ",
"      ;;;;;;;;;;;;;;;;;;;;;;;;;;;;;;;;;;;;;;;;;;;;;;;;;;;;      ",
"      ;;;;;;;;;;;;;;;;;;;;;;;;;;;;;;;;;;;;;;;;;;;;;;;;;;;;      ",
"      ;;;;;;;;;;;;;;;;;;;;;;;;;;;;;;;;;;;;;;;;;;;;;;;;;;;;      ",
"      ;;;;;;;;;;;;;;;;;;;;;;;;;;;;;;;;;;;;;;;;;;;;;;;;;;;;      ",
"      ;;;;;;;;;;;;;;;;;;;;;;;;;;;;;;;;;;;;;;;;;;;;;;;;;;;;      ",
"      ;;;;;;;;;;;;;;;;;;;;;;;;;;;;;;;;;;;;;;;;;;;;;;;;;;;;      ",
"      ;;;;;;;;;;;;;;;tr;;;;;;;;;;;;;;;;;;;;;;;;;;;;;;;;;;;      ",
"      ;;;;;;;;;;;;;;wMb0;;;;;;;;;;;;;;;;;;;;;;;;;;;;;;;;;;      ",
"      ;;;;;;;;;;;;;7xMMz5;;;;;;;;;;;;;;;;;;;;;;;;;;;;;;;;;      ",
"      ;;;;;;;;;;;;2kMMMMh1;;;;;;;;;;;;;;;;;;;;;;;;;;;;;;;;      ",
"      ;;;;;;;;;;;>fMMMMMMs;;;;;;;;;;;;;;;;;;;;;;;;;;;;;;;;      ",
"      ;;;;;;;;;;;pMMMMMMMMr;;;;;;;;;;;;;;;;;;;;;;;;;;;;;;;      ",
"      ;;;;;;;;;;tMMMMMMMMMb0;;;;;;;;;;;;;;;;;;;;;;;;;;;;;;      ",
"      ;;;;;;;;;wMMMMMMMMMMMz5;;;;;;;;;;;;;ii;;;;;;;;;;;;;;      ",
"      ;;;;;;;;7xMMMMMMMMMMMMh1;;;;;;;;;;>dMMi;;;;;;;;;;;;;      ",
"      ;;;;;;;2kMMMMMMMMMMMMMMs;;;;;;;;;2gMMMMi;;;;;;;;;;;;      ",
"      ;;;;;;>fMMMMMMMMMMMMMMMMr;;;;;;;5jMMMMMMi;;;;;;;;;;;      ",
"      ;;;;;;pMMMMMMMMMMMMMMMMMb0;;;;;8lMMMMMMMMi;;;;;;;;;;      ",
"      ;;;;;;MMMMMMMMMMMMMMMMMMMz5;;;qcMMMMMMMMMMi;;;;;;;;;      ",
"      ;;;;;;MMMMMMMMMMMMMMMMMMMMh1;evMMMMMMMMMMMMi;;;;;;;;      ",
"      ;;;;;;MMMMMMMMMMMMMMMMMMMMMayMMMMMMMMMMMMMMMu;;;;;;;      ",
"      ;;;;;;MMMMMMMMMMMMMMMMMMMMMMMMMMMMMMMMMMMMMMM;;;;;;;      ",
"      ;;;;;;MMMMMMMMMMMMMMMMMMMMMMMMMMMMMMMMMMMMMMM;;;;;;;      ",
"      ;;;;;;MMMMMMMMMMMMMMMMMMMMMMMMMMMMMMMMMMMMMMM;;;;;;;      ",
"      ;;;;;;MMMMMMMMMMMMMMMMMMMMMMMMMMMMMMMMMMMMMMM;;;;;;;      ",
"      ;;;;;;MMMMMMMMMMMMMMMMMMMMMMMMMMMMMMMMMMMMMMM;;;;;;;      ",
"      ;;;;;;MMMMMMMMMMMMMMMMMMMMMMMMMMMMMMMMMMMMMMM;;;;;;;      ",
"      ;;;;;;MMMMMMMMMMMMMMMMMMMMMMMMMMMMMMMMMMMMMMM;;;;;;;      ",
"      ;;;;;;#######################################;;;;;;;      ",
"      ;;;;;;;;;;;;;;;;;;;;;;;;;;;;;;;;;;;;;;;;;;;;;;;;;;;;      ",
"      ;;;;;;;;;;;;;;;;;;;;;;;;;;;;;;;;;;;;;;;;;;;;;;;;;;;;      ",
"      ;;;;;;;;;;;;;;;;;;;;;;;;;;;;;;;;;;;;;;;;;;;;;;;;;;;;      ",
"      ;;;;;;;;;;;;;;;;;;;;;;;;;;;;;;;;;;;;;;;;;;;;;;;;;;;;      ",
"      &;;;;;;;;;;;;;;;;;;;;;;;;;;;;;;;;;;;;;;;;;;;;;;;;;;&      ",
"      X;;;;;;;;;;;;;;;;;;;;;;;;;;;;;;;;;;;;;;;;;;;;;;;;;;X      ",
"       O&;;;;;;;;;;;;;;;;;;;;;;;;;;;;;;;;;;;;;;;;;;;;;;&o       ",
"                                                                ",
"                                                                ",
"                                                                ",
"                                                                ",
"                                                                ",
"                                                                ",
"                                                                ",
"                                                                "
};
