/* XPM */
static char * file_object_xpm[] = {
"64 64 29 1 ",
"  c None",
". c #313131",
"X c #323232",
"o c #353535",
"O c gray22",
"+ c gray24",
"@ c #3F3F3F",
"# c gray27",
"$ c #464646",
"% c gray28",
"& c gray29",
"* c #4E4E4E",
"= c gray31",
"- c #505050",
"; c #555555",
": c #585858",
"> c #5A5A5A",
", c gray36",
"< c #606060",
"1 c gray40",
"2 c DimGray",
"3 c #767676",
"4 c #808080",
"5 c #838383",
"6 c #868686",
"7 c #939393",
"8 c #A0A0A0",
"9 c gray63",
"0 c #A7A7A7",
/* pixels */
"                                                                ",
"                                                                ",
"                                                                ",
"                                                                ",
"           +,<<<<<<<<<<<<<<<<<<<<<<<+                           ",
"          +;-=======================2O                          ",
"          -=========================22O                         ",
"          -=========================222O                        ",
"          ==========================2222O                       ",
"          ==========================22222O                      ",
"          ==========================222222O                     ",
"          ======700007===99===99==702222222O                    ",
"          ======000000===00===00==0022222222O                   ",
"          ======00==00===00===00==00222222222O                  ",
"          ======00==00===00===00==002222222222O                 ",
"          ======00==00===00===00==0022222222222O                ",
"          ======00==00===00===00==00222222222222O               ",
"          ======000000===00===00==002222222222222O              ",
"          ======700007===99===99==7022222222222222O             ",
"          ==========================122222222222222o            ",
"          ==========================:222222222222222o           ",
"          ==========================%:122222222222222+          ",
"          ========99====700007===99==%55++366663+++++%          ",
"          ========00====000000===00===00==000000======          ",
"          ========00====00==00===00===00==00==00======          ",
"          ========00====00==00===00===00==00==00======          ",
"          ========00====00==00===00===00==00==00======          ",
"          ========00====00==00===00===00==00==00======          ",
"          ========00====000000===00===00==000000======          ",
"          ========99====700007===99===99==700007======          ",
"          ============================================          ",
"          ============================================          ",
"          ============================================          ",
"          ======700007==700007===99===99==700007======          ",
"          ======000000==000000===00===00==000000======          ",
"          ======00==00==00==00===00===00==00==00======          ",
"          ======00==00==00==00===00===00==00==00======          ",
"          ======00==00==00==00===00===00==00==00======          ",
"          ======00==00==00==00===00===00==00==00======          ",
"          ======000000==000000===00===00==000000======          ",
"          ======700007==700007===99===99==700007======          ",
"          ============================================          ",
"          ============================================          ",
"          ============================================          ",
"          ======700007===99===99==700007====99========          ",
"          ======000000===00===00==000000====00========          ",
"          ======00==00===00===00==00==00====00========          ",
"          ======00==00===00===00==00==00====00========          ",
"          ======00==00===00===00==00==00====00========          ",
"          ======00==00===00===00==00==00====00========          ",
"          ======000000===00===00==000000====00========          ",
"          ======700007===99===99==700007====99========          ",
"          ============================================          ",
"          ============================================          ",
"          ============================================          ",
"          ============================================          ",
"          ============================================          ",
"          &==========================================&          ",
"          X==========================================X          ",
"           X&======================================&X           ",
"                                                                ",
"                                                                ",
"                                                                ",
"                                                                "
};
