/* XPM */
static char * file_code_xpm[] = {
"64 64 126 2 ",
"   c None",
".  c gray49",
"X  c #9C40D3",
"o  c #9C41D3",
"O  c #9D41D3",
"+  c #9D43D3",
"@  c #9E44D3",
"#  c #9E45D3",
"$  c #9D42D4",
"%  c #9E43D4",
"&  c #9F47D4",
"*  c #A048D4",
"=  c #A049D4",
"-  c #A04AD4",
";  c #A14CD4",
":  c #A24DD4",
">  c #A34FD5",
",  c #A350D4",
"<  c #A452D5",
"1  c #A656D5",
"2  c #A656D6",
"3  c #A758D6",
"4  c #A85AD6",
"5  c #A85BD6",
"6  c #A85CD6",
"7  c #A95ED6",
"8  c #AA60D6",
"9  c #AA61D6",
"0  c #AB61D7",
"q  c #AC64D7",
"w  c #AC65D7",
"e  c #AD65D7",
"r  c #AD66D7",
"t  c #AE69D7",
"y  c #AE68D8",
"u  c #B06DD7",
"i  c #B06DD8",
"p  c #B06FD8",
"a  c #B170D8",
"s  c #B271D8",
"d  c #B274D8",
"f  c #B374D8",
"g  c #B476D8",
"h  c #B477D9",
"j  c #B57AD9",
"k  c #B67BD9",
"l  c #B67CD9",
"z  c gray52",
"x  c #8E8E8E",
"c  c gray56",
"v  c #909090",
"b  c gray58",
"n  c #9D9D9D",
"m  c #9F9F9F",
"M  c #B6B6B6",
"N  c #B9B9B9",
"B  c #BB86DB",
"V  c #BB88DA",
"C  c #BD8BDB",
"Z  c #BD8CDB",
"A  c #BE8EDB",
"S  c #BF8FDB",
"D  c #BF90DB",
"F  c #C092DB",
"G  c #C093DB",
"H  c #C092DC",
"J  c #C398DC",
"K  c #C49BDC",
"L  c #C6A0DD",
"P  c #C7A1DD",
"I  c #C7A3DD",
"U  c #C8A5DD",
"Y  c #C9A6DD",
"T  c #CBABDE",
"R  c #CEB2DF",
"E  c #CFB4DF",
"W  c #D0B5DF",
"Q  c #D0B7DF",
"!  c #D1B8DF",
"~  c #D1B9DF",
"^  c #D2BCDF",
"/  c #D0B6E0",
"(  c #D3BDE0",
")  c #C8C8C8",
"_  c #CBCBCB",
"`  c #CDCDCD",
"'  c #D5D5D5",
"]  c gray84",
"[  c #D7D7D7",
"{  c gray85",
"}  c #DFDFDF",
"|  c #D4C0E0",
" . c #D5C1E1",
".. c #D5C3E0",
"X. c #D5C2E1",
"o. c #D6C3E1",
"O. c #D6C4E1",
"+. c #D6C5E1",
"@. c #D7C6E1",
"#. c #D8C7E1",
"$. c #D8C9E1",
"%. c #DACEE1",
"&. c #DBCFE1",
"*. c #DACCE2",
"=. c #DBD0E2",
"-. c #DCD2E2",
";. c #DDD3E2",
":. c #DDD5E2",
">. c #DED6E2",
",. c #DFD9E3",
"<. c #E0DBE3",
"1. c #E0DCE3",
"2. c #E2DEE3",
"3. c #E2DFE4",
"4. c gray88",
"5. c #E1E1E1",
"6. c #E3E2E3",
"7. c #E2E0E4",
"8. c #E3E1E4",
"9. c #E3E2E4",
"0. c #E4E3E4",
"q. c #E4E4E4",
"w. c #E6E6E6",
"e. c #E9E9E9",
"r. c gray96",
"t. c gray98",
/* pixels */
"                                                                                                                                ",
"                                                                                                                                ",
"                                                                                                                                ",
"                                                                                                                                ",
"                      n } e.e.e.e.e.e.e.e.e.e.e.e.e.e.e.e.e.e.e.e.e.e.e.b                                                       ",
"                    n q.q.q.q.q.q.q.q.q.q.q.q.q.q.q.q.q.q.q.q.q.q.q.q.q.t.z                                                     ",
"                    { q.q.q.q.q.q.q.q.q.q.q.q.q.q.q.q.q.q.q.q.q.q.q.q.q.t.t.z                                                   ",
"                    q.q.q.q.q.q.q.q.q.q.q.q.q.q.q.q.q.q.q.q.q.q.q.q.q.q.t.t.t.z                                                 ",
"                    q.q.q.q.q.q.q.q.q.q.q.q.q.q.q.q.q.q.q.q.q.q.q.q.q.q.t.t.t.t.z                                               ",
"                    q.q.q.q.q.q.q.q.q.q.q.q.q.q.q.q.q.q.q.q.q.q.q.q.q.q.t.t.t.t.t.z                                             ",
"                    q.q.q.q.q.q.q.q.q.q.q.q.q.q.q.q.q.q.q.q.q.q.q.q.q.q.t.t.t.t.t.t.z                                           ",
"                    q.q.q.q.q.q.q.q.q.q.q.q.q.q.q.q.q.q.q.q.q.q.q.q.q.q.t.t.t.t.t.t.t.z                                         ",
"                    q.q.q.q.q.q.q.q.q.q.q.q.q.q.q.q.q.q.q.q.q.q.q.q.q.q.t.t.t.t.t.t.t.t.z                                       ",
"                    q.q.q.q.q.q.q.q.q.q.q.q.q.q.q.q.q.q.q.q.q.q.q.q.q.q.t.t.t.t.t.t.t.t.t.z                                     ",
"                    q.q.q.q.q.q.q.q.q.q.q.q.q.q.q.q.q.q.q.q.q.q.q.q.q.q.t.t.t.t.t.t.t.t.t.t.z                                   ",
"                    q.q.q.q.q.q.q.q.q.q.q.q.q.q.q.q.q.q.q.q.q.q.q.q.q.q.t.t.t.t.t.t.t.t.t.t.t.z                                 ",
"                    q.q.q.q.q.q.q.q.q.q.q.q.q.q.q.q.q.q.q.q.q.q.q.q.q.q.t.t.t.t.t.t.t.t.t.t.t.t.z                               ",
"                    q.q.q.q.q.q.q.q.q.q.q.q.q.q.q.q.q.q.q.q.q.q.q.q.q.q.t.t.t.t.t.t.t.t.t.t.t.t.t.z                             ",
"                    q.q.q.q.q.q.q.q.q.q.q.q.q.q.q.q.q.q.q.q.q.q.q.q.q.q.t.t.t.t.t.t.t.t.t.t.t.t.t.t.z                           ",
"                    q.q.q.q.q.q.q.q.q.q.q.q.q.q.q.q.q.q.q.q.q.q.q.q.q.q.r.t.t.t.t.t.t.t.t.t.t.t.t.t.t..                         ",
"                    q.q.q.q.q.q.q.q.q.q.q.q.q.q.q.q.q.q.q.q.q.q.q.q.q.q.6.t.t.t.t.t.t.t.t.t.t.t.t.t.t.t..                       ",
"                    q.q.q.q.q.q.q.q.q.q.q.q.q.q.q.q.q.q.q.q.q.q.q.q.q.q._ 6.r.t.t.t.t.t.t.t.t.t.t.t.t.t.t.b                     ",
"                    q.q.q.q.q.q.q.q.q.q.q.q.q.q.q.q.q.q.q.q.q.q.q.q.q.q.6._ N M M M M M M M M M M M M M M `                     ",
"                    q.q.q.q.q.q.q.q.q.q.q.q.q.q.q.q.q.q.q.q.q.q.q.q.q.q.q.q.q.q.q.q.q.q.q.q.q.q.q.q.q.q.q.q.                    ",
"                    q.q.q.q.q.q.q.q.q.q.q.q.q.q.q.q.q.q.q.q.q.q.q.q.q.q.q.q.q.q.q.q.q.q.q.q.q.q.q.q.q.q.q.q.                    ",
"                    q.q.q.q.q.q.q.q.q.q.q.q.q.q.q.q.q.q.q.q.q.q.q.q.q.q.q.q.q.q.q.q.q.q.q.q.q.q.q.q.q.q.q.q.                    ",
"                    q.q.q.q.q.q.q.q.q.q.q.q.q.q.q.q.q.q.q.q.q.q.q.q.q.q.q.q.q.q.q.q.q.q.q.q.q.q.q.q.q.q.q.q.                    ",
"                    q.q.q.q.q.q.q.q.q.q.q.q.q.q.q.q.q.q.q.q.q.q.q.q.q.q.q.q.q.q.q.q.q.q.q.q.q.q.q.q.q.q.q.q.                    ",
"                    q.q.q.q.q.q.q.q.q.q.q.q.q.q.q.q.q.q.q.q.q.q.q.q.q.q.q.q.q.q.q.q.q.q.q.q.q.q.q.q.q.q.q.q.                    ",
"                    q.q.q.q.q.q.q.q.q.q.q.q.q.q.q.q.q.q.q.q.q.q.q.q.q.q.q.q.q.q.q.q.q.q.q.q.q.q.q.q.q.q.q.q.                    ",
"                    q.q.q.q.q.q.q.q.q.q.q.q.q.q.q.q.q.q.q.q.q.q.q.l s L q.V 9.q.q.q.q.q.q.q.q.q.q.q.q.q.q.q.                    ",
"                    q.q.q.q.q.q.q.q.q.q.q.q.q.q.q.q.q.q.q.q.q.q.9.> X 8 q.X f 1.q.q.q.q.q.q.q.q.q.q.q.q.q.q.                    ",
"                    q.q.q.q.q.q.q.q.q.q.q.q.q.q.q.q.q.q.q.q.q.q.@.X X S q.X X w >.q.q.q.q.q.q.q.q.q.q.q.q.q.                    ",
"                    q.q.q.q.q.q.q.q.q.q.q.q.q.q.q.0.S q.q.q.q.q.K X X W q.X X X 1 *.q.q.q.q.q.q.q.q.q.q.q.q.                    ",
"                    q.q.q.q.q.q.q.q.q.q.q.q.q.q.3.g X q.q.q.q.q.s X X 1.q.D X X X > | q.q.q.q.q.q.q.q.q.q.q.                    ",
"                    q.q.q.q.q.q.q.q.q.q.q.q.q.,.y X X q.q.q.q.6.= X w q.q.q.Y X X X & R q.q.q.q.q.q.q.q.q.q.                    ",
"                    q.q.q.q.q.q.q.q.q.q.q.q.*.5 X X X q.q.q.q.| X X D q.q.q.q.~ = X X $ L q.q.q.q.q.q.q.q.q.                    ",
"                    q.q.q.q.q.q.q.q.q.q.q.| > X X X D q.q.q.q.J X X ~ q.q.q.q.q.@., X X X S 0.q.q.q.q.q.q.q.                    ",
"                    q.q.q.q.q.q.q.q.q.q.W = X X $ L q.q.q.q.q.i X # 1.q.q.q.q.q.q.-.7 X X X g 3.q.q.q.q.q.q.                    ",
"                    q.q.q.q.q.q.q.q.q.L $ X X = / q.q.q.q.q.9.& X t q.q.q.q.q.q.q.q.*.# X X X f q.q.q.q.q.q.                    ",
"                    q.q.q.q.q.q.q.0.H X X X , | q.q.q.q.q.q.^ X X F q.q.q.q.q.q.q.-.7 X X X 1 $.q.q.q.q.q.q.                    ",
"                    q.q.q.q.q.q.9.k X X X 5 =.q.q.q.q.q.q.q.F X X ( q.q.q.q.q.q.#.< X X X w >.q.q.q.q.q.q.q.                    ",
"                    q.q.q.q.q.q.f X X X # *.q.q.q.q.q.q.q.q.t X & 9.q.q.q.q.q./ = X X X k 9.q.q.q.q.q.q.q.q.                    ",
"                    q.q.q.q.q.q.*.3 X X X 5 =.q.q.q.q.q.q.3.# X u q.q.q.q.q.Y X X X X S 0.q.q.q.q.q.q.q.q.q.                    ",
"                    q.q.q.q.q.q.q.>.w X X X , @.q.q.q.q.q.~ X X J q.q.q.q.D X X X # T q.q.q.q.q.q.q.q.q.q.q.                    ",
"                    q.q.q.q.q.q.q.q.9.l X X X & E q.q.q.q.S X X | q.q.q.q.X X X > ^ q.q.q.q.q.q.q.q.q.q.q.q.                    ",
"                    q.q.q.q.q.q.q.q.q.0.J X X X $ L q.q.q.w X = 6.q.q.q.q.X X 7 *.q.q.q.q.q.q.q.q.q.q.q.q.q.                    ",
"                    q.q.q.q.q.q.q.q.q.q.q.T # X X X D q.1.X X s q.q.q.q.q.X i <.q.q.q.q.q.q.q.q.q.q.q.q.q.q.                    ",
"                    q.q.q.q.q.q.q.q.q.q.q.q.| > X X X q.W X X K q.q.q.q.q.B 6.q.q.q.q.q.q.q.q.q.q.q.q.q.q.q.                    ",
"                    q.q.q.q.q.q.q.q.q.q.q.q.q.-.8 X X q.C X X @.q.q.q.q.q.q.q.q.q.q.q.q.q.q.q.q.q.q.q.q.q.q.                    ",
"                    q.q.q.q.q.q.q.q.q.q.q.q.q.q.1.s X q.8 X > 9.q.q.q.q.q.q.q.q.q.q.q.q.q.q.q.q.q.q.q.q.q.q.                    ",
"                    q.q.q.q.q.q.q.q.q.q.q.q.q.q.q.6.B q.L s l q.q.q.q.q.q.q.q.q.q.q.q.q.q.q.q.q.q.q.q.q.q.q.                    ",
"                    q.q.q.q.q.q.q.q.q.q.q.q.q.q.q.q.q.q.q.q.q.q.q.q.q.q.q.q.q.q.q.q.q.q.q.q.q.q.q.q.q.q.q.q.                    ",
"                    q.q.q.q.q.q.q.q.q.q.q.q.q.q.q.q.q.q.q.q.q.q.q.q.q.q.q.q.q.q.q.q.q.q.q.q.q.q.q.q.q.q.q.q.                    ",
"                    q.q.q.q.q.q.q.q.q.q.q.q.q.q.q.q.q.q.q.q.q.q.q.q.q.q.q.q.q.q.q.q.q.q.q.q.q.q.q.q.q.q.q.q.                    ",
"                    q.q.q.q.q.q.q.q.q.q.q.q.q.q.q.q.q.q.q.q.q.q.q.q.q.q.q.q.q.q.q.q.q.q.q.q.q.q.q.q.q.q.q.q.                    ",
"                    q.q.q.q.q.q.q.q.q.q.q.q.q.q.q.q.q.q.q.q.q.q.q.q.q.q.q.q.q.q.q.q.q.q.q.q.q.q.q.q.q.q.q.q.                    ",
"                    ] q.q.q.q.q.q.q.q.q.q.q.q.q.q.q.q.q.q.q.q.q.q.q.q.q.q.q.q.q.q.q.q.q.q.q.q.q.q.q.q.q.q.]                     ",
"                    c q.q.q.q.q.q.q.q.q.q.q.q.q.q.q.q.q.q.q.q.q.q.q.q.q.q.q.q.q.q.q.q.q.q.q.q.q.q.q.q.q.q.c                     ",
"                      v ] q.q.q.q.q.q.q.q.q.q.q.q.q.q.q.q.q.q.q.q.q.q.q.q.q.q.q.q.q.q.q.q.q.q.q.q.q.q.] v                       ",
"                                                                                                                                ",
"                                                                                                                                ",
"                                                                                                                                ",
"                                                                                                                                "
};
