/* XPM */
static char * folder_apps_xpm[] = {
"64 64 81 1 ",
"  c None",
". c #363A4F",
"X c #383F54",
"o c #3B4258",
"O c #3B4459",
"+ c #3D475D",
"@ c #3D485E",
"# c #3D495F",
"$ c #3E4960",
"% c #404E65",
"& c #414E65",
"* c #435268",
"= c #44546B",
"- c #465A71",
"; c #475A72",
": c #485D75",
"> c #4A6178",
", c #42687B",
"< c #456B7F",
"1 c #477084",
"2 c #487185",
"3 c #487388",
"4 c #497488",
"5 c #487489",
"6 c #497489",
"7 c #4C778B",
"8 c #4C788B",
"9 c #4D798C",
"0 c #4D798D",
"q c #55768F",
"w c #567994",
"e c #577A94",
"r c #587B95",
"t c #597E99",
"y c #5A7F99",
"u c #5788A1",
"i c #548DA6",
"p c #558FA9",
"a c #5E94AF",
"s c #5C9AB6",
"d c #5C9BB7",
"f c #5E9DB9",
"g c #5E9DBA",
"h c #65A5C4",
"j c #65A6C5",
"k c #6CA9C8",
"l c #6DAAC9",
"z c #68AECE",
"x c #6DAFCC",
"c c #70ACCB",
"v c #69B0CF",
"b c #6EB0CD",
"n c #6EB0CE",
"m c #69B0D0",
"M c #6AB0D0",
"N c #6BB1D1",
"B c #6CB1D1",
"V c #6DB1D1",
"C c #6DB1D2",
"Z c #6CB2D2",
"A c #6EB2D2",
"S c #70B2D2",
"D c #70B3D2",
"F c #72B3D3",
"G c #73B4D4",
"H c #76B5D4",
"J c #75B7D5",
"K c #75B8D6",
"L c #78BCDB",
"P c #7ABDDC",
"I c #7BC0E0",
"U c #7AC1E0",
"Y c #7BC1E0",
"T c #7BC0E1",
"R c #7CC1E2",
"E c #7DC4E4",
"W c #A4C6E7",
"Q c #A5C6E7",
"! c #A6C6E7",
"~ c #C4D1F3",
"^ c #CAD3F5",
/* pixels */
"                                                                ",
"                                                                ",
"                                                                ",
"                                                                ",
"                                                                ",
"                                                                ",
"                                                                ",
"     6kGGGGGGGGGGGGGGGku                                        ",
"    6ZvmmmmmmmmmmmmmmmmZD,                                      ",
"    jmmmmmmmmmmmmmmmmmmmmZ2                                     ",
"    vmmmmmmmmmmmmmmmmmmmmmZ<                                    ",
"    mmmmmmmmmmmmmmmmmmmmmmmZ1                                   ",
"    mmmmmmmmmmmmmmmmmmmmmmmmZa                                  ",
"    mmmmmmmmmmmmmmmmmmmmmmmmmmDDGGGGGGGGGGGGGGGGGGGGGGGGGk6     ",
"    mmmmmmmmmmmmmmmmmmmmmmmmmmmmmmmmmmmmmmmmmmmmmmmmmmmmmvZ3    ",
"    mmmmmmmmmmmmmmmmmmmmmmmmmmmmmmmmmmmmmmmmmmmmmmmmmmmmmmmj    ",
"    mmmmZQ~^^^^^^^^^^^^^^^^^^^^^^^^^^^^^^^^^^^^^^^^^^~QZmmmm    ",
"    mmmmQ^^^^^^^^^^^^^^^^^^^^^^^^^^^^^^^^^^^^^^^^^^^^^^Qmmmm    ",
"    mmmm~^^^^^^^^^^^^^^^^^^^^^^^^^^^^^^^^^^^^^^^^^^^^^^~mmmm    ",
"    mmmm^^^^^^^^^^^^^^^^^^^^^^^^^^^^^^^^^^^^^^^^^^^^^^^^mmmm    ",
"    zspi^^^^^^^^^^^^^^^^^^^^^^^^^^^^^^^^^^^^^^^^^^^^^^^^ipsz    ",
"    fxTEEEEEEEEEEEEEEEEEEEEEEEEEEEEEEEEEEEEEEEEEEEEEEEEEETxf    ",
"    nEEEEEEEEEEEEEEEEEEEEEEEEEEEEEEEEEEEEEEEEEEEEEEEEEEEEEEn    ",
"    TEEEEEEEEEEEEEEEEEEEEEEEEEEEEEEEEEEEEEEEEEEEEEEEEEEEEEET    ",
"    EEEEEEEEEEEEEEEEEEEEEEEEEEEEEEEEEEEEEEEEEEEEEEEEEEEEEEEE    ",
"    EEEEEEEEEEEEEEEEEEEEEEEEEEEEEEEEEEEEEEEEEEEEEEEEEEEEEEEE    ",
"    EEEEEEEEEEEEEEEEEEEEEEEEEEEEEEEEEEEEEEEEEEEEEEEEEEEEEEEE    ",
"    EEEEEEEEEEEEEEEEEEEEEEEEEEEEEEEEEEEEEEEEEEEEEEEEEEEEEEEE    ",
"    EEEEEEEEEEEEEEEEETe+....+eTEETe+....+eTEEEEEEEEEEEEEEEEE    ",
"    EEEEEEEEEEEEEEEEEe........eEEe........eEEEEEEEEEEEEEEEEE    ",
"    EEEEEEEEEEEEEEEEE+........+EE+........+EEEEEEEEEEEEEEEEE    ",
"    EEEEEEEEEEEEEEEEE..........EE..........EEEEEEEEEEEEEEEEE    ",
"    EEEEEEEEEEEEEEEEE..........EE..........EEEEEEEEEEEEEEEEE    ",
"    EEEEEEEEEEEEEEEEE..........EE..........EEEEEEEEEEEEEEEEE    ",
"    EEEEEEEEEEEEEEEEE..........EE..........EEEEEEEEEEEEEEEEE    ",
"    EEEEEEEEEEEEEEEEE+........@EE+........@EEEEEEEEEEEEEEEEE    ",
"    EEEEEEEEEEEEEEEEEe........rEEe........rEEEEEEEEEEEEEEEEE    ",
"    EEEEEEEEEEEEEEEEETe@....@eTEETe@....@eTEEEEEEEEEEEEEEEEE    ",
"    EEEEEEEEEEEEEEEEEEEEEEEEEEEEEEEEEEEEEEEEEEEEEEEEEEEEEEEE    ",
"    EEEEEEEEEEEEEEEEEEEEEEEEEEEEEEEEEEEEEEEEEEEEEEEEEEEEEEEE    ",
"    EEEEEEEEEEEEEEEEETe+....+eTEEEEE;..;EEEEEEEEEEEEEEEEEEEE    ",
"    EEEEEEEEEEEEEEEEEe........eEEEEE....EEEEEEEEEEEEEEEEEEEE    ",
"    EEEEEEEEEEEEEEEEE+........+EEEEE....EEEEEEEEEEEEEEEEEEEE    ",
"    EEEEEEEEEEEEEEEEE..........EEyX......XyEEEEEEEEEEEEEEEEE    ",
"    EEEEEEEEEEEEEEEEE..........EEo........OEEEEEEEEEEEEEEEEE    ",
"    EEEEEEEEEEEEEEEEE..........EEq........qEEEEEEEEEEEEEEEEE    ",
"    EEEEEEEEEEEEEEEEE..........EER>......:TEEEEEEEEEEEEEEEEE    ",
"    EEEEEEEEEEEEEEEEE+........@EEEP=....*LEEEEEEEEEEEEEEEEEE    ",
"    EEEEEEEEEEEEEEEEEe........rEEEEJ$..$JEEEEEEEEEEEEEEEEEEE    ",
"    EEEEEEEEEEEEEEEEETe@....@eTEEEEEc%%cEEEEEEEEEEEEEEEEEEEE    ",
"    EEEEEEEEEEEEEEEEEEEEEEEEEEEEEEEEEEEEEEEEEEEEEEEEEEEEEEEE    ",
"    EEEEEEEEEEEEEEEEEEEEEEEEEEEEEEEEEEEEEEEEEEEEEEEEEEEEEEEE    ",
"    EEEEEEEEEEEEEEEEEEEEEEEEEEEEEEEEEEEEEEEEEEEEEEEEEEEEEEEE    ",
"    EEEEEEEEEEEEEEEEEEEEEEEEEEEEEEEEEEEEEEEEEEEEEEEEEEEEEEEE    ",
"    JEEEEEEEEEEEEEEEEEEEEEEEEEEEEEEEEEEEEEEEEEEEEEEEEEEEEEEJ    ",
"    0EEEEEEEEEEEEEEEEEEEEEEEEEEEEEEEEEEEEEEEEEEEEEEEEEEEEEE8    ",
"     0KEEEEEEEEEEEEEEEEEEEEEEEEEEEEEEEEEEEEEEEEEEEEEEEEEEK7     ",
"                                                                ",
"                                                                ",
"                                                                ",
"                                                                ",
"                                                                ",
"                                                                ",
"                                                                "
};
