/* XPM */
static char * folder_mail_xpm[] = {
"64 64 128 2 ",
"   c None",
".  c #363A4F",
"X  c #363B50",
"o  c #363B51",
"O  c #373C50",
"+  c #373C52",
"@  c #383D53",
"#  c #383E52",
"$  c #383E54",
"%  c #393F56",
"&  c #394056",
"*  c #394157",
"=  c #3B4258",
"-  c #3C465C",
";  c #3D485E",
":  c #3E4A5F",
">  c #414E65",
",  c #414F66",
"<  c #425067",
"1  c #425068",
"2  c #425168",
"3  c #435268",
"4  c #425369",
"5  c #43536A",
"6  c #44546B",
"7  c #44566D",
"8  c #45576F",
"9  c #45586E",
"0  c #455870",
"q  c #475A72",
"w  c #4A6178",
"e  c #4A6179",
"r  c #4B6179",
"t  c #4A627A",
"y  c #4B637B",
"u  c #42687B",
"i  c #456B7F",
"p  c #4D6880",
"a  c #4E6881",
"s  c #516F89",
"d  c #526F89",
"f  c #477084",
"g  c #487185",
"h  c #487388",
"j  c #497488",
"k  c #487489",
"l  c #497489",
"z  c #4C778B",
"x  c #4C788B",
"c  c #4D798C",
"v  c #4D798D",
"b  c #527089",
"n  c #52718A",
"m  c #5D85A0",
"M  c #5D86A1",
"N  c #5E87A2",
"B  c #5788A1",
"V  c #548DA6",
"C  c #5F88A3",
"Z  c #5E88A4",
"A  c #5F89A5",
"S  c #5F8AA4",
"D  c #558FA9",
"F  c #5E94AF",
"G  c #5C9AB6",
"H  c #5C9BB7",
"J  c #5E9DB9",
"K  c #5E9DBA",
"L  c #608AA5",
"P  c #608BA7",
"I  c #608CA7",
"U  c #6596B2",
"Y  c #6799B5",
"T  c #689AB6",
"R  c #699DBA",
"E  c #6BA0BD",
"W  c #6BA1BE",
"Q  c #65A5C4",
"!  c #65A6C5",
"~  c #6CA4C1",
"^  c #6DA4C2",
"/  c #6CA9C8",
"(  c #6DAAC9",
")  c #6FAAC8",
"_  c #68AECE",
"`  c #6DAFCC",
"'  c #70ABC9",
"]  c #70ACCB",
"[  c #71ADCB",
"{  c #71AECB",
"}  c #69B0CF",
"|  c #6EB0CD",
" . c #6EB0CE",
".. c #69B0D0",
"X. c #6AB0D0",
"o. c #6BB1D1",
"O. c #6CB1D1",
"+. c #6DB1D1",
"@. c #6DB1D2",
"#. c #6CB2D2",
"$. c #6EB2D2",
"%. c #70B2D2",
"&. c #70B3D2",
"*. c #72B3D3",
"=. c #74B2D1",
"-. c #74B4D2",
";. c #75B5D3",
":. c #73B4D4",
">. c #75B4D4",
",. c #76B5D4",
"<. c #75B7D5",
"1. c #76B6D5",
"2. c #75B8D6",
"3. c #79BBDC",
"4. c #7ABDDC",
"5. c #7ABEDD",
"6. c #7ABEDE",
"7. c #7BC0E0",
"8. c #7AC1E0",
"9. c #7BC1E0",
"0. c #7DC3E2",
"q. c #7CC2E3",
"w. c #7DC4E4",
"e. c #A4C6E7",
"r. c #A5C6E7",
"t. c #A6C6E7",
"y. c #C4D1F3",
"u. c #CAD3F5",
/* pixels */
"                                                                                                                                ",
"                                                                                                                                ",
"                                                                                                                                ",
"                                                                                                                                ",
"                                                                                                                                ",
"                                                                                                                                ",
"                                                                                                                                ",
"          l / :.:.:.:.:.:.:.:.:.:.:.:.:.:.:./ B                                                                                 ",
"        l #.} ................................#.&.u                                                                             ",
"        ! ........................................#.g                                                                           ",
"        } ..........................................#.i                                                                         ",
"        ..............................................#.f                                                                       ",
"        ................................................#.F                                                                     ",
"        ....................................................&.&.:.:.:.:.:.:.:.:.:.:.:.:.:.:.:.:.:.:.:.:.:.:.:.:.:./ l           ",
"        ..........................................................................................................} #.h         ",
"        ..............................................................................................................!         ",
"        ........#.r.y.u.u.u.u.u.u.u.u.u.u.u.u.u.u.u.u.u.u.u.u.u.u.u.u.u.u.u.u.u.u.u.u.u.u.u.u.u.u.u.u.u.u.y.r.#.........        ",
"        ........r.u.u.u.u.u.u.u.u.u.u.u.u.u.u.u.u.u.u.u.u.u.u.u.u.u.u.u.u.u.u.u.u.u.u.u.u.u.u.u.u.u.u.u.u.u.u.r.........        ",
"        ........y.u.u.u.u.u.u.u.u.u.u.u.u.u.u.u.u.u.u.u.u.u.u.u.u.u.u.u.u.u.u.u.u.u.u.u.u.u.u.u.u.u.u.u.u.u.u.y.........        ",
"        ........u.u.u.u.u.u.u.u.u.u.u.u.u.u.u.u.u.u.u.u.u.u.u.u.u.u.u.u.u.u.u.u.u.u.u.u.u.u.u.u.u.u.u.u.u.u.u.u.........        ",
"        _ G D V u.u.u.u.u.u.u.u.u.u.u.u.u.u.u.u.u.u.u.u.u.u.u.u.u.u.u.u.u.u.u.u.u.u.u.u.u.u.u.u.u.u.u.u.u.u.u.u.V D G _         ",
"        J ` 8.w.w.w.w.w.w.w.w.w.w.w.w.w.w.w.w.w.w.w.w.w.w.w.w.w.w.w.w.w.w.w.w.w.w.w.w.w.w.w.w.w.w.w.w.w.w.w.w.w.w.8.` J         ",
"         .w.w.w.w.w.w.w.w.w.w.w.w.w.w.w.w.w.w.w.w.w.w.w.w.w.w.w.w.w.w.w.w.w.w.w.w.w.w.w.w.w.w.w.w.w.w.w.w.w.w.w.w.w.w. .        ",
"        8.w.w.w.w.w.w.w.w.w.w.w.w.w.w.w.w.w.w.w.w.w.w.w.w.w.w.w.w.w.w.w.w.w.w.w.w.w.w.w.w.w.w.w.w.w.w.w.w.w.w.w.w.w.w.8.        ",
"        w.w.w.w.w.w.w.w.w.w.w.w.w.w.w.w.w.w.w.w.w.w.w.w.w.w.w.w.w.w.w.w.w.w.w.w.w.w.w.w.w.w.w.w.w.w.w.w.w.w.w.w.w.w.w.w.        ",
"        w.w.w.w.w.w.w.w.w.w.w.w.w.w.w.w.w.w.w.w.w.w.w.w.w.w.w.w.w.w.w.w.w.w.w.w.w.w.w.w.w.w.w.w.w.w.w.w.w.w.w.w.w.w.w.w.        ",
"        w.w.w.w.w.w.w.w.w.w.w.w.w.w.w.w.w.w.w.w.w.w.w.w.w.w.w.w.w.w.w.w.w.w.w.w.w.w.w.w.w.w.w.w.w.w.w.w.w.w.w.w.w.w.w.w.        ",
"        w.w.w.w.w.w.w.w.w.w.w.w.w.w.w.w.w.w.w.w.w.w.w.-.A w , % % , w A -.w.w.w.w.w.w.w.w.w.w.w.w.w.w.w.w.w.w.w.w.w.w.w.        ",
"        w.w.w.w.w.w.w.w.w.w.w.w.w.w.w.w.w.w.w.w.w.,.n o . . . . . . . . O p =.w.w.w.w.w.w.w.w.w.w.w.w.w.w.w.w.w.w.w.w.w.        ",
"        w.w.w.w.w.w.w.w.w.w.w.w.w.w.w.w.w.w.w.w.Y & . . . . . . . . . . . . & T w.w.w.w.w.w.w.w.w.w.w.w.w.w.w.w.w.w.w.w.        ",
"        w.w.w.w.w.w.w.w.w.w.w.w.w.w.w.w.w.w.w.C O . . . . . . . . . . . . . . O A w.w.w.w.w.w.w.w.w.w.w.w.w.w.w.w.w.w.w.        ",
"        w.w.w.w.w.w.w.w.w.w.w.w.w.w.w.w.w.w.Y O . . . . 4 C [ 5.5.[ C 4 . . . . O T w.w.w.w.w.w.w.w.w.w.w.w.w.w.w.w.w.w.        ",
"        w.w.w.w.w.w.w.w.w.w.w.w.w.w.w.w.w.,.& . . . @ L q.w.w.w.w.w.w.q.L @ . . . & ,.w.w.w.w.w.w.w.w.w.w.w.w.w.w.w.w.w.        ",
"        w.w.w.w.w.w.w.w.w.w.w.w.w.w.w.w.w.d . . . @ W w.8.A 7 % % 7 A 8.w.W @ . . . n w.w.w.w.w.w.w.w.w.w.w.w.w.w.w.w.w.        ",
"        w.w.w.w.w.w.w.w.w.w.w.w.w.w.w.w.-.o . . . I w.,.4 . . . . . . 6 ,.w.A . . . o ,.w.w.w.w.w.w.w.w.w.w.w.w.w.w.w.w.        ",
"        w.w.w.w.w.w.w.w.w.w.w.w.w.w.w.w.A . . . 4 q.8.4 . . . . . . . . 6 8.q.4 . . . L w.w.w.w.w.w.w.w.w.w.w.w.w.w.w.w.        ",
"        w.w.w.w.w.w.w.w.w.w.w.w.w.w.w.w.w . . . C w.A . . . . . . . . . . A w.M . . . w w.w.w.w.w.w.w.w.w.w.w.w.w.w.w.w.        ",
"        w.w.w.w.w.w.w.w.w.w.w.w.w.w.w.w., . . . [ w.9 . . . w ,.,.w . . . 0 w.[ . . . , w.w.w.w.w.w.w.w.w.w.w.w.w.w.w.w.        ",
"        w.w.w.w.w.w.w.w.w.w.w.w.w.w.w.w.& . . . 5.w.& . . . ,.w.w.-.. . . & w.5.. . . & w.w.w.w.w.w.w.w.w.w.w.w.w.w.w.w.        ",
"        w.w.w.w.w.w.w.w.w.w.w.w.w.w.w.w.& . . . 3.w.& . . . ,.w.w.-.. . . & w.3.. . . % w.w.w.w.w.w.w.w.w.w.w.w.w.w.w.w.        ",
"        w.w.w.w.w.w.w.w.w.w.w.w.w.w.w.w., . . . ' w.9 . . . w ,.-.w . . . 0 w.R . . . : w.w.w.w.w.w.w.w.w.w.w.w.w.w.w.w.        ",
"        w.w.w.w.w.w.w.w.w.w.w.w.w.w.w.w.w . . . M w.A . . . . . . . . . . . . . . . . p w.w.w.w.w.w.w.w.w.w.w.w.w.w.w.w.        ",
"        w.w.w.w.w.w.w.w.w.w.w.w.w.w.w.w.A . . . 4 q.8.4 . . . . . . . . . . . . . . o ~ w.w.w.w.w.w.w.w.w.w.w.w.w.w.w.w.        ",
"        w.w.w.w.w.w.w.w.w.w.w.w.w.w.w.w.-.o . . . M w.,.4 . . . . . . . . . . . . o I w.w.w.w.w.w.w.w.w.w.w.w.w.w.w.w.w.        ",
"        w.w.w.w.w.w.w.w.w.w.w.w.w.w.w.w.w.d . . . @ R w.8.A 0 & . . . . . . . @ w / w.w.w.w.w.w.w.w.w.w.w.w.w.w.w.w.w.w.        ",
"        w.w.w.w.w.w.w.w.w.w.w.w.w.w.w.w.w.,.& . . . O A q.w.w.w.w.w.w.w.w.w.w.w.w.w.w.w.w.w.w.w.w.w.w.w.w.w.w.w.w.w.w.w.        ",
"        w.w.w.w.w.w.w.w.w.w.w.w.w.w.w.w.w.w.T O . . . . 7 L [ 5.w.w.w.w.w.w.w.w.w.w.w.w.w.w.w.w.w.w.w.w.w.w.w.w.w.w.w.w.        ",
"        w.w.w.w.w.w.w.w.w.w.w.w.w.w.w.w.w.w.w.A O . . . . . . . . . . . . . . = U w.w.w.w.w.w.w.w.w.w.w.w.w.w.w.w.w.w.w.        ",
"        w.w.w.w.w.w.w.w.w.w.w.w.w.w.w.w.w.w.w.w.T & . . . . . . . . . . . . . . : w.w.w.w.w.w.w.w.w.w.w.w.w.w.w.w.w.w.w.        ",
"        w.w.w.w.w.w.w.w.w.w.w.w.w.w.w.w.w.w.w.w.w.,.n o . . . . . . . . . . . . 4 w.w.w.w.w.w.w.w.w.w.w.w.w.w.w.w.w.w.w.        ",
"        w.w.w.w.w.w.w.w.w.w.w.w.w.w.w.w.w.w.w.w.w.w.w.,.L w < & . . . . . . . - ~ w.w.w.w.w.w.w.w.w.w.w.w.w.w.w.w.w.w.w.        ",
"        w.w.w.w.w.w.w.w.w.w.w.w.w.w.w.w.w.w.w.w.w.w.w.w.w.w.w.w.w.w.w.w.w.w.w.w.w.w.w.w.w.w.w.w.w.w.w.w.w.w.w.w.w.w.w.w.        ",
"        w.w.w.w.w.w.w.w.w.w.w.w.w.w.w.w.w.w.w.w.w.w.w.w.w.w.w.w.w.w.w.w.w.w.w.w.w.w.w.w.w.w.w.w.w.w.w.w.w.w.w.w.w.w.w.w.        ",
"        w.w.w.w.w.w.w.w.w.w.w.w.w.w.w.w.w.w.w.w.w.w.w.w.w.w.w.w.w.w.w.w.w.w.w.w.w.w.w.w.w.w.w.w.w.w.w.w.w.w.w.w.w.w.w.w.        ",
"        ,.w.w.w.w.w.w.w.w.w.w.w.w.w.w.w.w.w.w.w.w.w.w.w.w.w.w.w.w.w.w.w.w.w.w.w.w.w.w.w.w.w.w.w.w.w.w.w.w.w.w.w.w.w.w.,.        ",
"        v w.w.w.w.w.w.w.w.w.w.w.w.w.w.w.w.w.w.w.w.w.w.w.w.w.w.w.w.w.w.w.w.w.w.w.w.w.w.w.w.w.w.w.w.w.w.w.w.w.w.w.w.w.w.x         ",
"          v 2.w.w.w.w.w.w.w.w.w.w.w.w.w.w.w.w.w.w.w.w.w.w.w.w.w.w.w.w.w.w.w.w.w.w.w.w.w.w.w.w.w.w.w.w.w.w.w.w.w.w.2.z           ",
"                                                                                                                                ",
"                                                                                                                                ",
"                                                                                                                                ",
"                                                                                                                                ",
"                                                                                                                                ",
"                                                                                                                                ",
"                                                                                                                                "
};
